  0
SECTION
  2
HEADER
  9
$ACADVER
  1
AC1009
  9
$FILLMODE
 70
0
  9
$EXTMIN
 10
-11.6635
 20
-8.9345
 30
0.0000
  9
$EXTMAX
 10
54.6862
 20
84.3725
 30
0.0000
  0
ENDSEC
  0
SECTION
  2
TABLES
  0
TABLE
  2
LTYPE
 70
1
  0
LTYPE
  2
CONTINUOUS
 70
64
  3
Solid line
 72
65
 73
0
 40
0
  0
ENDTAB
  0
TABLE
  2
LAYER
 70
255
  0
LAYER
  2
19
 70
64
 62
53
  6
CONTINUOUS
  0
LAYER
  2
20
 70
64
 62
30
  6
CONTINUOUS
  0
LAYER
  2
21
 70
64
 62
253
  6
CONTINUOUS
  0
LAYER
  2
39
 70
64
 62
22
  6
CONTINUOUS
  0
LAYER
  2
40
 70
64
 62
175
  6
CONTINUOUS
  0
LAYER
  2
45
 70
64
 62
253
  6
CONTINUOUS
  0
LAYER
  2
49
 70
64
 62
253
  6
CONTINUOUS
  0
LAYER
  2
51
 70
64
 62
253
  6
CONTINUOUS
  0
ENDTAB
  0
ENDSEC
  0
SECTION
  2
BLOCKS
  0
BLOCK
  8
0
  2
RECT
 70
64
 10
0.0000
 20
0.0000
 30
0.0000
  3
RECT
  0
SOLID
  8
0
 10
-0.5000
 20
-0.5000
 30
0.0000
 11
0.5000
 21
-0.5000
 31
0.0000
 12
-0.5000
 22
0.5000
 32
0.0000
 13
0.5000
 23
0.5000
 33
0.0000
  0
ENDBLK
  8
0
  0
BLOCK
  8
0
  2
PIE
 70
64
 10
0.0000
 20
0.0000
 30
0.0000
  3
PIE
  0
CIRCLE
  8
0
 10
0.0000
 20
0.0000
 30
0.0000
 40
0.5000
  0
ENDBLK
  8
0
  0
BLOCK
  8
0
  2
OCTAGONP
 70
64
 10
0.0000
 20
0.0000
 30
0.0000
  3
OCTAGONP
  0
POLYLINE
  8
0
 66
1
 10
0.0000
 20
0.0000
 30
0.0000
 40
0.0000
 41
0.0000
 70
1
  0
VERTEX
  8
0
 10
-0.5000
 20
-0.2071
 30
0.0000
  0
VERTEX
  8
0
 10
-0.5000
 20
0.2071
 30
0.0000
  0
VERTEX
  8
0
 10
-0.2071
 20
0.5000
 30
0.0000
  0
VERTEX
  8
0
 10
0.2071
 20
0.5000
 30
0.0000
  0
VERTEX
  8
0
 10
0.5000
 20
0.2071
 30
0.0000
  0
VERTEX
  8
0
 10
0.5000
 20
-0.2071
 30
0.0000
  0
VERTEX
  8
0
 10
0.2071
 20
-0.5000
 30
0.0000
  0
VERTEX
  8
0
 10
-0.2071
 20
-0.5000
 30
0.0000
  0
SEQEND
  8
0
  0
ENDBLK
  8
0
  0
BLOCK
  8
0
  2
SQUAREP
 70
64
 10
0.0000
 20
0.0000
 30
0.0000
  3
SQUAREP
  0
SOLID
  8
0
 10
-0.5000
 20
-0.5000
 30
0.0000
 11
0.5000
 21
-0.5000
 31
0.0000
 12
-0.5000
 22
0.5000
 32
0.0000
 13
0.5000
 23
0.5000
 33
0.0000
  0
ENDBLK
  8
0
  0
BLOCK
  8
0
  2
ROUNDP
 70
64
 10
0.0000
 20
0.0000
 30
0.0000
  3
ROUNDP
  0
CIRCLE
  8
0
 10
0.0000
 20
0.0000
 30
0.0000
 40
0.5000
  0
ENDBLK
  8
0
  0
BLOCK
  8
0
  2
ANNULUSP
 70
64
 10
0.0000
 20
0.0000
 30
0.0000
  3
ANNULUSP
  0
CIRCLE
  8
0
 10
0.0000
 20
0.0000
 30
0.0000
 40
0.5000
  0
ENDBLK
  8
0
  0
BLOCK
  8
0
  2
THERMALP
 70
64
 10
0.0000
 20
0.0000
 30
0.0000
  3
THERMALP
  0
LINE
  8
0
 10
-0.2379
 20
0.4500
 30
0.0000
 11
0.2379
 21
0.4500
 31
0.0000
  0
LINE
  8
0
 10
0.4500
 20
0.2379
 30
0.0000
 11
0.4500
 21
-0.2379
 31
0.0000
  0
LINE
  8
0
 10
0.2379
 20
-0.4500
 30
0.0000
 11
-0.2379
 21
-0.4500
 31
0.0000
  0
LINE
  8
0
 10
-0.4500
 20
-0.2379
 30
0.0000
 11
-0.4500
 21
0.2379
 31
0.0000
  0
ENDBLK
  8
0
  0
BLOCK
  8
0
  2
OCTAGONV
 70
64
 10
0.0000
 20
0.0000
 30
0.0000
  3
OCTAGONV
  0
POLYLINE
  8
0
 66
1
 10
0.0000
 20
0.0000
 30
0.0000
 40
0.0000
 41
0.0000
 70
1
  0
VERTEX
  8
0
 10
-0.5000
 20
-0.2071
 30
0.0000
  0
VERTEX
  8
0
 10
-0.5000
 20
0.2071
 30
0.0000
  0
VERTEX
  8
0
 10
-0.2071
 20
0.5000
 30
0.0000
  0
VERTEX
  8
0
 10
0.2071
 20
0.5000
 30
0.0000
  0
VERTEX
  8
0
 10
0.5000
 20
0.2071
 30
0.0000
  0
VERTEX
  8
0
 10
0.5000
 20
-0.2071
 30
0.0000
  0
VERTEX
  8
0
 10
0.2071
 20
-0.5000
 30
0.0000
  0
VERTEX
  8
0
 10
-0.2071
 20
-0.5000
 30
0.0000
  0
SEQEND
  8
0
  0
ENDBLK
  8
0
  0
BLOCK
  8
0
  2
SQUAREV
 70
64
 10
0.0000
 20
0.0000
 30
0.0000
  3
SQUAREV
  0
SOLID
  8
0
 10
-0.5000
 20
-0.5000
 30
0.0000
 11
0.5000
 21
-0.5000
 31
0.0000
 12
-0.5000
 22
0.5000
 32
0.0000
 13
0.5000
 23
0.5000
 33
0.0000
  0
ENDBLK
  8
0
  0
BLOCK
  8
0
  2
ROUNDV
 70
64
 10
0.0000
 20
0.0000
 30
0.0000
  3
ROUNDV
  0
CIRCLE
  8
0
 10
0.0000
 20
0.0000
 30
0.0000
 40
0.5000
  0
ENDBLK
  8
0
  0
BLOCK
  8
0
  2
ANNULUSV
 70
64
 10
0.0000
 20
0.0000
 30
0.0000
  3
ANNULUSV
  0
CIRCLE
  8
0
 10
0.0000
 20
0.0000
 30
0.0000
 40
0.5000
  0
ENDBLK
  8
0
  0
BLOCK
  8
0
  2
THERMALV
 70
64
 10
0.0000
 20
0.0000
 30
0.0000
  3
THERMALV
  0
LINE
  8
0
 10
-0.2379
 20
0.4500
 30
0.0000
 11
0.2379
 21
0.4500
 31
0.0000
  0
LINE
  8
0
 10
0.4500
 20
0.2379
 30
0.0000
 11
0.4500
 21
-0.2379
 31
0.0000
  0
LINE
  8
0
 10
0.2379
 20
-0.4500
 30
0.0000
 11
-0.2379
 21
-0.4500
 31
0.0000
  0
LINE
  8
0
 10
-0.4500
 20
-0.2379
 30
0.0000
 11
-0.4500
 21
0.2379
 31
0.0000
  0
ENDBLK
  8
0
  0
ENDSEC
  0
SECTION
  2
ENTITIES
  0
LINE
  8
20
 10
0.0000
 20
0.0000
 30
0.0000
 11
18.0000
 21
0.0000
 31
0.0000
  0
LINE
  8
20
 10
0.0000
 20
54.0000
 30
0.0000
 11
0.0000
 21
0.0000
 31
0.0000
  0
LINE
  8
20
 10
0.0000
 20
54.0000
 30
0.0000
 11
18.0000
 21
54.0000
 31
0.0000
  0
LINE
  8
20
 10
18.0000
 20
0.0000
 30
0.0000
 11
18.0000
 21
54.0000
 31
0.0000
  0
LINE
  8
21
 10
7.6067
 20
9.9513
 30
0.0000
 11
7.6067
 21
9.6917
 31
0.0000
  0
ARC
  8
21
 10
7.3471
 20
9.6917
 30
0.0000
 40
0.2596
 50
270.0000
 51
0.0000
  0
LINE
  8
21
 10
7.3471
 20
9.4321
 30
0.0000
 11
6.6979
 21
9.4321
 31
0.0000
  0
ARC
  8
21
 10
6.6979
 20
9.6917
 30
0.0000
 40
0.2596
 50
180.0014
 51
270.0000
  0
LINE
  8
21
 10
6.4383
 20
9.6917
 30
0.0000
 11
6.4383
 21
9.9513
 31
0.0000
  0
LINE
  8
21
 10
7.3471
 20
10.3766
 30
0.0000
 11
7.0874
 21
10.3766
 31
0.0000
  0
ARC
  8
21
 10
7.0874
 20
10.6362
 30
0.0000
 40
0.2596
 50
90.0000
 51
270.0000
  0
LINE
  8
21
 10
7.0874
 20
10.8959
 30
0.0000
 11
7.3471
 21
10.8959
 31
0.0000
  0
ARC
  8
21
 10
7.3471
 20
10.6362
 30
0.0000
 40
0.2596
 50
270.0000
 51
90.0000
  0
LINE
  8
21
 10
7.6067
 20
11.4279
 30
0.0000
 11
6.8278
 21
11.4279
 31
0.0000
  0
LINE
  8
21
 10
6.8278
 20
11.4279
 30
0.0000
 11
6.8278
 21
12.0121
 31
0.0000
  0
ARC
  8
21
 10
7.0225
 20
12.0121
 30
0.0000
 40
0.1947
 50
90.0000
 51
180.0000
  0
LINE
  8
21
 10
7.0225
 20
12.2068
 30
0.0000
 11
7.6067
 21
12.2068
 31
0.0000
  0
LINE
  8
21
 10
7.6067
 20
11.8173
 30
0.0000
 11
6.8278
 21
11.8173
 31
0.0000
  0
LINE
  8
21
 10
7.6067
 20
12.7995
 30
0.0000
 11
6.8278
 21
12.7995
 31
0.0000
  0
LINE
  8
21
 10
6.8278
 20
12.7995
 30
0.0000
 11
6.8278
 21
13.3837
 31
0.0000
  0
ARC
  8
21
 10
7.0225
 20
13.3837
 30
0.0000
 40
0.1947
 50
90.0000
 51
180.0000
  0
LINE
  8
21
 10
7.0225
 20
13.5784
 30
0.0000
 11
7.6067
 21
13.5784
 31
0.0000
  0
LINE
  8
21
 10
7.6067
 20
13.1889
 30
0.0000
 11
6.8278
 21
13.1889
 31
0.0000
  0
LINE
  8
21
 10
7.3471
 20
14.1104
 30
0.0000
 11
7.0874
 21
14.1104
 31
0.0000
  0
ARC
  8
21
 10
7.0874
 20
14.3700
 30
0.0000
 40
0.2596
 50
90.0000
 51
270.0000
  0
LINE
  8
21
 10
7.0874
 20
14.6297
 30
0.0000
 11
7.3471
 21
14.6297
 31
0.0000
  0
ARC
  8
21
 10
7.3471
 20
14.3700
 30
0.0000
 40
0.2596
 50
270.0000
 51
90.0000
  0
LINE
  8
21
 10
6.4383
 20
15.6144
 30
0.0000
 11
7.6067
 21
15.6144
 31
0.0000
  0
LINE
  8
21
 10
7.6067
 20
15.6144
 30
0.0000
 11
7.6067
 21
15.2898
 31
0.0000
  0
ARC
  8
21
 10
7.4120
 20
15.2898
 30
0.0000
 40
0.1947
 50
270.0000
 51
0.0000
  0
LINE
  8
21
 10
7.4120
 20
15.0951
 30
0.0000
 11
7.0225
 21
15.0951
 31
0.0000
  0
ARC
  8
21
 10
7.0225
 20
15.2898
 30
0.0000
 40
0.1947
 50
180.0000
 51
270.0000
  0
LINE
  8
21
 10
6.8278
 20
15.2898
 30
0.0000
 11
6.8278
 21
15.6144
 31
0.0000
  0
LINE
  8
21
 10
7.3471
 20
16.1297
 30
0.0000
 11
7.0874
 21
16.1297
 31
0.0000
  0
ARC
  8
21
 10
7.0874
 20
16.3893
 30
0.0000
 40
0.2596
 50
90.0000
 51
270.0000
  0
LINE
  8
21
 10
7.0874
 20
16.6490
 30
0.0000
 11
7.3471
 21
16.6490
 31
0.0000
  0
ARC
  8
21
 10
7.3471
 20
16.3893
 30
0.0000
 40
0.2596
 50
270.0000
 51
90.0000
  0
LINE
  8
21
 10
7.6067
 20
17.1650
 30
0.0000
 11
6.8278
 21
17.1650
 31
0.0000
  0
LINE
  8
21
 10
6.8278
 20
17.1650
 30
0.0000
 11
6.8278
 21
17.5545
 31
0.0000
  0
LINE
  8
21
 10
6.8278
 20
17.5545
 30
0.0000
 11
6.9576
 21
17.5545
 31
0.0000
  0
LINE
  8
21
 10
7.6067
 20
18.4397
 30
0.0000
 11
7.6067
 21
18.1151
 31
0.0000
  0
ARC
  8
21
 10
7.4120
 20
18.1151
 30
0.0000
 40
0.1947
 50
270.0000
 51
0.0000
  0
LINE
  8
21
 10
7.4120
 20
17.9204
 30
0.0000
 11
7.0874
 21
17.9204
 31
0.0000
  0
ARC
  8
21
 10
7.0874
 20
18.1800
 30
0.0000
 40
0.2596
 50
90.0000
 51
270.0000
  0
LINE
  8
21
 10
7.0874
 20
18.4397
 30
0.0000
 11
7.2172
 21
18.4397
 31
0.0000
  0
LINE
  8
21
 10
7.2172
 20
18.4397
 30
0.0000
 11
7.2172
 21
17.9204
 31
0.0000
  0
LINE
  8
21
 10
7.6067
 20
19.5869
 30
0.0000
 11
6.4383
 21
19.5869
 31
0.0000
  0
LINE
  8
21
 10
6.4383
 20
19.5869
 30
0.0000
 11
6.4383
 21
19.9115
 31
0.0000
  0
ARC
  8
21
 10
6.7629
 20
19.9115
 30
0.0000
 40
0.3246
 50
0.0000
 51
180.0000
  0
LINE
  8
21
 10
7.0874
 20
19.9115
 30
0.0000
 11
7.0874
 21
19.5869
 31
0.0000
  0
LINE
  8
21
 10
7.3471
 20
20.6636
 30
0.0000
 11
7.0874
 21
20.6636
 31
0.0000
  0
ARC
  8
21
 10
7.0874
 20
20.9232
 30
0.0000
 40
0.2596
 50
90.0000
 51
270.0000
  0
LINE
  8
21
 10
7.0874
 20
21.1829
 30
0.0000
 11
7.3471
 21
21.1829
 31
0.0000
  0
ARC
  8
21
 10
7.3471
 20
20.9232
 30
0.0000
 40
0.2596
 50
270.0000
 51
90.0000
  0
LINE
  8
21
 10
7.6067
 20
21.6989
 30
0.0000
 11
6.8278
 21
21.6989
 31
0.0000
  0
LINE
  8
21
 10
6.8278
 20
21.6989
 30
0.0000
 11
6.8278
 21
22.0884
 31
0.0000
  0
LINE
  8
21
 10
6.8278
 20
22.0884
 30
0.0000
 11
6.9576
 21
22.0884
 31
0.0000
  0
LINE
  8
21
 10
6.8278
 20
22.3575
 30
0.0000
 11
6.8278
 21
22.7470
 31
0.0000
  0
LINE
  8
21
 10
6.4383
 20
22.4874
 30
0.0000
 11
7.4120
 21
22.4874
 31
0.0000
  0
ARC
  8
21
 10
7.4120
 20
22.6821
 30
0.0000
 40
0.1947
 50
270.0000
 51
0.0000
  0
LINE
  8
21
 10
7.6067
 20
22.6821
 30
0.0000
 11
7.6067
 21
22.7470
 31
0.0000
  0
LINE
  8
21
 10
6.9576
 20
23.8541
 30
0.0000
 11
6.9576
 21
24.1786
 31
0.0000
  0
ARC
  8
21
 10
7.2821
 20
24.1786
 30
0.0000
 40
0.3246
 50
0.0000
 51
180.0000
  0
LINE
  8
21
 10
7.6067
 20
24.1786
 30
0.0000
 11
7.6067
 21
23.8541
 31
0.0000
  0
LINE
  8
21
 10
7.6067
 20
23.8541
 30
0.0000
 11
6.4383
 21
23.8541
 31
0.0000
  0
LINE
  8
21
 10
6.4383
 20
23.8541
 30
0.0000
 11
6.4383
 21
24.1786
 31
0.0000
  0
ARC
  8
21
 10
6.6979
 20
24.1786
 30
0.0000
 40
0.2596
 50
0.0000
 51
180.0000
  0
LINE
  8
21
 10
7.6067
 20
24.9755
 30
0.0000
 11
6.8278
 21
24.9755
 31
0.0000
  0
LINE
  8
21
 10
6.8278
 20
24.9755
 30
0.0000
 11
6.8278
 21
25.3650
 31
0.0000
  0
LINE
  8
21
 10
6.8278
 20
25.3650
 30
0.0000
 11
6.9576
 21
25.3650
 31
0.0000
  0
LINE
  8
21
 10
7.6067
 20
26.2502
 30
0.0000
 11
7.6067
 21
25.9256
 31
0.0000
  0
ARC
  8
21
 10
7.4120
 20
25.9256
 30
0.0000
 40
0.1947
 50
270.0000
 51
0.0000
  0
LINE
  8
21
 10
7.4120
 20
25.7309
 30
0.0000
 11
7.0874
 21
25.7309
 31
0.0000
  0
ARC
  8
21
 10
7.0874
 20
25.9905
 30
0.0000
 40
0.2596
 50
90.0000
 51
270.0000
  0
LINE
  8
21
 10
7.0874
 20
26.2502
 30
0.0000
 11
7.2172
 21
26.2502
 31
0.0000
  0
LINE
  8
21
 10
7.2172
 20
26.2502
 30
0.0000
 11
7.2172
 21
25.7309
 31
0.0000
  0
LINE
  8
21
 10
7.1523
 20
27.2349
 30
0.0000
 11
7.1523
 21
26.9428
 31
0.0000
  0
ARC
  8
21
 10
7.3795
 20
26.9428
 30
0.0000
 40
0.2272
 50
180.0000
 51
0.0000
  0
LINE
  8
21
 10
7.6067
 20
26.9428
 30
0.0000
 11
7.6067
 21
27.2349
 31
0.0000
  0
LINE
  8
21
 10
7.6067
 20
27.2349
 30
0.0000
 11
7.0225
 21
27.2349
 31
0.0000
  0
ARC
  8
21
 10
7.0225
 20
27.0401
 30
0.0000
 40
0.1947
 50
90.0000
 51
180.0000
  0
LINE
  8
21
 10
6.8278
 20
27.0401
 30
0.0000
 11
6.8278
 21
26.7805
 31
0.0000
  0
LINE
  8
21
 10
7.6067
 20
27.8018
 30
0.0000
 11
6.4383
 21
27.8018
 31
0.0000
  0
LINE
  8
21
 10
6.8278
 20
28.3211
 30
0.0000
 11
7.2172
 21
27.8018
 31
0.0000
  0
LINE
  8
21
 10
7.6067
 20
28.3211
 30
0.0000
 11
7.0550
 21
28.0290
 31
0.0000
  0
LINE
  8
21
 10
7.3471
 20
28.7408
 30
0.0000
 11
7.0874
 21
28.7408
 31
0.0000
  0
ARC
  8
21
 10
7.0874
 20
29.0004
 30
0.0000
 40
0.2596
 50
90.0000
 51
270.0000
  0
LINE
  8
21
 10
7.0874
 20
29.2601
 30
0.0000
 11
7.3471
 21
29.2601
 31
0.0000
  0
ARC
  8
21
 10
7.3471
 20
29.0004
 30
0.0000
 40
0.2596
 50
270.0000
 51
90.0000
  0
LINE
  8
21
 10
6.8278
 20
29.7695
 30
0.0000
 11
7.4120
 21
29.7695
 31
0.0000
  0
ARC
  8
21
 10
7.4120
 20
29.9642
 30
0.0000
 40
0.1947
 50
270.0000
 51
0.0000
  0
LINE
  8
21
 10
7.6067
 20
29.9642
 30
0.0000
 11
7.6067
 21
30.2888
 31
0.0000
  0
LINE
  8
21
 10
7.6067
 20
30.2888
 30
0.0000
 11
6.8278
 21
30.2888
 31
0.0000
  0
LINE
  8
21
 10
6.8278
 20
30.7014
 30
0.0000
 11
6.8278
 21
31.0909
 31
0.0000
  0
LINE
  8
21
 10
6.4383
 20
30.8313
 30
0.0000
 11
7.4120
 21
30.8313
 31
0.0000
  0
ARC
  8
21
 10
7.4120
 20
31.0260
 30
0.0000
 40
0.1947
 50
270.0000
 51
0.0000
  0
LINE
  8
21
 10
7.6067
 20
31.0260
 30
0.0000
 11
7.6067
 21
31.0909
 31
0.0000
  0
LINE
  8
21
 10
7.5093
 20
31.5206
 30
0.0000
 11
7.4444
 21
31.5206
 31
0.0000
  0
LINE
  8
21
 10
7.4444
 20
31.5206
 30
0.0000
 11
7.4444
 21
31.5856
 31
0.0000
  0
LINE
  8
21
 10
7.4444
 20
31.5856
 30
0.0000
 11
7.5093
 21
31.5856
 31
0.0000
  0
LINE
  8
21
 10
7.5093
 20
31.5856
 30
0.0000
 11
7.5093
 21
31.5206
 31
0.0000
  0
LINE
  8
21
 10
6.9900
 20
31.5206
 30
0.0000
 11
6.9251
 21
31.5206
 31
0.0000
  0
LINE
  8
21
 10
6.9251
 20
31.5206
 30
0.0000
 11
6.9251
 21
31.5856
 31
0.0000
  0
LINE
  8
21
 10
6.9251
 20
31.5856
 30
0.0000
 11
6.9900
 21
31.5856
 31
0.0000
  0
LINE
  8
21
 10
6.9900
 20
31.5856
 30
0.0000
 11
6.9900
 21
31.5206
 31
0.0000
  0
ARC
  8
21
 10
6.7304
 20
33.0334
 30
0.0000
 40
0.2921
 50
90.0000
 51
180.0000
  0
ARC
  8
21
 10
6.8136
 20
33.0334
 30
0.0000
 40
0.3753
 50
180.0001
 51
252.0554
  0
ARC
  8
21
 10
6.7304
 20
33.0117
 30
0.0000
 40
0.3137
 50
43.6034
 51
90.0002
  0
LINE
  8
21
 10
6.9576
 20
33.2281
 30
0.0000
 11
7.6067
 21
32.6763
 31
0.0000
  0
LINE
  8
21
 10
7.6067
 20
32.6763
 30
0.0000
 11
7.6067
 21
33.3255
 31
0.0000
  0
LINE
  8
21
 10
7.6067
 20
33.7700
 30
0.0000
 11
6.8278
 21
34.2892
 31
0.0000
  0
LINE
  8
21
 10
6.8278
 20
33.7700
 30
0.0000
 11
7.6067
 21
34.2892
 31
0.0000
  0
LINE
  8
21
 10
6.6979
 20
34.7337
 30
0.0000
 11
6.4383
 21
35.0583
 31
0.0000
  0
LINE
  8
21
 10
6.4383
 20
35.0583
 30
0.0000
 11
7.6067
 21
35.0583
 31
0.0000
  0
LINE
  8
21
 10
7.6067
 20
34.7337
 30
0.0000
 11
7.6067
 21
35.3829
 31
0.0000
  0
ARC
  8
21
 10
6.7304
 20
36.2338
 30
0.0000
 40
0.2921
 50
90.0000
 51
180.0000
  0
ARC
  8
21
 10
6.8136
 20
36.2338
 30
0.0000
 40
0.3753
 50
180.0001
 51
252.0554
  0
ARC
  8
21
 10
6.7304
 20
36.2121
 30
0.0000
 40
0.3137
 50
43.6034
 51
90.0002
  0
LINE
  8
21
 10
6.9576
 20
36.4285
 30
0.0000
 11
7.6067
 21
35.8767
 31
0.0000
  0
LINE
  8
21
 10
7.6067
 20
35.8767
 30
0.0000
 11
7.6067
 21
36.5258
 31
0.0000
  0
LINE
  8
21
 10
7.6067
 20
37.6748
 30
0.0000
 11
6.4383
 21
37.6748
 31
0.0000
  0
LINE
  8
21
 10
6.4383
 20
37.6748
 30
0.0000
 11
6.4383
 21
37.9994
 31
0.0000
  0
ARC
  8
21
 10
6.7629
 20
37.9994
 30
0.0000
 40
0.3246
 50
0.0000
 51
180.0000
  0
LINE
  8
21
 10
7.0874
 20
37.9994
 30
0.0000
 11
7.0874
 21
37.6748
 31
0.0000
  0
LINE
  8
21
 10
7.6067
 20
38.3239
 30
0.0000
 11
7.0874
 21
38.0643
 31
0.0000
  0
LINE
  8
21
 10
7.6067
 20
39.3184
 30
0.0000
 11
7.6067
 21
38.9939
 31
0.0000
  0
ARC
  8
21
 10
7.4120
 20
38.9939
 30
0.0000
 40
0.1947
 50
270.0000
 51
0.0000
  0
LINE
  8
21
 10
7.4120
 20
38.7991
 30
0.0000
 11
7.0874
 21
38.7991
 31
0.0000
  0
ARC
  8
21
 10
7.0874
 20
39.0588
 30
0.0000
 40
0.2596
 50
90.0000
 51
270.0000
  0
LINE
  8
21
 10
7.0874
 20
39.3184
 30
0.0000
 11
7.2172
 21
39.3184
 31
0.0000
  0
LINE
  8
21
 10
7.2172
 20
39.3184
 30
0.0000
 11
7.2172
 21
38.7991
 31
0.0000
  0
LINE
  8
21
 10
6.8278
 20
39.7516
 30
0.0000
 11
7.6067
 21
40.0113
 31
0.0000
  0
LINE
  8
21
 10
7.6067
 20
40.0113
 30
0.0000
 11
6.8278
 21
40.2709
 31
0.0000
  0
LINE
  8
21
 10
7.6067
 20
40.6646
 30
0.0000
 11
7.5418
 21
40.6646
 31
0.0000
  0
LINE
  8
21
 10
7.5418
 20
40.6646
 30
0.0000
 11
7.5418
 21
40.7295
 31
0.0000
  0
LINE
  8
21
 10
7.5418
 20
40.7295
 30
0.0000
 11
7.6067
 21
40.7295
 31
0.0000
  0
LINE
  8
21
 10
7.6067
 20
40.7295
 30
0.0000
 11
7.6067
 21
40.6646
 31
0.0000
  0
ARC
  8
21
 10
7.0225
 20
42.7451
 30
0.0000
 40
0.9629
 50
244.0111
 51
269.9999
  0
ARC
  8
21
 10
6.6785
 20
42.1068
 30
0.0000
 40
0.2402
 50
180.0000
 51
251.0758
  0
ARC
  8
21
 10
6.6785
 20
42.1068
 30
0.0000
 40
0.2402
 50
108.9240
 51
180.0001
  0
ARC
  8
21
 10
7.0225
 20
41.4685
 30
0.0000
 40
0.9629
 50
90.0001
 51
115.9889
  0
ARC
  8
21
 10
7.0225
 20
42.7451
 30
0.0000
 40
0.9629
 50
270.0000
 51
295.9888
  0
ARC
  8
21
 10
7.3665
 20
42.1068
 30
0.0000
 40
0.2402
 50
288.9254
 51
359.9998
  0
ARC
  8
21
 10
7.0225
 20
41.4685
 30
0.0000
 40
0.9629
 50
64.0112
 51
90.0000
  0
ARC
  8
21
 10
7.3665
 20
42.1068
 30
0.0000
 40
0.2402
 50
0.0000
 51
71.0747
  0
LINE
  8
21
 10
7.3471
 20
41.8471
 30
0.0000
 11
6.6979
 21
42.3664
 31
0.0000
  0
LINE
  8
21
 10
3.6736
 20
2.1016
 30
0.0000
 11
3.3236
 21
2.5390
 31
0.0000
  0
LINE
  8
21
 10
3.3236
 20
2.5390
 30
0.0000
 11
4.8984
 21
2.5390
 31
0.0000
  0
LINE
  8
21
 10
4.8984
 20
2.1016
 30
0.0000
 11
4.8984
 21
2.9765
 31
0.0000
  0
LINE
  8
21
 10
7.0910
 20
52.1208
 30
0.0000
 11
7.0910
 21
53.2892
 31
0.0000
  0
LINE
  8
21
 10
6.7664
 20
53.2892
 30
0.0000
 11
7.4155
 21
53.2892
 31
0.0000
  0
LINE
  8
21
 10
7.8713
 20
52.1208
 30
0.0000
 11
7.8713
 21
53.2892
 31
0.0000
  0
LINE
  8
21
 10
7.8713
 20
52.7699
 30
0.0000
 11
8.5204
 21
52.7699
 31
0.0000
  0
LINE
  8
21
 10
8.5204
 20
53.2892
 30
0.0000
 11
8.5204
 21
52.1208
 31
0.0000
  0
LINE
  8
21
 10
9.1483
 20
53.2892
 30
0.0000
 11
9.1483
 21
52.1208
 31
0.0000
  0
LINE
  8
21
 10
9.0185
 20
52.1208
 30
0.0000
 11
9.2782
 21
52.1208
 31
0.0000
  0
LINE
  8
21
 10
9.0185
 20
53.2892
 30
0.0000
 11
9.2782
 21
53.2892
 31
0.0000
  0
ARC
  8
21
 10
10.0896
 20
52.3804
 30
0.0000
 40
0.2596
 50
270.0000
 51
0.0000
  0
ARC
  8
21
 10
10.0896
 20
52.6693
 30
0.0000
 40
0.5485
 50
224.7610
 51
269.9999
  0
ARC
  8
21
 10
9.9922
 20
53.0296
 30
0.0000
 40
0.2596
 50
89.9993
 51
180.0000
  0
ARC
  8
21
 10
9.9922
 20
52.8024
 30
0.0000
 40
0.4868
 50
53.1301
 51
89.9993
  0
ARC
  8
21
 10
9.9962
 20
53.0296
 30
0.0000
 40
0.2637
 50
179.9998
 51
239.4902
  0
ARC
  8
21
 10
10.0855
 20
52.3804
 30
0.0000
 40
0.2637
 50
0.0001
 51
59.4899
  0
LINE
  8
21
 10
10.2194
 20
52.6076
 30
0.0000
 11
9.8624
 21
52.8024
 31
0.0000
  0
ARC
  8
21
 10
7.1691
 20
50.4754
 30
0.0000
 40
0.2596
 50
270.0000
 51
0.0000
  0
ARC
  8
21
 10
7.1691
 20
50.7643
 30
0.0000
 40
0.5485
 50
224.7610
 51
269.9999
  0
ARC
  8
21
 10
7.0718
 20
51.1246
 30
0.0000
 40
0.2596
 50
89.9993
 51
180.0000
  0
ARC
  8
21
 10
7.0718
 20
50.8974
 30
0.0000
 40
0.4868
 50
53.1301
 51
89.9993
  0
ARC
  8
21
 10
7.0758
 20
51.1246
 30
0.0000
 40
0.2637
 50
179.9998
 51
239.4902
  0
ARC
  8
21
 10
7.1651
 20
50.4754
 30
0.0000
 40
0.2637
 50
0.0001
 51
59.4899
  0
LINE
  8
21
 10
7.2989
 20
50.7026
 30
0.0000
 11
6.9419
 21
50.8974
 31
0.0000
  0
LINE
  8
21
 10
7.9805
 20
51.3842
 30
0.0000
 11
7.9805
 21
50.2158
 31
0.0000
  0
LINE
  8
21
 10
7.8507
 20
50.2158
 30
0.0000
 11
8.1103
 21
50.2158
 31
0.0000
  0
LINE
  8
21
 10
7.8507
 20
51.3842
 30
0.0000
 11
8.1103
 21
51.3842
 31
0.0000
  0
LINE
  8
21
 10
8.6085
 20
50.2158
 30
0.0000
 11
8.6085
 21
51.3842
 31
0.0000
  0
LINE
  8
21
 10
8.6085
 20
51.3842
 30
0.0000
 11
8.9330
 21
51.3842
 31
0.0000
  0
ARC
  8
21
 10
8.9330
 20
51.0596
 30
0.0000
 40
0.3246
 50
0.0000
 51
90.0000
  0
LINE
  8
21
 10
9.2576
 20
51.0596
 30
0.0000
 11
9.2576
 21
50.5404
 31
0.0000
  0
ARC
  8
21
 10
8.9330
 20
50.5404
 30
0.0000
 40
0.3246
 50
269.9994
 51
0.0000
  0
LINE
  8
21
 10
8.9330
 20
50.2158
 30
0.0000
 11
8.6085
 21
50.2158
 31
0.0000
  0
LINE
  8
21
 10
10.3492
 20
50.2158
 30
0.0000
 11
9.8299
 21
50.2158
 31
0.0000
  0
LINE
  8
21
 10
9.8299
 20
50.2158
 30
0.0000
 11
9.8299
 21
51.3842
 31
0.0000
  0
LINE
  8
21
 10
9.8299
 20
51.3842
 30
0.0000
 11
10.3492
 21
51.3842
 31
0.0000
  0
LINE
  8
21
 10
9.8299
 20
50.8649
 30
0.0000
 11
10.2194
 21
50.8649
 31
0.0000
  0
LINE
  8
21
 10
8.0110
 20
49.4792
 30
0.0000
 11
8.0110
 21
48.6354
 31
0.0000
  0
ARC
  8
21
 10
8.3355
 20
48.6354
 30
0.0000
 40
0.3246
 50
180.0000
 51
0.0000
  0
LINE
  8
21
 10
8.6601
 20
48.6354
 30
0.0000
 11
8.6601
 21
49.4792
 31
0.0000
  0
LINE
  8
21
 10
9.2471
 20
48.3108
 30
0.0000
 11
9.2471
 21
49.4792
 31
0.0000
  0
LINE
  8
21
 10
9.2471
 20
49.4792
 30
0.0000
 11
9.5717
 21
49.4792
 31
0.0000
  0
ARC
  8
21
 10
9.5717
 20
49.1546
 30
0.0000
 40
0.3246
 50
270.0000
 51
90.0000
  0
LINE
  8
21
 10
9.5717
 20
48.8301
 30
0.0000
 11
9.2471
 21
48.8301
 31
0.0000
  0
LINE
  8
21
 10
10.3167
 20
48.7003
 30
0.0000
 11
10.3167
 21
49.4792
 31
0.0000
  0
LINE
  8
21
 10
10.2843
 20
48.3108
 30
0.0000
 11
10.2843
 21
48.3757
 31
0.0000
  0
LINE
  8
21
 10
10.2843
 20
48.3757
 30
0.0000
 11
10.3492
 21
48.3757
 31
0.0000
  0
LINE
  8
21
 10
10.3492
 20
48.3757
 30
0.0000
 11
10.3492
 21
48.3108
 31
0.0000
  0
LINE
  8
21
 10
10.3492
 20
48.3108
 30
0.0000
 11
10.2843
 21
48.3108
 31
0.0000
  0
LINE
  8
21
 10
6.9910
 20
4.4208
 30
0.0000
 11
6.9910
 21
5.5892
 31
0.0000
  0
LINE
  8
21
 10
6.6664
 20
5.5892
 30
0.0000
 11
7.3155
 21
5.5892
 31
0.0000
  0
LINE
  8
21
 10
7.7713
 20
4.4208
 30
0.0000
 11
7.7713
 21
5.5892
 31
0.0000
  0
LINE
  8
21
 10
7.7713
 20
5.0699
 30
0.0000
 11
8.4204
 21
5.0699
 31
0.0000
  0
LINE
  8
21
 10
8.4204
 20
5.5892
 30
0.0000
 11
8.4204
 21
4.4208
 31
0.0000
  0
LINE
  8
21
 10
9.0483
 20
5.5892
 30
0.0000
 11
9.0483
 21
4.4208
 31
0.0000
  0
LINE
  8
21
 10
8.9185
 20
4.4208
 30
0.0000
 11
9.1782
 21
4.4208
 31
0.0000
  0
LINE
  8
21
 10
8.9185
 20
5.5892
 30
0.0000
 11
9.1782
 21
5.5892
 31
0.0000
  0
ARC
  8
21
 10
9.9896
 20
4.6804
 30
0.0000
 40
0.2596
 50
270.0000
 51
0.0000
  0
ARC
  8
21
 10
9.9896
 20
4.9693
 30
0.0000
 40
0.5485
 50
224.7610
 51
269.9999
  0
ARC
  8
21
 10
9.8922
 20
5.3296
 30
0.0000
 40
0.2596
 50
89.9993
 51
180.0000
  0
ARC
  8
21
 10
9.8922
 20
5.1024
 30
0.0000
 40
0.4868
 50
53.1301
 51
89.9993
  0
ARC
  8
21
 10
9.8962
 20
5.3296
 30
0.0000
 40
0.2637
 50
179.9998
 51
239.4902
  0
ARC
  8
21
 10
9.9855
 20
4.6804
 30
0.0000
 40
0.2637
 50
0.0001
 51
59.4899
  0
LINE
  8
21
 10
10.1194
 20
4.9076
 30
0.0000
 11
9.7624
 21
5.1024
 31
0.0000
  0
ARC
  8
21
 10
7.0691
 20
2.7754
 30
0.0000
 40
0.2596
 50
270.0000
 51
0.0000
  0
ARC
  8
21
 10
7.0691
 20
3.0643
 30
0.0000
 40
0.5485
 50
224.7610
 51
269.9999
  0
ARC
  8
21
 10
6.9718
 20
3.4246
 30
0.0000
 40
0.2596
 50
89.9993
 51
180.0000
  0
ARC
  8
21
 10
6.9718
 20
3.1974
 30
0.0000
 40
0.4868
 50
53.1301
 51
89.9993
  0
ARC
  8
21
 10
6.9758
 20
3.4246
 30
0.0000
 40
0.2637
 50
179.9998
 51
239.4902
  0
ARC
  8
21
 10
7.0651
 20
2.7754
 30
0.0000
 40
0.2637
 50
0.0001
 51
59.4899
  0
LINE
  8
21
 10
7.1989
 20
3.0026
 30
0.0000
 11
6.8419
 21
3.1974
 31
0.0000
  0
LINE
  8
21
 10
7.8805
 20
3.6842
 30
0.0000
 11
7.8805
 21
2.5158
 31
0.0000
  0
LINE
  8
21
 10
7.7507
 20
2.5158
 30
0.0000
 11
8.0103
 21
2.5158
 31
0.0000
  0
LINE
  8
21
 10
7.7507
 20
3.6842
 30
0.0000
 11
8.0103
 21
3.6842
 31
0.0000
  0
LINE
  8
21
 10
8.5085
 20
2.5158
 30
0.0000
 11
8.5085
 21
3.6842
 31
0.0000
  0
LINE
  8
21
 10
8.5085
 20
3.6842
 30
0.0000
 11
8.8330
 21
3.6842
 31
0.0000
  0
ARC
  8
21
 10
8.8330
 20
3.3596
 30
0.0000
 40
0.3246
 50
0.0000
 51
90.0000
  0
LINE
  8
21
 10
9.1576
 20
3.3596
 30
0.0000
 11
9.1576
 21
2.8404
 31
0.0000
  0
ARC
  8
21
 10
8.8330
 20
2.8404
 30
0.0000
 40
0.3246
 50
269.9994
 51
0.0000
  0
LINE
  8
21
 10
8.8330
 20
2.5158
 30
0.0000
 11
8.5085
 21
2.5158
 31
0.0000
  0
LINE
  8
21
 10
10.2492
 20
2.5158
 30
0.0000
 11
9.7299
 21
2.5158
 31
0.0000
  0
LINE
  8
21
 10
9.7299
 20
2.5158
 30
0.0000
 11
9.7299
 21
3.6842
 31
0.0000
  0
LINE
  8
21
 10
9.7299
 20
3.6842
 30
0.0000
 11
10.2492
 21
3.6842
 31
0.0000
  0
LINE
  8
21
 10
9.7299
 20
3.1649
 30
0.0000
 11
10.1194
 21
3.1649
 31
0.0000
  0
LINE
  8
21
 10
7.9110
 20
1.7792
 30
0.0000
 11
7.9110
 21
0.9354
 31
0.0000
  0
ARC
  8
21
 10
8.2355
 20
0.9354
 30
0.0000
 40
0.3246
 50
180.0000
 51
0.0000
  0
LINE
  8
21
 10
8.5601
 20
0.9354
 30
0.0000
 11
8.5601
 21
1.7792
 31
0.0000
  0
LINE
  8
21
 10
9.1471
 20
0.6108
 30
0.0000
 11
9.1471
 21
1.7792
 31
0.0000
  0
LINE
  8
21
 10
9.1471
 20
1.7792
 30
0.0000
 11
9.4717
 21
1.7792
 31
0.0000
  0
ARC
  8
21
 10
9.4717
 20
1.4546
 30
0.0000
 40
0.3246
 50
270.0000
 51
90.0000
  0
LINE
  8
21
 10
9.4717
 20
1.1301
 30
0.0000
 11
9.1471
 21
1.1301
 31
0.0000
  0
LINE
  8
21
 10
10.2167
 20
1.0003
 30
0.0000
 11
10.2167
 21
1.7792
 31
0.0000
  0
LINE
  8
21
 10
10.1843
 20
0.6108
 30
0.0000
 11
10.1843
 21
0.6757
 31
0.0000
  0
LINE
  8
21
 10
10.1843
 20
0.6757
 30
0.0000
 11
10.2492
 21
0.6757
 31
0.0000
  0
LINE
  8
21
 10
10.2492
 20
0.6757
 30
0.0000
 11
10.2492
 21
0.6108
 31
0.0000
  0
LINE
  8
21
 10
10.2492
 20
0.6108
 30
0.0000
 11
10.1843
 21
0.6108
 31
0.0000
  0
CIRCLE
  8
20
 10
13.0000
 20
3.0000
 30
0.0000
 40
1.7500
  0
CIRCLE
  8
20
 10
13.0000
 20
51.0000
 30
0.0000
 40
1.7500
  0
LINE
  8
51
 10
0.1000
 20
4.2200
 30
0.0000
 11
4.0000
 21
4.2200
 31
0.0000
  0
LINE
  8
51
 10
0.1000
 20
6.2200
 30
0.0000
 11
4.0000
 21
6.2200
 31
0.0000
  0
ARC
  8
51
 10
4.0000
 20
5.2200
 30
0.0000
 40
1.0000
 50
270.0000
 51
90.0000
  0
ARC
  8
51
 10
3.0000
 20
5.2200
 30
0.0000
 40
0.5000
 50
270.0000
 51
90.0000
  0
LINE
  8
51
 10
3.0000
 20
4.7200
 30
0.0000
 11
2.0000
 21
4.7200
 31
0.0000
  0
LINE
  8
51
 10
3.0000
 20
5.7200
 30
0.0000
 11
2.0000
 21
5.7200
 31
0.0000
  0
ARC
  8
51
 10
2.0000
 20
5.2200
 30
0.0000
 40
0.5000
 50
90.0000
 51
270.0000
  0
LINE
  8
21
 10
0.1000
 20
4.2200
 30
0.0000
 11
-1.0000
 21
4.2200
 31
0.0000
  0
LINE
  8
21
 10
0.1000
 20
6.2200
 30
0.0000
 11
-1.0000
 21
6.2200
 31
0.0000
  0
LINE
  8
21
 10
-1.0000
 20
6.9500
 30
0.0000
 11
0.0000
 21
6.9500
 31
0.0000
  0
LINE
  8
21
 10
0.0000
 20
6.9500
 30
0.0000
 11
0.0000
 21
7.4500
 31
0.0000
  0
LINE
  8
21
 10
0.0000
 20
7.4500
 30
0.0000
 11
-1.0000
 21
7.4500
 31
0.0000
  0
LINE
  8
21
 10
-1.0000
 20
2.9900
 30
0.0000
 11
0.0000
 21
2.9900
 31
0.0000
  0
LINE
  8
21
 10
0.0000
 20
2.9900
 30
0.0000
 11
0.0000
 21
3.4900
 31
0.0000
  0
LINE
  8
21
 10
0.0000
 20
3.4900
 30
0.0000
 11
-1.0000
 21
3.4900
 31
0.0000
  0
LINE
  8
51
 10
0.1000
 20
8.1800
 30
0.0000
 11
4.0000
 21
8.1800
 31
0.0000
  0
LINE
  8
51
 10
0.1000
 20
10.1800
 30
0.0000
 11
4.0000
 21
10.1800
 31
0.0000
  0
ARC
  8
51
 10
4.0000
 20
9.1800
 30
0.0000
 40
1.0000
 50
270.0000
 51
90.0000
  0
ARC
  8
51
 10
3.0000
 20
9.1800
 30
0.0000
 40
0.5000
 50
270.0000
 51
90.0000
  0
LINE
  8
51
 10
3.0000
 20
8.6800
 30
0.0000
 11
2.0000
 21
8.6800
 31
0.0000
  0
LINE
  8
51
 10
3.0000
 20
9.6800
 30
0.0000
 11
2.0000
 21
9.6800
 31
0.0000
  0
ARC
  8
51
 10
2.0000
 20
9.1800
 30
0.0000
 40
0.5000
 50
90.0000
 51
270.0000
  0
LINE
  8
21
 10
0.1000
 20
8.1800
 30
0.0000
 11
-1.0000
 21
8.1800
 31
0.0000
  0
LINE
  8
21
 10
0.1000
 20
10.1800
 30
0.0000
 11
-1.0000
 21
10.1800
 31
0.0000
  0
LINE
  8
21
 10
-1.0000
 20
10.9100
 30
0.0000
 11
0.0000
 21
10.9100
 31
0.0000
  0
LINE
  8
21
 10
0.0000
 20
10.9100
 30
0.0000
 11
0.0000
 21
11.4100
 31
0.0000
  0
LINE
  8
21
 10
0.0000
 20
11.4100
 30
0.0000
 11
-1.0000
 21
11.4100
 31
0.0000
  0
LINE
  8
51
 10
0.1000
 20
12.1400
 30
0.0000
 11
4.0000
 21
12.1400
 31
0.0000
  0
LINE
  8
51
 10
0.1000
 20
14.1400
 30
0.0000
 11
4.0000
 21
14.1400
 31
0.0000
  0
ARC
  8
51
 10
4.0000
 20
13.1400
 30
0.0000
 40
1.0000
 50
270.0000
 51
90.0000
  0
ARC
  8
51
 10
3.0000
 20
13.1400
 30
0.0000
 40
0.5000
 50
270.0000
 51
90.0000
  0
LINE
  8
51
 10
3.0000
 20
12.6400
 30
0.0000
 11
2.0000
 21
12.6400
 31
0.0000
  0
LINE
  8
51
 10
3.0000
 20
13.6400
 30
0.0000
 11
2.0000
 21
13.6400
 31
0.0000
  0
ARC
  8
51
 10
2.0000
 20
13.1400
 30
0.0000
 40
0.5000
 50
90.0000
 51
270.0000
  0
LINE
  8
21
 10
0.1000
 20
12.1400
 30
0.0000
 11
-1.0000
 21
12.1400
 31
0.0000
  0
LINE
  8
21
 10
0.1000
 20
14.1400
 30
0.0000
 11
-1.0000
 21
14.1400
 31
0.0000
  0
LINE
  8
21
 10
-1.0000
 20
14.8700
 30
0.0000
 11
0.0000
 21
14.8700
 31
0.0000
  0
LINE
  8
21
 10
0.0000
 20
14.8700
 30
0.0000
 11
0.0000
 21
15.3700
 31
0.0000
  0
LINE
  8
21
 10
0.0000
 20
15.3700
 30
0.0000
 11
-1.0000
 21
15.3700
 31
0.0000
  0
LINE
  8
51
 10
0.1000
 20
16.1000
 30
0.0000
 11
4.0000
 21
16.1000
 31
0.0000
  0
LINE
  8
51
 10
0.1000
 20
18.1000
 30
0.0000
 11
4.0000
 21
18.1000
 31
0.0000
  0
ARC
  8
51
 10
4.0000
 20
17.1000
 30
0.0000
 40
1.0000
 50
270.0000
 51
90.0000
  0
ARC
  8
51
 10
3.0000
 20
17.1000
 30
0.0000
 40
0.5000
 50
270.0000
 51
90.0000
  0
LINE
  8
51
 10
3.0000
 20
16.6000
 30
0.0000
 11
2.0000
 21
16.6000
 31
0.0000
  0
LINE
  8
51
 10
3.0000
 20
17.6000
 30
0.0000
 11
2.0000
 21
17.6000
 31
0.0000
  0
ARC
  8
51
 10
2.0000
 20
17.1000
 30
0.0000
 40
0.5000
 50
90.0000
 51
270.0000
  0
LINE
  8
21
 10
0.1000
 20
16.1000
 30
0.0000
 11
-1.0000
 21
16.1000
 31
0.0000
  0
LINE
  8
21
 10
0.1000
 20
18.1000
 30
0.0000
 11
-1.0000
 21
18.1000
 31
0.0000
  0
LINE
  8
21
 10
-1.0000
 20
18.8300
 30
0.0000
 11
0.0000
 21
18.8300
 31
0.0000
  0
LINE
  8
21
 10
0.0000
 20
18.8300
 30
0.0000
 11
0.0000
 21
19.3300
 31
0.0000
  0
LINE
  8
21
 10
0.0000
 20
19.3300
 30
0.0000
 11
-1.0000
 21
19.3300
 31
0.0000
  0
LINE
  8
51
 10
0.1000
 20
20.0600
 30
0.0000
 11
4.0000
 21
20.0600
 31
0.0000
  0
LINE
  8
51
 10
0.1000
 20
22.0600
 30
0.0000
 11
4.0000
 21
22.0600
 31
0.0000
  0
ARC
  8
51
 10
4.0000
 20
21.0600
 30
0.0000
 40
1.0000
 50
270.0000
 51
90.0000
  0
ARC
  8
51
 10
3.0000
 20
21.0600
 30
0.0000
 40
0.5000
 50
270.0000
 51
90.0000
  0
LINE
  8
51
 10
3.0000
 20
20.5600
 30
0.0000
 11
2.0000
 21
20.5600
 31
0.0000
  0
LINE
  8
51
 10
3.0000
 20
21.5600
 30
0.0000
 11
2.0000
 21
21.5600
 31
0.0000
  0
ARC
  8
51
 10
2.0000
 20
21.0600
 30
0.0000
 40
0.5000
 50
90.0000
 51
270.0000
  0
LINE
  8
21
 10
0.1000
 20
20.0600
 30
0.0000
 11
-1.0000
 21
20.0600
 31
0.0000
  0
LINE
  8
21
 10
0.1000
 20
22.0600
 30
0.0000
 11
-1.0000
 21
22.0600
 31
0.0000
  0
LINE
  8
21
 10
-1.0000
 20
22.7900
 30
0.0000
 11
0.0000
 21
22.7900
 31
0.0000
  0
LINE
  8
21
 10
0.0000
 20
22.7900
 30
0.0000
 11
0.0000
 21
23.2900
 31
0.0000
  0
LINE
  8
21
 10
0.0000
 20
23.2900
 30
0.0000
 11
-1.0000
 21
23.2900
 31
0.0000
  0
LINE
  8
51
 10
0.1000
 20
24.0200
 30
0.0000
 11
4.0000
 21
24.0200
 31
0.0000
  0
LINE
  8
51
 10
0.1000
 20
26.0200
 30
0.0000
 11
4.0000
 21
26.0200
 31
0.0000
  0
ARC
  8
51
 10
4.0000
 20
25.0200
 30
0.0000
 40
1.0000
 50
270.0000
 51
90.0000
  0
ARC
  8
51
 10
3.0000
 20
25.0200
 30
0.0000
 40
0.5000
 50
270.0000
 51
90.0000
  0
LINE
  8
51
 10
3.0000
 20
24.5200
 30
0.0000
 11
2.0000
 21
24.5200
 31
0.0000
  0
LINE
  8
51
 10
3.0000
 20
25.5200
 30
0.0000
 11
2.0000
 21
25.5200
 31
0.0000
  0
ARC
  8
51
 10
2.0000
 20
25.0200
 30
0.0000
 40
0.5000
 50
90.0000
 51
270.0000
  0
LINE
  8
21
 10
0.1000
 20
24.0200
 30
0.0000
 11
-1.0000
 21
24.0200
 31
0.0000
  0
LINE
  8
21
 10
0.1000
 20
26.0200
 30
0.0000
 11
-1.0000
 21
26.0200
 31
0.0000
  0
LINE
  8
21
 10
-1.0000
 20
26.7500
 30
0.0000
 11
0.0000
 21
26.7500
 31
0.0000
  0
LINE
  8
21
 10
0.0000
 20
26.7500
 30
0.0000
 11
0.0000
 21
27.2500
 31
0.0000
  0
LINE
  8
21
 10
0.0000
 20
27.2500
 30
0.0000
 11
-1.0000
 21
27.2500
 31
0.0000
  0
LINE
  8
51
 10
0.1000
 20
27.9800
 30
0.0000
 11
4.0000
 21
27.9800
 31
0.0000
  0
LINE
  8
51
 10
0.1000
 20
29.9800
 30
0.0000
 11
4.0000
 21
29.9800
 31
0.0000
  0
ARC
  8
51
 10
4.0000
 20
28.9800
 30
0.0000
 40
1.0000
 50
270.0000
 51
90.0000
  0
ARC
  8
51
 10
3.0000
 20
28.9800
 30
0.0000
 40
0.5000
 50
270.0000
 51
90.0000
  0
LINE
  8
51
 10
3.0000
 20
28.4800
 30
0.0000
 11
2.0000
 21
28.4800
 31
0.0000
  0
LINE
  8
51
 10
3.0000
 20
29.4800
 30
0.0000
 11
2.0000
 21
29.4800
 31
0.0000
  0
ARC
  8
51
 10
2.0000
 20
28.9800
 30
0.0000
 40
0.5000
 50
90.0000
 51
270.0000
  0
LINE
  8
21
 10
0.1000
 20
27.9800
 30
0.0000
 11
-1.0000
 21
27.9800
 31
0.0000
  0
LINE
  8
21
 10
0.1000
 20
29.9800
 30
0.0000
 11
-1.0000
 21
29.9800
 31
0.0000
  0
LINE
  8
21
 10
-1.0000
 20
30.7100
 30
0.0000
 11
0.0000
 21
30.7100
 31
0.0000
  0
LINE
  8
21
 10
0.0000
 20
30.7100
 30
0.0000
 11
0.0000
 21
31.2100
 31
0.0000
  0
LINE
  8
21
 10
0.0000
 20
31.2100
 30
0.0000
 11
-1.0000
 21
31.2100
 31
0.0000
  0
LINE
  8
51
 10
0.1000
 20
31.9400
 30
0.0000
 11
4.0000
 21
31.9400
 31
0.0000
  0
LINE
  8
51
 10
0.1000
 20
33.9400
 30
0.0000
 11
4.0000
 21
33.9400
 31
0.0000
  0
ARC
  8
51
 10
4.0000
 20
32.9400
 30
0.0000
 40
1.0000
 50
270.0000
 51
90.0000
  0
ARC
  8
51
 10
3.0000
 20
32.9400
 30
0.0000
 40
0.5000
 50
270.0000
 51
90.0000
  0
LINE
  8
51
 10
3.0000
 20
32.4400
 30
0.0000
 11
2.0000
 21
32.4400
 31
0.0000
  0
LINE
  8
51
 10
3.0000
 20
33.4400
 30
0.0000
 11
2.0000
 21
33.4400
 31
0.0000
  0
ARC
  8
51
 10
2.0000
 20
32.9400
 30
0.0000
 40
0.5000
 50
90.0000
 51
270.0000
  0
LINE
  8
21
 10
0.1000
 20
31.9400
 30
0.0000
 11
-1.0000
 21
31.9400
 31
0.0000
  0
LINE
  8
21
 10
0.1000
 20
33.9400
 30
0.0000
 11
-1.0000
 21
33.9400
 31
0.0000
  0
LINE
  8
21
 10
-1.0000
 20
34.6700
 30
0.0000
 11
0.0000
 21
34.6700
 31
0.0000
  0
LINE
  8
21
 10
0.0000
 20
34.6700
 30
0.0000
 11
0.0000
 21
35.1700
 31
0.0000
  0
LINE
  8
21
 10
0.0000
 20
35.1700
 30
0.0000
 11
-1.0000
 21
35.1700
 31
0.0000
  0
LINE
  8
51
 10
0.1000
 20
35.9000
 30
0.0000
 11
4.0000
 21
35.9000
 31
0.0000
  0
LINE
  8
51
 10
0.1000
 20
37.9000
 30
0.0000
 11
4.0000
 21
37.9000
 31
0.0000
  0
ARC
  8
51
 10
4.0000
 20
36.9000
 30
0.0000
 40
1.0000
 50
270.0000
 51
90.0000
  0
ARC
  8
51
 10
3.0000
 20
36.9000
 30
0.0000
 40
0.5000
 50
270.0000
 51
90.0000
  0
LINE
  8
51
 10
3.0000
 20
36.4000
 30
0.0000
 11
2.0000
 21
36.4000
 31
0.0000
  0
LINE
  8
51
 10
3.0000
 20
37.4000
 30
0.0000
 11
2.0000
 21
37.4000
 31
0.0000
  0
ARC
  8
51
 10
2.0000
 20
36.9000
 30
0.0000
 40
0.5000
 50
90.0000
 51
270.0000
  0
LINE
  8
21
 10
0.1000
 20
35.9000
 30
0.0000
 11
-1.0000
 21
35.9000
 31
0.0000
  0
LINE
  8
21
 10
0.1000
 20
37.9000
 30
0.0000
 11
-1.0000
 21
37.9000
 31
0.0000
  0
LINE
  8
21
 10
-1.0000
 20
38.6300
 30
0.0000
 11
0.0000
 21
38.6300
 31
0.0000
  0
LINE
  8
21
 10
0.0000
 20
38.6300
 30
0.0000
 11
0.0000
 21
39.1300
 31
0.0000
  0
LINE
  8
21
 10
0.0000
 20
39.1300
 30
0.0000
 11
-1.0000
 21
39.1300
 31
0.0000
  0
LINE
  8
51
 10
0.1000
 20
39.8600
 30
0.0000
 11
4.0000
 21
39.8600
 31
0.0000
  0
LINE
  8
51
 10
0.1000
 20
41.8600
 30
0.0000
 11
4.0000
 21
41.8600
 31
0.0000
  0
ARC
  8
51
 10
4.0000
 20
40.8600
 30
0.0000
 40
1.0000
 50
270.0000
 51
90.0000
  0
ARC
  8
51
 10
3.0000
 20
40.8600
 30
0.0000
 40
0.5000
 50
270.0000
 51
90.0000
  0
LINE
  8
51
 10
3.0000
 20
40.3600
 30
0.0000
 11
2.0000
 21
40.3600
 31
0.0000
  0
LINE
  8
51
 10
3.0000
 20
41.3600
 30
0.0000
 11
2.0000
 21
41.3600
 31
0.0000
  0
ARC
  8
51
 10
2.0000
 20
40.8600
 30
0.0000
 40
0.5000
 50
90.0000
 51
270.0000
  0
LINE
  8
21
 10
0.1000
 20
39.8600
 30
0.0000
 11
-1.0000
 21
39.8600
 31
0.0000
  0
LINE
  8
21
 10
0.1000
 20
41.8600
 30
0.0000
 11
-1.0000
 21
41.8600
 31
0.0000
  0
LINE
  8
21
 10
-1.0000
 20
42.5900
 30
0.0000
 11
0.0000
 21
42.5900
 31
0.0000
  0
LINE
  8
21
 10
0.0000
 20
42.5900
 30
0.0000
 11
0.0000
 21
43.0900
 31
0.0000
  0
LINE
  8
21
 10
0.0000
 20
43.0900
 30
0.0000
 11
-1.0000
 21
43.0900
 31
0.0000
  0
LINE
  8
51
 10
0.1000
 20
43.8200
 30
0.0000
 11
4.0000
 21
43.8200
 31
0.0000
  0
LINE
  8
51
 10
0.1000
 20
45.8200
 30
0.0000
 11
4.0000
 21
45.8200
 31
0.0000
  0
ARC
  8
51
 10
4.0000
 20
44.8200
 30
0.0000
 40
1.0000
 50
270.0000
 51
90.0000
  0
ARC
  8
51
 10
3.0000
 20
44.8200
 30
0.0000
 40
0.5000
 50
270.0000
 51
90.0000
  0
LINE
  8
51
 10
3.0000
 20
44.3200
 30
0.0000
 11
2.0000
 21
44.3200
 31
0.0000
  0
LINE
  8
51
 10
3.0000
 20
45.3200
 30
0.0000
 11
2.0000
 21
45.3200
 31
0.0000
  0
ARC
  8
51
 10
2.0000
 20
44.8200
 30
0.0000
 40
0.5000
 50
90.0000
 51
270.0000
  0
LINE
  8
21
 10
0.1000
 20
43.8200
 30
0.0000
 11
-1.0000
 21
43.8200
 31
0.0000
  0
LINE
  8
21
 10
0.1000
 20
45.8200
 30
0.0000
 11
-1.0000
 21
45.8200
 31
0.0000
  0
LINE
  8
21
 10
-1.0000
 20
46.5500
 30
0.0000
 11
0.0000
 21
46.5500
 31
0.0000
  0
LINE
  8
21
 10
0.0000
 20
46.5500
 30
0.0000
 11
0.0000
 21
47.0500
 31
0.0000
  0
LINE
  8
21
 10
0.0000
 20
47.0500
 30
0.0000
 11
-1.0000
 21
47.0500
 31
0.0000
  0
LINE
  8
51
 10
0.1000
 20
47.7800
 30
0.0000
 11
4.0000
 21
47.7800
 31
0.0000
  0
LINE
  8
51
 10
0.1000
 20
49.7800
 30
0.0000
 11
4.0000
 21
49.7800
 31
0.0000
  0
ARC
  8
51
 10
4.0000
 20
48.7800
 30
0.0000
 40
1.0000
 50
270.0000
 51
90.0000
  0
ARC
  8
51
 10
3.0000
 20
48.7800
 30
0.0000
 40
0.5000
 50
270.0000
 51
90.0000
  0
LINE
  8
51
 10
3.0000
 20
48.2800
 30
0.0000
 11
2.0000
 21
48.2800
 31
0.0000
  0
LINE
  8
51
 10
3.0000
 20
49.2800
 30
0.0000
 11
2.0000
 21
49.2800
 31
0.0000
  0
ARC
  8
51
 10
2.0000
 20
48.7800
 30
0.0000
 40
0.5000
 50
90.0000
 51
270.0000
  0
LINE
  8
21
 10
0.1000
 20
47.7800
 30
0.0000
 11
-1.0000
 21
47.7800
 31
0.0000
  0
LINE
  8
21
 10
0.1000
 20
49.7800
 30
0.0000
 11
-1.0000
 21
49.7800
 31
0.0000
  0
LINE
  8
21
 10
-1.0000
 20
50.5100
 30
0.0000
 11
0.0000
 21
50.5100
 31
0.0000
  0
LINE
  8
21
 10
0.0000
 20
50.5100
 30
0.0000
 11
0.0000
 21
51.0100
 31
0.0000
  0
LINE
  8
21
 10
0.0000
 20
51.0100
 30
0.0000
 11
-1.0000
 21
51.0100
 31
0.0000
  0
LINE
  8
21
 10
0.0000
 20
-7.2500
 30
0.0000
 11
-6.8000
 21
-7.2500
 31
0.0000
  0
LINE
  8
21
 10
0.0000
 20
61.2500
 30
0.0000
 11
-6.8000
 21
61.2500
 31
0.0000
  0
LINE
  8
21
 10
-1.0000
 20
0.2000
 30
0.0000
 11
-1.0000
 21
53.8000
 31
0.0000
  0
LINE
  8
21
 10
-1.0000
 20
53.8000
 30
0.0000
 11
0.0000
 21
53.8000
 31
0.0000
  0
LINE
  8
21
 10
0.0000
 20
53.8000
 30
0.0000
 11
0.0000
 21
56.3000
 31
0.0000
  0
LINE
  8
21
 10
0.0000
 20
56.3000
 30
0.0000
 11
0.0000
 21
58.0000
 31
0.0000
  0
LINE
  8
21
 10
0.0000
 20
58.0000
 30
0.0000
 11
0.0000
 21
59.7000
 31
0.0000
  0
LINE
  8
21
 10
0.0000
 20
59.7000
 30
0.0000
 11
0.0000
 21
61.2500
 31
0.0000
  0
LINE
  8
21
 10
0.0000
 20
-7.2500
 30
0.0000
 11
0.0000
 21
-5.7000
 31
0.0000
  0
LINE
  8
21
 10
0.0000
 20
-5.7000
 30
0.0000
 11
0.0000
 21
-4.0000
 31
0.0000
  0
LINE
  8
21
 10
0.0000
 20
-4.0000
 30
0.0000
 11
0.0000
 21
-2.3000
 31
0.0000
  0
LINE
  8
21
 10
0.0000
 20
-2.3000
 30
0.0000
 11
0.0000
 21
0.2000
 31
0.0000
  0
LINE
  8
21
 10
0.0000
 20
0.2000
 30
0.0000
 11
-1.0000
 21
0.2000
 31
0.0000
  0
LINE
  8
21
 10
-11.6000
 20
-0.5000
 30
0.0000
 11
-11.6000
 21
54.5000
 31
0.0000
  0
LINE
  8
21
 10
-11.6000
 20
54.5000
 30
0.0000
 11
-6.8000
 21
54.5000
 31
0.0000
  0
LINE
  8
21
 10
-6.8000
 20
54.5000
 30
0.0000
 11
-6.8000
 21
56.3000
 31
0.0000
  0
LINE
  8
21
 10
-6.8000
 20
56.3000
 30
0.0000
 11
-6.8000
 21
59.7000
 31
0.0000
  0
LINE
  8
21
 10
-6.8000
 20
59.7000
 30
0.0000
 11
-6.8000
 21
61.2500
 31
0.0000
  0
LINE
  8
21
 10
-6.8000
 20
-7.2500
 30
0.0000
 11
-6.8000
 21
-5.7000
 31
0.0000
  0
LINE
  8
21
 10
-6.8000
 20
-5.7000
 30
0.0000
 11
-6.8000
 21
-2.3000
 31
0.0000
  0
LINE
  8
21
 10
-6.8000
 20
-2.3000
 30
0.0000
 11
-6.8000
 21
-0.5000
 31
0.0000
  0
LINE
  8
21
 10
-6.8000
 20
-0.5000
 30
0.0000
 11
-11.6000
 21
-0.5000
 31
0.0000
  0
LINE
  8
21
 10
0.0000
 20
58.0000
 30
0.0000
 11
-2.8667
 21
58.0000
 31
0.0000
  0
LINE
  8
21
 10
-3.5480
 20
58.0000
 30
0.0000
 11
-3.6853
 21
58.0000
 31
0.0000
  0
LINE
  8
21
 10
-4.3667
 20
58.0000
 30
0.0000
 11
-7.2333
 21
58.0000
 31
0.0000
  0
LINE
  8
21
 10
-7.9147
 20
58.0000
 30
0.0000
 11
-8.0520
 21
58.0000
 31
0.0000
  0
LINE
  8
21
 10
-8.7333
 20
58.0000
 30
0.0000
 11
-11.6000
 21
58.0000
 31
0.0000
  0
LINE
  8
21
 10
-11.6000
 20
-4.0000
 30
0.0000
 11
-8.7333
 21
-4.0000
 31
0.0000
  0
LINE
  8
21
 10
-8.0520
 20
-4.0000
 30
0.0000
 11
-7.9147
 21
-4.0000
 31
0.0000
  0
LINE
  8
21
 10
-7.2333
 20
-4.0000
 30
0.0000
 11
-4.3667
 21
-4.0000
 31
0.0000
  0
LINE
  8
21
 10
-3.6853
 20
-4.0000
 30
0.0000
 11
-3.5480
 21
-4.0000
 31
0.0000
  0
LINE
  8
21
 10
-2.8667
 20
-4.0000
 30
0.0000
 11
0.0000
 21
-4.0000
 31
0.0000
  0
LINE
  8
21
 10
-6.8000
 20
59.7000
 30
0.0000
 11
-5.2000
 21
59.7000
 31
0.0000
  0
LINE
  8
21
 10
-4.2000
 20
59.7000
 30
0.0000
 11
-2.6000
 21
59.7000
 31
0.0000
  0
LINE
  8
21
 10
-1.6000
 20
59.7000
 30
0.0000
 11
0.0000
 21
59.7000
 31
0.0000
  0
LINE
  8
21
 10
-6.8000
 20
56.3000
 30
0.0000
 11
-5.2000
 21
56.3000
 31
0.0000
  0
LINE
  8
21
 10
-4.2000
 20
56.3000
 30
0.0000
 11
-2.6000
 21
56.3000
 31
0.0000
  0
LINE
  8
21
 10
-1.6000
 20
56.3000
 30
0.0000
 11
0.0000
 21
56.3000
 31
0.0000
  0
LINE
  8
21
 10
-6.8000
 20
-5.7000
 30
0.0000
 11
-5.2000
 21
-5.7000
 31
0.0000
  0
LINE
  8
21
 10
-4.2000
 20
-5.7000
 30
0.0000
 11
-2.6000
 21
-5.7000
 31
0.0000
  0
LINE
  8
21
 10
-1.6000
 20
-5.7000
 30
0.0000
 11
0.0000
 21
-5.7000
 31
0.0000
  0
LINE
  8
21
 10
-6.8000
 20
-2.3000
 30
0.0000
 11
-5.2000
 21
-2.3000
 31
0.0000
  0
LINE
  8
21
 10
-4.2000
 20
-2.3000
 30
0.0000
 11
-2.6000
 21
-2.3000
 31
0.0000
  0
LINE
  8
21
 10
-1.6000
 20
-2.3000
 30
0.0000
 11
0.0000
 21
-2.3000
 31
0.0000
  0
LINE
  8
21
 10
8.6337
 20
6.8388
 30
0.0000
 11
8.6337
 21
47.4788
 31
0.0000
  0
LINE
  8
21
 10
8.6337
 20
47.4788
 30
0.0000
 11
10.0625
 21
47.4788
 31
0.0000
  0
LINE
  8
21
 10
10.0625
 20
47.4788
 30
0.0000
 11
11.4912
 21
47.4788
 31
0.0000
  0
LINE
  8
21
 10
11.4912
 20
47.4788
 30
0.0000
 11
17.8413
 21
47.4788
 31
0.0000
  0
LINE
  8
21
 10
17.8413
 20
47.4788
 30
0.0000
 11
17.8413
 21
29.2226
 31
0.0000
  0
LINE
  8
21
 10
17.8413
 20
29.2226
 30
0.0000
 11
17.8413
 21
25.0950
 31
0.0000
  0
LINE
  8
21
 10
17.8413
 20
25.0950
 30
0.0000
 11
17.8413
 21
6.8388
 31
0.0000
  0
LINE
  8
21
 10
17.8413
 20
6.8388
 30
0.0000
 11
11.4912
 21
6.8388
 31
0.0000
  0
LINE
  8
21
 10
11.4912
 20
6.8388
 30
0.0000
 11
10.0625
 21
6.8388
 31
0.0000
  0
LINE
  8
21
 10
10.0625
 20
6.8388
 30
0.0000
 11
8.6337
 21
6.8388
 31
0.0000
  0
LINE
  8
21
 10
9.9037
 20
8.1088
 30
0.0000
 11
9.9037
 21
46.2088
 31
0.0000
  0
LINE
  8
21
 10
9.9037
 20
46.2088
 30
0.0000
 11
10.0625
 21
46.2088
 31
0.0000
  0
LINE
  8
21
 10
10.0625
 20
46.2088
 30
0.0000
 11
11.4912
 21
46.2088
 31
0.0000
  0
LINE
  8
21
 10
11.4912
 20
46.2088
 30
0.0000
 11
16.5713
 21
46.2088
 31
0.0000
  0
LINE
  8
21
 10
16.5713
 20
46.2088
 30
0.0000
 11
16.5713
 21
29.2226
 31
0.0000
  0
LINE
  8
21
 10
16.5713
 20
29.2226
 30
0.0000
 11
16.5713
 21
25.0950
 31
0.0000
  0
LINE
  8
21
 10
16.5713
 20
25.0950
 30
0.0000
 11
16.5713
 21
8.1088
 31
0.0000
  0
LINE
  8
21
 10
16.5713
 20
8.1088
 30
0.0000
 11
11.4912
 21
8.1088
 31
0.0000
  0
LINE
  8
21
 10
11.4912
 20
8.1088
 30
0.0000
 11
10.0625
 21
8.1088
 31
0.0000
  0
LINE
  8
21
 10
10.0625
 20
8.1088
 30
0.0000
 11
9.9037
 21
8.1088
 31
0.0000
  0
LINE
  8
21
 10
16.5713
 20
25.0950
 30
0.0000
 11
17.0475
 21
25.0950
 31
0.0000
  0
LINE
  8
21
 10
17.0475
 20
25.0950
 30
0.0000
 11
17.8413
 21
25.0950
 31
0.0000
  0
LINE
  8
21
 10
16.5713
 20
29.2226
 30
0.0000
 11
17.0475
 21
29.2226
 31
0.0000
  0
LINE
  8
21
 10
17.0475
 20
29.2226
 30
0.0000
 11
17.8413
 21
29.2226
 31
0.0000
  0
LINE
  8
21
 10
10.0625
 20
46.2088
 30
0.0000
 11
10.0625
 21
46.6851
 31
0.0000
  0
LINE
  8
21
 10
10.0625
 20
46.6851
 30
0.0000
 11
10.0625
 21
47.4788
 31
0.0000
  0
LINE
  8
21
 10
10.0625
 20
8.1088
 30
0.0000
 11
10.0625
 21
7.6325
 31
0.0000
  0
LINE
  8
21
 10
10.0625
 20
7.6325
 30
0.0000
 11
10.0625
 21
6.8388
 31
0.0000
  0
LINE
  8
21
 10
11.4912
 20
8.1088
 30
0.0000
 11
11.4912
 21
7.6325
 31
0.0000
  0
LINE
  8
21
 10
11.4912
 20
7.6325
 30
0.0000
 11
11.4912
 21
6.8388
 31
0.0000
  0
LINE
  8
21
 10
11.4912
 20
46.2088
 30
0.0000
 11
11.4912
 21
46.6851
 31
0.0000
  0
LINE
  8
21
 10
11.4912
 20
46.6851
 30
0.0000
 11
11.4912
 21
47.4788
 31
0.0000
  0
LINE
  8
21
 10
9.4275
 20
7.6325
 30
0.0000
 11
9.4275
 21
46.6851
 31
0.0000
  0
LINE
  8
21
 10
17.0475
 20
29.2226
 30
0.0000
 11
17.0475
 21
46.6851
 31
0.0000
  0
LINE
  8
21
 10
11.4912
 20
46.6851
 30
0.0000
 11
17.0475
 21
46.6851
 31
0.0000
  0
LINE
  8
21
 10
9.4275
 20
7.6325
 30
0.0000
 11
10.0625
 21
7.6325
 31
0.0000
  0
LINE
  8
21
 10
11.4912
 20
7.6325
 30
0.0000
 11
17.0475
 21
7.6325
 31
0.0000
  0
LINE
  8
21
 10
17.0475
 20
25.0950
 30
0.0000
 11
17.0475
 21
7.6325
 31
0.0000
  0
LINE
  8
21
 10
10.0625
 20
46.6851
 30
0.0000
 11
9.4275
 21
46.6851
 31
0.0000
  0
LINE
  8
21
 10
16.5713
 20
46.2088
 30
0.0000
 11
17.0475
 21
46.6851
 31
0.0000
  0
LINE
  8
21
 10
9.9037
 20
46.2088
 30
0.0000
 11
9.4275
 21
46.6851
 31
0.0000
  0
LINE
  8
21
 10
9.4275
 20
7.6325
 30
0.0000
 11
9.9037
 21
8.1088
 31
0.0000
  0
LINE
  8
21
 10
17.0475
 20
7.6325
 30
0.0000
 11
16.5713
 21
8.1088
 31
0.0000
  0
ARC
  8
21
 10
8.6337
 20
8.7438
 30
0.0000
 40
0.6350
 50
90.0000
 51
270.0000
  0
ARC
  8
21
 10
8.6337
 20
45.5738
 30
0.0000
 40
0.6350
 50
90.0000
 51
270.0000
  0
ARC
  8
21
 10
8.6337
 20
27.0794
 30
0.0000
 40
0.5556
 50
90.0000
 51
270.0000
  0
LINE
  8
21
 10
15.6187
 20
11.9188
 30
0.0000
 11
16.2537
 21
11.2838
 31
0.0000
  0
LINE
  8
21
 10
16.2537
 20
11.2838
 30
0.0000
 11
16.2537
 21
11.4425
 31
0.0000
  0
LINE
  8
21
 10
16.2537
 20
12.2363
 30
0.0000
 11
16.2537
 21
12.3950
 31
0.0000
  0
LINE
  8
21
 10
16.2537
 20
12.3950
 30
0.0000
 11
16.2537
 21
12.5538
 31
0.0000
  0
LINE
  8
21
 10
16.2537
 20
12.5538
 30
0.0000
 11
15.6187
 21
11.9188
 31
0.0000
  0
LINE
  8
21
 10
16.2537
 20
12.3950
 30
0.0000
 11
15.7775
 21
11.9188
 31
0.0000
  0
LINE
  8
21
 10
15.7775
 20
11.9188
 30
0.0000
 11
16.2537
 21
11.4425
 31
0.0000
  0
LINE
  8
21
 10
16.2537
 20
11.4425
 30
0.0000
 11
16.2537
 21
11.6013
 31
0.0000
  0
LINE
  8
21
 10
16.2537
 20
12.0775
 30
0.0000
 11
16.2537
 21
12.2363
 31
0.0000
  0
LINE
  8
21
 10
16.2537
 20
12.2363
 30
0.0000
 11
15.9362
 21
11.9188
 31
0.0000
  0
LINE
  8
21
 10
15.9362
 20
11.9188
 30
0.0000
 11
16.2537
 21
11.6013
 31
0.0000
  0
LINE
  8
21
 10
16.2537
 20
11.6013
 30
0.0000
 11
16.2537
 21
11.7599
 31
0.0000
  0
LINE
  8
21
 10
16.2537
 20
11.7599
 30
0.0000
 11
16.2537
 21
12.0775
 31
0.0000
  0
LINE
  8
21
 10
16.2537
 20
12.0775
 30
0.0000
 11
16.0950
 21
11.9188
 31
0.0000
  0
LINE
  8
21
 10
16.0950
 20
11.9188
 30
0.0000
 11
16.2537
 21
11.7599
 31
0.0000
  0
INSERT
  8
51
  2
RECT
 10
14.5075
 20
11.9188
 30
0.0000
 41
0.5080
 42
0.5080
 43
1.0000
 50
90.0000
  0
INSERT
  8
51
  2
RECT
 10
11.9675
 20
11.9188
 30
0.0000
 41
0.5080
 42
0.5080
 43
1.0000
 50
90.0000
  0
INSERT
  8
51
  2
RECT
 10
11.9675
 20
14.4588
 30
0.0000
 41
0.5080
 42
0.5080
 43
1.0000
 50
90.0000
  0
INSERT
  8
51
  2
RECT
 10
14.5075
 20
14.4588
 30
0.0000
 41
0.5080
 42
0.5080
 43
1.0000
 50
90.0000
  0
INSERT
  8
51
  2
RECT
 10
11.9675
 20
16.9988
 30
0.0000
 41
0.5080
 42
0.5080
 43
1.0000
 50
90.0000
  0
INSERT
  8
51
  2
RECT
 10
14.5075
 20
16.9988
 30
0.0000
 41
0.5080
 42
0.5080
 43
1.0000
 50
90.0000
  0
INSERT
  8
51
  2
RECT
 10
11.9675
 20
19.5388
 30
0.0000
 41
0.5080
 42
0.5080
 43
1.0000
 50
90.0000
  0
INSERT
  8
51
  2
RECT
 10
14.5075
 20
19.5388
 30
0.0000
 41
0.5080
 42
0.5080
 43
1.0000
 50
90.0000
  0
INSERT
  8
51
  2
RECT
 10
11.9675
 20
22.0787
 30
0.0000
 41
0.5080
 42
0.5080
 43
1.0000
 50
90.0000
  0
INSERT
  8
51
  2
RECT
 10
14.5075
 20
22.0787
 30
0.0000
 41
0.5080
 42
0.5080
 43
1.0000
 50
90.0000
  0
INSERT
  8
51
  2
RECT
 10
11.9675
 20
24.6188
 30
0.0000
 41
0.5080
 42
0.5080
 43
1.0000
 50
90.0000
  0
INSERT
  8
51
  2
RECT
 10
14.5075
 20
24.6188
 30
0.0000
 41
0.5080
 42
0.5080
 43
1.0000
 50
90.0000
  0
INSERT
  8
51
  2
RECT
 10
11.9675
 20
27.1588
 30
0.0000
 41
0.5080
 42
0.5080
 43
1.0000
 50
90.0000
  0
INSERT
  8
51
  2
RECT
 10
14.5075
 20
27.1588
 30
0.0000
 41
0.5080
 42
0.5080
 43
1.0000
 50
90.0000
  0
INSERT
  8
51
  2
RECT
 10
11.9675
 20
29.6988
 30
0.0000
 41
0.5080
 42
0.5080
 43
1.0000
 50
90.0000
  0
INSERT
  8
51
  2
RECT
 10
14.5075
 20
29.6988
 30
0.0000
 41
0.5080
 42
0.5080
 43
1.0000
 50
90.0000
  0
INSERT
  8
51
  2
RECT
 10
11.9675
 20
32.2388
 30
0.0000
 41
0.5080
 42
0.5080
 43
1.0000
 50
90.0000
  0
INSERT
  8
51
  2
RECT
 10
14.5075
 20
32.2388
 30
0.0000
 41
0.5080
 42
0.5080
 43
1.0000
 50
90.0000
  0
INSERT
  8
51
  2
RECT
 10
11.9675
 20
34.7788
 30
0.0000
 41
0.5080
 42
0.5080
 43
1.0000
 50
90.0000
  0
INSERT
  8
51
  2
RECT
 10
14.5075
 20
34.7788
 30
0.0000
 41
0.5080
 42
0.5080
 43
1.0000
 50
90.0000
  0
INSERT
  8
51
  2
RECT
 10
11.9675
 20
37.3188
 30
0.0000
 41
0.5080
 42
0.5080
 43
1.0000
 50
90.0000
  0
INSERT
  8
51
  2
RECT
 10
14.5075
 20
37.3188
 30
0.0000
 41
0.5080
 42
0.5080
 43
1.0000
 50
90.0000
  0
INSERT
  8
51
  2
RECT
 10
11.9675
 20
39.8588
 30
0.0000
 41
0.5080
 42
0.5080
 43
1.0000
 50
90.0000
  0
INSERT
  8
51
  2
RECT
 10
14.5075
 20
39.8588
 30
0.0000
 41
0.5080
 42
0.5080
 43
1.0000
 50
90.0000
  0
INSERT
  8
51
  2
RECT
 10
11.9675
 20
42.3987
 30
0.0000
 41
0.5080
 42
0.5080
 43
1.0000
 50
90.0000
  0
INSERT
  8
51
  2
RECT
 10
14.5075
 20
42.3987
 30
0.0000
 41
0.5080
 42
0.5080
 43
1.0000
 50
90.0000
  0
LINE
  8
21
 10
1.3589
 20
69.3314
 30
0.0000
 11
1.3589
 21
70.6776
 31
0.0000
  0
LINE
  8
21
 10
1.3589
 20
70.6776
 30
0.0000
 11
1.7328
 21
70.6776
 31
0.0000
  0
ARC
  8
21
 10
1.7328
 20
70.4532
 30
0.0000
 40
0.2244
 50
0.0000
 51
90.0000
  0
LINE
  8
21
 10
1.9572
 20
70.4532
 30
0.0000
 11
1.9572
 21
70.0045
 31
0.0000
  0
ARC
  8
21
 10
1.7328
 20
70.0045
 30
0.0000
 40
0.2244
 50
270.0008
 51
0.0000
  0
LINE
  8
21
 10
1.7328
 20
69.7802
 30
0.0000
 11
1.3589
 21
69.7802
 31
0.0000
  0
LINE
  8
21
 10
2.5485
 20
71.1264
 30
0.0000
 11
2.5485
 21
70.0045
 31
0.0000
  0
ARC
  8
21
 10
2.7729
 20
70.0045
 30
0.0000
 40
0.2244
 50
180.0000
 51
270.0000
  0
LINE
  8
21
 10
3.8564
 20
70.3037
 30
0.0000
 11
3.5199
 21
70.3037
 31
0.0000
  0
ARC
  8
21
 10
3.5199
 20
70.0419
 30
0.0000
 40
0.2618
 50
90.0000
 51
270.0000
  0
LINE
  8
21
 10
3.5199
 20
69.7802
 30
0.0000
 11
3.8564
 21
69.7802
 31
0.0000
  0
LINE
  8
21
 10
3.8564
 20
69.7802
 30
0.0000
 11
3.8564
 21
70.4532
 31
0.0000
  0
ARC
  8
21
 10
3.6320
 20
70.4532
 30
0.0000
 40
0.2244
 50
0.0000
 51
90.0000
  0
LINE
  8
21
 10
3.6320
 20
70.6776
 30
0.0000
 11
3.3329
 21
70.6776
 31
0.0000
  0
LINE
  8
21
 10
5.0241
 20
69.7802
 30
0.0000
 11
4.7250
 21
69.7802
 31
0.0000
  0
ARC
  8
21
 10
4.7250
 20
70.0045
 30
0.0000
 40
0.2244
 50
180.0000
 51
270.0000
  0
LINE
  8
21
 10
4.5006
 20
70.0045
 30
0.0000
 11
4.5006
 21
70.4532
 31
0.0000
  0
ARC
  8
21
 10
4.7250
 20
70.4532
 30
0.0000
 40
0.2244
 50
89.9992
 51
180.0000
  0
LINE
  8
21
 10
4.7250
 20
70.6776
 30
0.0000
 11
5.0241
 21
70.6776
 31
0.0000
  0
LINE
  8
21
 10
6.1464
 20
69.7802
 30
0.0000
 11
5.7725
 21
69.7802
 31
0.0000
  0
ARC
  8
21
 10
5.7725
 20
70.0045
 30
0.0000
 40
0.2244
 50
180.0000
 51
270.0000
  0
LINE
  8
21
 10
5.5481
 20
70.0045
 30
0.0000
 11
5.5481
 21
70.3785
 31
0.0000
  0
ARC
  8
21
 10
5.8473
 20
70.3785
 30
0.0000
 40
0.2992
 50
0.0000
 51
180.0000
  0
LINE
  8
21
 10
6.1464
 20
70.3785
 30
0.0000
 11
6.1464
 21
70.2289
 31
0.0000
  0
LINE
  8
21
 10
6.1464
 20
70.2289
 30
0.0000
 11
5.5481
 21
70.2289
 31
0.0000
  0
LINE
  8
21
 10
6.8130
 20
69.7802
 30
0.0000
 11
6.8130
 21
70.6776
 31
0.0000
  0
LINE
  8
21
 10
6.8130
 20
70.6776
 30
0.0000
 11
7.4861
 21
70.6776
 31
0.0000
  0
ARC
  8
21
 10
7.4861
 20
70.4532
 30
0.0000
 40
0.2244
 50
0.0000
 51
90.0000
  0
LINE
  8
21
 10
7.7105
 20
70.4532
 30
0.0000
 11
7.7105
 21
69.7802
 31
0.0000
  0
LINE
  8
21
 10
7.2617
 20
69.7802
 30
0.0000
 11
7.2617
 21
70.6776
 31
0.0000
  0
LINE
  8
21
 10
8.9754
 20
69.7802
 30
0.0000
 11
8.6014
 21
69.7802
 31
0.0000
  0
ARC
  8
21
 10
8.6014
 20
70.0045
 30
0.0000
 40
0.2244
 50
180.0000
 51
270.0000
  0
LINE
  8
21
 10
8.3771
 20
70.0045
 30
0.0000
 11
8.3771
 21
70.3785
 31
0.0000
  0
ARC
  8
21
 10
8.6762
 20
70.3785
 30
0.0000
 40
0.2992
 50
0.0000
 51
180.0000
  0
LINE
  8
21
 10
8.9754
 20
70.3785
 30
0.0000
 11
8.9754
 21
70.2289
 31
0.0000
  0
LINE
  8
21
 10
8.9754
 20
70.2289
 30
0.0000
 11
8.3771
 21
70.2289
 31
0.0000
  0
LINE
  8
21
 10
9.6090
 20
69.7802
 30
0.0000
 11
9.6090
 21
70.6776
 31
0.0000
  0
LINE
  8
21
 10
9.6090
 20
70.6776
 30
0.0000
 11
9.9830
 21
70.6776
 31
0.0000
  0
ARC
  8
21
 10
9.9830
 20
70.4532
 30
0.0000
 40
0.2244
 50
0.0000
 51
90.0000
  0
LINE
  8
21
 10
10.2074
 20
70.4532
 30
0.0000
 11
10.2074
 21
69.7802
 31
0.0000
  0
LINE
  8
21
 10
10.7198
 20
70.6776
 30
0.0000
 11
11.1685
 21
70.6776
 31
0.0000
  0
LINE
  8
21
 10
10.8694
 20
71.1264
 30
0.0000
 11
10.8694
 21
70.0045
 31
0.0000
  0
ARC
  8
21
 10
11.0937
 20
70.0045
 30
0.0000
 40
0.2244
 50
180.0000
 51
270.0000
  0
LINE
  8
21
 10
11.0937
 20
69.7802
 30
0.0000
 11
11.1685
 21
69.7802
 31
0.0000
  0
LINE
  8
21
 10
12.9635
 20
69.7802
 30
0.0000
 11
12.6643
 21
69.7802
 31
0.0000
  0
ARC
  8
21
 10
12.6643
 20
70.0045
 30
0.0000
 40
0.2244
 50
180.0000
 51
270.0000
  0
LINE
  8
21
 10
12.4400
 20
70.0045
 30
0.0000
 11
12.4400
 21
70.4532
 31
0.0000
  0
ARC
  8
21
 10
12.6643
 20
70.4532
 30
0.0000
 40
0.2244
 50
89.9992
 51
180.0000
  0
LINE
  8
21
 10
12.6643
 20
70.6776
 30
0.0000
 11
12.9635
 21
70.6776
 31
0.0000
  0
LINE
  8
21
 10
13.4875
 20
70.0793
 30
0.0000
 11
13.4875
 21
70.3785
 31
0.0000
  0
ARC
  8
21
 10
13.7866
 20
70.3785
 30
0.0000
 40
0.2992
 50
0.0000
 51
180.0000
  0
LINE
  8
21
 10
14.0858
 20
70.3785
 30
0.0000
 11
14.0858
 21
70.0793
 31
0.0000
  0
ARC
  8
21
 10
13.7866
 20
70.0793
 30
0.0000
 40
0.2992
 50
180.0000
 51
0.0000
  0
LINE
  8
21
 10
14.7524
 20
69.7802
 30
0.0000
 11
14.7524
 21
70.6776
 31
0.0000
  0
LINE
  8
21
 10
14.7524
 20
70.6776
 30
0.0000
 11
15.4255
 21
70.6776
 31
0.0000
  0
ARC
  8
21
 10
15.4255
 20
70.4532
 30
0.0000
 40
0.2244
 50
0.0000
 51
90.0000
  0
LINE
  8
21
 10
15.6498
 20
70.4532
 30
0.0000
 11
15.6498
 21
69.7802
 31
0.0000
  0
LINE
  8
21
 10
15.2011
 20
69.7802
 30
0.0000
 11
15.2011
 21
70.6776
 31
0.0000
  0
LINE
  8
21
 10
16.3706
 20
69.3314
 30
0.0000
 11
16.3706
 21
70.6776
 31
0.0000
  0
LINE
  8
21
 10
16.3706
 20
70.6776
 30
0.0000
 11
16.7446
 21
70.6776
 31
0.0000
  0
ARC
  8
21
 10
16.7446
 20
70.4532
 30
0.0000
 40
0.2244
 50
0.0000
 51
90.0000
  0
LINE
  8
21
 10
16.9690
 20
70.4532
 30
0.0000
 11
16.9690
 21
70.0045
 31
0.0000
  0
ARC
  8
21
 10
16.7446
 20
70.0045
 30
0.0000
 40
0.2244
 50
270.0008
 51
0.0000
  0
LINE
  8
21
 10
16.7446
 20
69.7802
 30
0.0000
 11
16.3706
 21
69.7802
 31
0.0000
  0
LINE
  8
21
 10
17.5484
 20
70.0793
 30
0.0000
 11
17.5484
 21
70.3785
 31
0.0000
  0
ARC
  8
21
 10
17.8475
 20
70.3785
 30
0.0000
 40
0.2992
 50
0.0000
 51
180.0000
  0
LINE
  8
21
 10
18.1467
 20
70.3785
 30
0.0000
 11
18.1467
 21
70.0793
 31
0.0000
  0
ARC
  8
21
 10
17.8475
 20
70.0793
 30
0.0000
 40
0.2992
 50
180.0000
 51
0.0000
  0
LINE
  8
21
 10
18.7804
 20
69.7802
 30
0.0000
 11
18.7804
 21
70.6776
 31
0.0000
  0
LINE
  8
21
 10
18.7804
 20
70.6776
 30
0.0000
 11
19.1543
 21
70.6776
 31
0.0000
  0
ARC
  8
21
 10
19.1543
 20
70.4532
 30
0.0000
 40
0.2244
 50
0.0000
 51
90.0000
  0
LINE
  8
21
 10
19.3787
 20
70.4532
 30
0.0000
 11
19.3787
 21
69.7802
 31
0.0000
  0
LINE
  8
21
 10
20.6106
 20
69.7802
 30
0.0000
 11
20.2367
 21
69.7802
 31
0.0000
  0
ARC
  8
21
 10
20.2367
 20
70.0045
 30
0.0000
 40
0.2244
 50
180.0000
 51
270.0000
  0
LINE
  8
21
 10
20.0123
 20
70.0045
 30
0.0000
 11
20.0123
 21
70.3785
 31
0.0000
  0
ARC
  8
21
 10
20.3115
 20
70.3785
 30
0.0000
 40
0.2992
 50
0.0000
 51
180.0000
  0
LINE
  8
21
 10
20.6106
 20
70.3785
 30
0.0000
 11
20.6106
 21
70.2289
 31
0.0000
  0
LINE
  8
21
 10
20.6106
 20
70.2289
 30
0.0000
 11
20.0123
 21
70.2289
 31
0.0000
  0
LINE
  8
21
 10
21.2443
 20
69.7802
 30
0.0000
 11
21.2443
 21
70.6776
 31
0.0000
  0
LINE
  8
21
 10
21.2443
 20
70.6776
 30
0.0000
 11
21.6182
 21
70.6776
 31
0.0000
  0
ARC
  8
21
 10
21.6182
 20
70.4532
 30
0.0000
 40
0.2244
 50
0.0000
 51
90.0000
  0
LINE
  8
21
 10
21.8426
 20
70.4532
 30
0.0000
 11
21.8426
 21
69.7802
 31
0.0000
  0
LINE
  8
21
 10
22.3550
 20
70.6776
 30
0.0000
 11
22.8038
 21
70.6776
 31
0.0000
  0
LINE
  8
21
 10
22.5046
 20
71.1264
 30
0.0000
 11
22.5046
 21
70.0045
 31
0.0000
  0
ARC
  8
21
 10
22.7290
 20
70.0045
 30
0.0000
 40
0.2244
 50
180.0000
 51
270.0000
  0
LINE
  8
21
 10
22.7290
 20
69.7802
 30
0.0000
 11
22.8038
 21
69.7802
 31
0.0000
  0
LINE
  8
21
 10
24.5594
 20
70.1541
 30
0.0000
 11
24.1854
 21
70.3037
 31
0.0000
  0
ARC
  8
21
 10
24.2574
 20
70.4837
 30
0.0000
 40
0.1939
 50
89.1810
 51
248.1986
  0
ARC
  8
21
 10
24.2481
 20
69.8284
 30
0.0000
 40
0.8493
 50
65.7609
 51
89.1810
  0
ARC
  8
21
 10
24.4874
 20
69.9740
 30
0.0000
 40
0.1939
 50
269.1810
 51
68.1986
  0
ARC
  8
21
 10
24.5027
 20
71.0485
 30
0.0000
 40
1.2684
 50
250.2096
 51
269.1810
  0
LINE
  8
21
 10
25.2393
 20
69.7802
 30
0.0000
 11
25.2393
 21
70.6776
 31
0.0000
  0
LINE
  8
21
 10
25.2019
 20
71.0516
 30
0.0000
 11
25.2019
 21
71.1264
 31
0.0000
  0
LINE
  8
21
 10
25.2019
 20
71.1264
 30
0.0000
 11
25.2767
 21
71.1264
 31
0.0000
  0
LINE
  8
21
 10
25.2767
 20
71.1264
 30
0.0000
 11
25.2767
 21
71.0516
 31
0.0000
  0
LINE
  8
21
 10
25.2767
 20
71.0516
 30
0.0000
 11
25.2019
 21
71.0516
 31
0.0000
  0
LINE
  8
21
 10
26.3968
 20
71.1264
 30
0.0000
 11
26.3968
 21
69.7802
 31
0.0000
  0
LINE
  8
21
 10
26.3968
 20
69.7802
 30
0.0000
 11
26.0229
 21
69.7802
 31
0.0000
  0
ARC
  8
21
 10
26.0229
 20
70.0045
 30
0.0000
 40
0.2244
 50
180.0000
 51
270.0000
  0
LINE
  8
21
 10
25.7985
 20
70.0045
 30
0.0000
 11
25.7985
 21
70.4532
 31
0.0000
  0
ARC
  8
21
 10
26.0229
 20
70.4532
 30
0.0000
 40
0.2244
 50
89.9992
 51
180.0000
  0
LINE
  8
21
 10
26.0229
 20
70.6776
 30
0.0000
 11
26.3968
 21
70.6776
 31
0.0000
  0
LINE
  8
21
 10
27.6374
 20
69.7802
 30
0.0000
 11
27.2635
 21
69.7802
 31
0.0000
  0
ARC
  8
21
 10
27.2635
 20
70.0045
 30
0.0000
 40
0.2244
 50
180.0000
 51
270.0000
  0
LINE
  8
21
 10
27.0391
 20
70.0045
 30
0.0000
 11
27.0391
 21
70.3785
 31
0.0000
  0
ARC
  8
21
 10
27.3382
 20
70.3785
 30
0.0000
 40
0.2992
 50
0.0000
 51
180.0000
  0
LINE
  8
21
 10
27.6374
 20
70.3785
 30
0.0000
 11
27.6374
 21
70.2289
 31
0.0000
  0
LINE
  8
21
 10
27.6374
 20
70.2289
 30
0.0000
 11
27.0391
 21
70.2289
 31
0.0000
  0
ENDSEC
  0
EOF
