  0
SECTION
  2
HEADER
  9
$ACADVER
  1
AC1009
  9
$FILLMODE
 70
0
  9
$EXTMIN
 10
-5.2845
 20
-5.1345
 30
0.0000
  9
$EXTMAX
 10
54.5450
 20
54.0903
 30
0.0000
  0
ENDSEC
  0
SECTION
  2
TABLES
  0
TABLE
  2
LTYPE
 70
1
  0
LTYPE
  2
CONTINUOUS
 70
64
  3
Solid line
 72
65
 73
0
 40
0
  0
ENDTAB
  0
TABLE
  2
LAYER
 70
255
  0
LAYER
  2
19
 70
64
 62
53
  6
CONTINUOUS
  0
LAYER
  2
20
 70
64
 62
30
  6
CONTINUOUS
  0
LAYER
  2
21
 70
64
 62
253
  6
CONTINUOUS
  0
LAYER
  2
45
 70
64
 62
253
  6
CONTINUOUS
  0
LAYER
  2
49
 70
64
 62
253
  6
CONTINUOUS
  0
LAYER
  2
51
 70
64
 62
253
  6
CONTINUOUS
  0
LAYER
  2
105
 70
64
 62
5
  6
CONTINUOUS
  0
LAYER
  2
111
 70
64
 62
253
  6
CONTINUOUS
  0
LAYER
  2
115
 70
64
 62
253
  6
CONTINUOUS
  0
LAYER
  2
118
 70
64
 62
253
  6
CONTINUOUS
  0
LAYER
  2
211
 70
64
 62
253
  6
CONTINUOUS
  0
LAYER
  2
212
 70
64
 62
253
  6
CONTINUOUS
  0
LAYER
  2
213
 70
64
 62
253
  6
CONTINUOUS
  0
LAYER
  2
214
 70
64
 62
253
  6
CONTINUOUS
  0
LAYER
  2
215
 70
64
 62
253
  6
CONTINUOUS
  0
LAYER
  2
216
 70
64
 62
253
  6
CONTINUOUS
  0
LAYER
  2
217
 70
64
 62
253
  6
CONTINUOUS
  0
LAYER
  2
218
 70
64
 62
253
  6
CONTINUOUS
  0
LAYER
  2
219
 70
64
 62
253
  6
CONTINUOUS
  0
LAYER
  2
220
 70
64
 62
253
  6
CONTINUOUS
  0
LAYER
  2
221
 70
64
 62
253
  6
CONTINUOUS
  0
LAYER
  2
222
 70
64
 62
253
  6
CONTINUOUS
  0
LAYER
  2
223
 70
64
 62
253
  6
CONTINUOUS
  0
LAYER
  2
224
 70
64
 62
253
  6
CONTINUOUS
  0
LAYER
  2
225
 70
64
 62
253
  6
CONTINUOUS
  0
LAYER
  2
226
 70
64
 62
253
  6
CONTINUOUS
  0
LAYER
  2
227
 70
64
 62
253
  6
CONTINUOUS
  0
ENDTAB
  0
ENDSEC
  0
SECTION
  2
BLOCKS
  0
BLOCK
  8
0
  2
RECT
 70
64
 10
0.0000
 20
0.0000
 30
0.0000
  3
RECT
  0
SOLID
  8
0
 10
-0.5000
 20
-0.5000
 30
0.0000
 11
0.5000
 21
-0.5000
 31
0.0000
 12
-0.5000
 22
0.5000
 32
0.0000
 13
0.5000
 23
0.5000
 33
0.0000
  0
ENDBLK
  8
0
  0
BLOCK
  8
0
  2
PIE
 70
64
 10
0.0000
 20
0.0000
 30
0.0000
  3
PIE
  0
CIRCLE
  8
0
 10
0.0000
 20
0.0000
 30
0.0000
 40
0.5000
  0
ENDBLK
  8
0
  0
BLOCK
  8
0
  2
OCTAGONP
 70
64
 10
0.0000
 20
0.0000
 30
0.0000
  3
OCTAGONP
  0
POLYLINE
  8
0
 66
1
 10
0.0000
 20
0.0000
 30
0.0000
 40
0.0000
 41
0.0000
 70
1
  0
VERTEX
  8
0
 10
-0.5000
 20
-0.2071
 30
0.0000
  0
VERTEX
  8
0
 10
-0.5000
 20
0.2071
 30
0.0000
  0
VERTEX
  8
0
 10
-0.2071
 20
0.5000
 30
0.0000
  0
VERTEX
  8
0
 10
0.2071
 20
0.5000
 30
0.0000
  0
VERTEX
  8
0
 10
0.5000
 20
0.2071
 30
0.0000
  0
VERTEX
  8
0
 10
0.5000
 20
-0.2071
 30
0.0000
  0
VERTEX
  8
0
 10
0.2071
 20
-0.5000
 30
0.0000
  0
VERTEX
  8
0
 10
-0.2071
 20
-0.5000
 30
0.0000
  0
SEQEND
  8
0
  0
ENDBLK
  8
0
  0
BLOCK
  8
0
  2
SQUAREP
 70
64
 10
0.0000
 20
0.0000
 30
0.0000
  3
SQUAREP
  0
SOLID
  8
0
 10
-0.5000
 20
-0.5000
 30
0.0000
 11
0.5000
 21
-0.5000
 31
0.0000
 12
-0.5000
 22
0.5000
 32
0.0000
 13
0.5000
 23
0.5000
 33
0.0000
  0
ENDBLK
  8
0
  0
BLOCK
  8
0
  2
ROUNDP
 70
64
 10
0.0000
 20
0.0000
 30
0.0000
  3
ROUNDP
  0
CIRCLE
  8
0
 10
0.0000
 20
0.0000
 30
0.0000
 40
0.5000
  0
ENDBLK
  8
0
  0
BLOCK
  8
0
  2
ANNULUSP
 70
64
 10
0.0000
 20
0.0000
 30
0.0000
  3
ANNULUSP
  0
CIRCLE
  8
0
 10
0.0000
 20
0.0000
 30
0.0000
 40
0.5000
  0
ENDBLK
  8
0
  0
BLOCK
  8
0
  2
THERMALP
 70
64
 10
0.0000
 20
0.0000
 30
0.0000
  3
THERMALP
  0
LINE
  8
0
 10
-0.2379
 20
0.4500
 30
0.0000
 11
0.2379
 21
0.4500
 31
0.0000
  0
LINE
  8
0
 10
0.4500
 20
0.2379
 30
0.0000
 11
0.4500
 21
-0.2379
 31
0.0000
  0
LINE
  8
0
 10
0.2379
 20
-0.4500
 30
0.0000
 11
-0.2379
 21
-0.4500
 31
0.0000
  0
LINE
  8
0
 10
-0.4500
 20
-0.2379
 30
0.0000
 11
-0.4500
 21
0.2379
 31
0.0000
  0
ENDBLK
  8
0
  0
BLOCK
  8
0
  2
OCTAGONV
 70
64
 10
0.0000
 20
0.0000
 30
0.0000
  3
OCTAGONV
  0
POLYLINE
  8
0
 66
1
 10
0.0000
 20
0.0000
 30
0.0000
 40
0.0000
 41
0.0000
 70
1
  0
VERTEX
  8
0
 10
-0.5000
 20
-0.2071
 30
0.0000
  0
VERTEX
  8
0
 10
-0.5000
 20
0.2071
 30
0.0000
  0
VERTEX
  8
0
 10
-0.2071
 20
0.5000
 30
0.0000
  0
VERTEX
  8
0
 10
0.2071
 20
0.5000
 30
0.0000
  0
VERTEX
  8
0
 10
0.5000
 20
0.2071
 30
0.0000
  0
VERTEX
  8
0
 10
0.5000
 20
-0.2071
 30
0.0000
  0
VERTEX
  8
0
 10
0.2071
 20
-0.5000
 30
0.0000
  0
VERTEX
  8
0
 10
-0.2071
 20
-0.5000
 30
0.0000
  0
SEQEND
  8
0
  0
ENDBLK
  8
0
  0
BLOCK
  8
0
  2
SQUAREV
 70
64
 10
0.0000
 20
0.0000
 30
0.0000
  3
SQUAREV
  0
SOLID
  8
0
 10
-0.5000
 20
-0.5000
 30
0.0000
 11
0.5000
 21
-0.5000
 31
0.0000
 12
-0.5000
 22
0.5000
 32
0.0000
 13
0.5000
 23
0.5000
 33
0.0000
  0
ENDBLK
  8
0
  0
BLOCK
  8
0
  2
ROUNDV
 70
64
 10
0.0000
 20
0.0000
 30
0.0000
  3
ROUNDV
  0
CIRCLE
  8
0
 10
0.0000
 20
0.0000
 30
0.0000
 40
0.5000
  0
ENDBLK
  8
0
  0
BLOCK
  8
0
  2
ANNULUSV
 70
64
 10
0.0000
 20
0.0000
 30
0.0000
  3
ANNULUSV
  0
CIRCLE
  8
0
 10
0.0000
 20
0.0000
 30
0.0000
 40
0.5000
  0
ENDBLK
  8
0
  0
BLOCK
  8
0
  2
THERMALV
 70
64
 10
0.0000
 20
0.0000
 30
0.0000
  3
THERMALV
  0
LINE
  8
0
 10
-0.2379
 20
0.4500
 30
0.0000
 11
0.2379
 21
0.4500
 31
0.0000
  0
LINE
  8
0
 10
0.4500
 20
0.2379
 30
0.0000
 11
0.4500
 21
-0.2379
 31
0.0000
  0
LINE
  8
0
 10
0.2379
 20
-0.4500
 30
0.0000
 11
-0.2379
 21
-0.4500
 31
0.0000
  0
LINE
  8
0
 10
-0.4500
 20
-0.2379
 30
0.0000
 11
-0.4500
 21
0.2379
 31
0.0000
  0
ENDBLK
  8
0
  0
ENDSEC
  0
SECTION
  2
ENTITIES
  0
LINE
  8
20
 10
0.0000
 20
1.0000
 30
0.0000
 11
0.0000
 21
13.0000
 31
0.0000
  0
LINE
  8
20
 10
30.0000
 20
13.0000
 30
0.0000
 11
30.0000
 21
1.0000
 31
0.0000
  0
ARC
  8
20
 10
1.0000
 20
1.0000
 30
0.0000
 40
1.0000
 50
180.0000
 51
270.0000
  0
ARC
  8
20
 10
29.0000
 20
1.0000
 30
0.0000
 40
1.0000
 50
270.0000
 51
0.0000
  0
LINE
  8
20
 10
29.0000
 20
0.0000
 30
0.0000
 11
1.0000
 21
0.0000
 31
0.0000
  0
LINE
  8
20
 10
28.5000
 20
15.0000
 30
0.0000
 11
28.5000
 21
13.8000
 31
0.0000
  0
ARC
  8
20
 10
29.3000
 20
13.8000
 30
0.0000
 40
0.8000
 50
180.0000
 51
270.0000
  0
LINE
  8
20
 10
29.3000
 20
13.0000
 30
0.0000
 11
30.0000
 21
13.0000
 31
0.0000
  0
LINE
  8
20
 10
1.5000
 20
15.0000
 30
0.0000
 11
1.5000
 21
13.8000
 31
0.0000
  0
ARC
  8
20
 10
0.7000
 20
13.8000
 30
0.0000
 40
0.8000
 50
270.0000
 51
0.0000
  0
LINE
  8
20
 10
0.7000
 20
13.0000
 30
0.0000
 11
0.0000
 21
13.0000
 31
0.0000
  0
LINE
  8
21
 10
4.4425
 20
11.9558
 30
0.0000
 11
4.1829
 21
11.9558
 31
0.0000
  0
ARC
  8
21
 10
4.1829
 20
12.2154
 30
0.0000
 40
0.2596
 50
180.0000
 51
270.0000
  0
LINE
  8
21
 10
3.9232
 20
12.2154
 30
0.0000
 11
3.9232
 21
12.8646
 31
0.0000
  0
ARC
  8
21
 10
4.1829
 20
12.8646
 30
0.0000
 40
0.2596
 50
90.0007
 51
180.0000
  0
LINE
  8
21
 10
4.1829
 20
13.1242
 30
0.0000
 11
4.4425
 21
13.1242
 31
0.0000
  0
LINE
  8
21
 10
4.8678
 20
12.2154
 30
0.0000
 11
4.8678
 21
12.4751
 31
0.0000
  0
ARC
  8
21
 10
5.1274
 20
12.4751
 30
0.0000
 40
0.2596
 50
0.0000
 51
180.0000
  0
LINE
  8
21
 10
5.3871
 20
12.4751
 30
0.0000
 11
5.3871
 21
12.2154
 31
0.0000
  0
ARC
  8
21
 10
5.1274
 20
12.2154
 30
0.0000
 40
0.2596
 50
180.0000
 51
0.0000
  0
LINE
  8
21
 10
5.9191
 20
11.9558
 30
0.0000
 11
5.9191
 21
12.7347
 31
0.0000
  0
LINE
  8
21
 10
5.9191
 20
12.7347
 30
0.0000
 11
6.5033
 21
12.7347
 31
0.0000
  0
ARC
  8
21
 10
6.5033
 20
12.5400
 30
0.0000
 40
0.1947
 50
0.0000
 51
90.0000
  0
LINE
  8
21
 10
6.6980
 20
12.5400
 30
0.0000
 11
6.6980
 21
11.9558
 31
0.0000
  0
LINE
  8
21
 10
6.3085
 20
11.9558
 30
0.0000
 11
6.3085
 21
12.7347
 31
0.0000
  0
LINE
  8
21
 10
7.2907
 20
11.9558
 30
0.0000
 11
7.2907
 21
12.7347
 31
0.0000
  0
LINE
  8
21
 10
7.2907
 20
12.7347
 30
0.0000
 11
7.8749
 21
12.7347
 31
0.0000
  0
ARC
  8
21
 10
7.8749
 20
12.5400
 30
0.0000
 40
0.1947
 50
0.0000
 51
90.0000
  0
LINE
  8
21
 10
8.0696
 20
12.5400
 30
0.0000
 11
8.0696
 21
11.9558
 31
0.0000
  0
LINE
  8
21
 10
7.6801
 20
11.9558
 30
0.0000
 11
7.6801
 21
12.7347
 31
0.0000
  0
LINE
  8
21
 10
8.6016
 20
12.2154
 30
0.0000
 11
8.6016
 21
12.4751
 31
0.0000
  0
ARC
  8
21
 10
8.8612
 20
12.4751
 30
0.0000
 40
0.2596
 50
0.0000
 51
180.0000
  0
LINE
  8
21
 10
9.1209
 20
12.4751
 30
0.0000
 11
9.1209
 21
12.2154
 31
0.0000
  0
ARC
  8
21
 10
8.8612
 20
12.2154
 30
0.0000
 40
0.2596
 50
180.0000
 51
0.0000
  0
LINE
  8
21
 10
10.1056
 20
13.1242
 30
0.0000
 11
10.1056
 21
11.9558
 31
0.0000
  0
LINE
  8
21
 10
10.1056
 20
11.9558
 30
0.0000
 11
9.7810
 21
11.9558
 31
0.0000
  0
ARC
  8
21
 10
9.7810
 20
12.1505
 30
0.0000
 40
0.1947
 50
180.0000
 51
270.0000
  0
LINE
  8
21
 10
9.5863
 20
12.1505
 30
0.0000
 11
9.5863
 21
12.5400
 31
0.0000
  0
ARC
  8
21
 10
9.7810
 20
12.5400
 30
0.0000
 40
0.1947
 50
90.0000
 51
180.0000
  0
LINE
  8
21
 10
9.7810
 20
12.7347
 30
0.0000
 11
10.1056
 21
12.7347
 31
0.0000
  0
LINE
  8
21
 10
10.6209
 20
12.2154
 30
0.0000
 11
10.6209
 21
12.4751
 31
0.0000
  0
ARC
  8
21
 10
10.8805
 20
12.4751
 30
0.0000
 40
0.2596
 50
0.0000
 51
180.0000
  0
LINE
  8
21
 10
11.1402
 20
12.4751
 30
0.0000
 11
11.1402
 21
12.2154
 31
0.0000
  0
ARC
  8
21
 10
10.8805
 20
12.2154
 30
0.0000
 40
0.2596
 50
180.0000
 51
0.0000
  0
LINE
  8
21
 10
11.6562
 20
11.9558
 30
0.0000
 11
11.6562
 21
12.7347
 31
0.0000
  0
LINE
  8
21
 10
11.6562
 20
12.7347
 30
0.0000
 11
12.0457
 21
12.7347
 31
0.0000
  0
LINE
  8
21
 10
12.0457
 20
12.7347
 30
0.0000
 11
12.0457
 21
12.6049
 31
0.0000
  0
LINE
  8
21
 10
12.9309
 20
11.9558
 30
0.0000
 11
12.6063
 21
11.9558
 31
0.0000
  0
ARC
  8
21
 10
12.6063
 20
12.1505
 30
0.0000
 40
0.1947
 50
180.0000
 51
270.0000
  0
LINE
  8
21
 10
12.4116
 20
12.1505
 30
0.0000
 11
12.4116
 21
12.4751
 31
0.0000
  0
ARC
  8
21
 10
12.6712
 20
12.4751
 30
0.0000
 40
0.2596
 50
0.0000
 51
180.0000
  0
LINE
  8
21
 10
12.9309
 20
12.4751
 30
0.0000
 11
12.9309
 21
12.3453
 31
0.0000
  0
LINE
  8
21
 10
12.9309
 20
12.3453
 30
0.0000
 11
12.4116
 21
12.3453
 31
0.0000
  0
LINE
  8
21
 10
14.0781
 20
11.9558
 30
0.0000
 11
14.0781
 21
13.1242
 31
0.0000
  0
LINE
  8
21
 10
14.0781
 20
13.1242
 30
0.0000
 11
14.4027
 21
13.1242
 31
0.0000
  0
ARC
  8
21
 10
14.4027
 20
12.7996
 30
0.0000
 40
0.3246
 50
270.0000
 51
90.0000
  0
LINE
  8
21
 10
14.4027
 20
12.4751
 30
0.0000
 11
14.0781
 21
12.4751
 31
0.0000
  0
LINE
  8
21
 10
15.1548
 20
12.2154
 30
0.0000
 11
15.1548
 21
12.4751
 31
0.0000
  0
ARC
  8
21
 10
15.4144
 20
12.4751
 30
0.0000
 40
0.2596
 50
0.0000
 51
180.0000
  0
LINE
  8
21
 10
15.6741
 20
12.4751
 30
0.0000
 11
15.6741
 21
12.2154
 31
0.0000
  0
ARC
  8
21
 10
15.4144
 20
12.2154
 30
0.0000
 40
0.2596
 50
180.0000
 51
0.0000
  0
LINE
  8
21
 10
16.1901
 20
11.9558
 30
0.0000
 11
16.1901
 21
12.7347
 31
0.0000
  0
LINE
  8
21
 10
16.1901
 20
12.7347
 30
0.0000
 11
16.5796
 21
12.7347
 31
0.0000
  0
LINE
  8
21
 10
16.5796
 20
12.7347
 30
0.0000
 11
16.5796
 21
12.6049
 31
0.0000
  0
LINE
  8
21
 10
16.8487
 20
12.7347
 30
0.0000
 11
17.2382
 21
12.7347
 31
0.0000
  0
LINE
  8
21
 10
16.9786
 20
13.1242
 30
0.0000
 11
16.9786
 21
12.1505
 31
0.0000
  0
ARC
  8
21
 10
17.1733
 20
12.1505
 30
0.0000
 40
0.1947
 50
180.0000
 51
270.0000
  0
LINE
  8
21
 10
17.1733
 20
11.9558
 30
0.0000
 11
17.2382
 21
11.9558
 31
0.0000
  0
LINE
  8
21
 10
18.3453
 20
12.6049
 30
0.0000
 11
18.6698
 21
12.6049
 31
0.0000
  0
ARC
  8
21
 10
18.6698
 20
12.2804
 30
0.0000
 40
0.3246
 50
270.0000
 51
90.0000
  0
LINE
  8
21
 10
18.6698
 20
11.9558
 30
0.0000
 11
18.3453
 21
11.9558
 31
0.0000
  0
LINE
  8
21
 10
18.3453
 20
11.9558
 30
0.0000
 11
18.3453
 21
13.1242
 31
0.0000
  0
LINE
  8
21
 10
18.3453
 20
13.1242
 30
0.0000
 11
18.6698
 21
13.1242
 31
0.0000
  0
ARC
  8
21
 10
18.6698
 20
12.8646
 30
0.0000
 40
0.2596
 50
270.0000
 51
90.0000
  0
LINE
  8
21
 10
19.4667
 20
11.9558
 30
0.0000
 11
19.4667
 21
12.7347
 31
0.0000
  0
LINE
  8
21
 10
19.4667
 20
12.7347
 30
0.0000
 11
19.8562
 21
12.7347
 31
0.0000
  0
LINE
  8
21
 10
19.8562
 20
12.7347
 30
0.0000
 11
19.8562
 21
12.6049
 31
0.0000
  0
LINE
  8
21
 10
20.7414
 20
11.9558
 30
0.0000
 11
20.4168
 21
11.9558
 31
0.0000
  0
ARC
  8
21
 10
20.4168
 20
12.1505
 30
0.0000
 40
0.1947
 50
180.0000
 51
270.0000
  0
LINE
  8
21
 10
20.2221
 20
12.1505
 30
0.0000
 11
20.2221
 21
12.4751
 31
0.0000
  0
ARC
  8
21
 10
20.4817
 20
12.4751
 30
0.0000
 40
0.2596
 50
0.0000
 51
180.0000
  0
LINE
  8
21
 10
20.7414
 20
12.4751
 30
0.0000
 11
20.7414
 21
12.3453
 31
0.0000
  0
LINE
  8
21
 10
20.7414
 20
12.3453
 30
0.0000
 11
20.2221
 21
12.3453
 31
0.0000
  0
LINE
  8
21
 10
21.7261
 20
12.4102
 30
0.0000
 11
21.4340
 21
12.4102
 31
0.0000
  0
ARC
  8
21
 10
21.4340
 20
12.1830
 30
0.0000
 40
0.2272
 50
90.0000
 51
270.0000
  0
LINE
  8
21
 10
21.4340
 20
11.9558
 30
0.0000
 11
21.7261
 21
11.9558
 31
0.0000
  0
LINE
  8
21
 10
21.7261
 20
11.9558
 30
0.0000
 11
21.7261
 21
12.5400
 31
0.0000
  0
ARC
  8
21
 10
21.5313
 20
12.5400
 30
0.0000
 40
0.1947
 50
0.0000
 51
90.0000
  0
LINE
  8
21
 10
21.5313
 20
12.7347
 30
0.0000
 11
21.2717
 21
12.7347
 31
0.0000
  0
LINE
  8
21
 10
22.2930
 20
11.9558
 30
0.0000
 11
22.2930
 21
13.1242
 31
0.0000
  0
LINE
  8
21
 10
22.8123
 20
12.7347
 30
0.0000
 11
22.2930
 21
12.3453
 31
0.0000
  0
LINE
  8
21
 10
22.8123
 20
11.9558
 30
0.0000
 11
22.5202
 21
12.5075
 31
0.0000
  0
LINE
  8
21
 10
23.2320
 20
12.2154
 30
0.0000
 11
23.2320
 21
12.4751
 31
0.0000
  0
ARC
  8
21
 10
23.4916
 20
12.4751
 30
0.0000
 40
0.2596
 50
0.0000
 51
180.0000
  0
LINE
  8
21
 10
23.7513
 20
12.4751
 30
0.0000
 11
23.7513
 21
12.2154
 31
0.0000
  0
ARC
  8
21
 10
23.4916
 20
12.2154
 30
0.0000
 40
0.2596
 50
180.0000
 51
0.0000
  0
LINE
  8
21
 10
24.2607
 20
12.7347
 30
0.0000
 11
24.2607
 21
12.1505
 31
0.0000
  0
ARC
  8
21
 10
24.4554
 20
12.1505
 30
0.0000
 40
0.1947
 50
180.0000
 51
270.0000
  0
LINE
  8
21
 10
24.4554
 20
11.9558
 30
0.0000
 11
24.7799
 21
11.9558
 31
0.0000
  0
LINE
  8
21
 10
24.7799
 20
11.9558
 30
0.0000
 11
24.7799
 21
12.7347
 31
0.0000
  0
LINE
  8
21
 10
25.1926
 20
12.7347
 30
0.0000
 11
25.5821
 21
12.7347
 31
0.0000
  0
LINE
  8
21
 10
25.3225
 20
13.1242
 30
0.0000
 11
25.3225
 21
12.1505
 31
0.0000
  0
ARC
  8
21
 10
25.5172
 20
12.1505
 30
0.0000
 40
0.1947
 50
180.0000
 51
270.0000
  0
LINE
  8
21
 10
25.5172
 20
11.9558
 30
0.0000
 11
25.5821
 21
11.9558
 31
0.0000
  0
LINE
  8
21
 10
26.0118
 20
12.0532
 30
0.0000
 11
26.0118
 21
12.1181
 31
0.0000
  0
LINE
  8
21
 10
26.0118
 20
12.1181
 30
0.0000
 11
26.0768
 21
12.1181
 31
0.0000
  0
LINE
  8
21
 10
26.0768
 20
12.1181
 30
0.0000
 11
26.0768
 21
12.0532
 31
0.0000
  0
LINE
  8
21
 10
26.0768
 20
12.0532
 30
0.0000
 11
26.0118
 21
12.0532
 31
0.0000
  0
LINE
  8
21
 10
26.0118
 20
12.5725
 30
0.0000
 11
26.0118
 21
12.6374
 31
0.0000
  0
LINE
  8
21
 10
26.0118
 20
12.6374
 30
0.0000
 11
26.0768
 21
12.6374
 31
0.0000
  0
LINE
  8
21
 10
26.0768
 20
12.6374
 30
0.0000
 11
26.0768
 21
12.5725
 31
0.0000
  0
LINE
  8
21
 10
26.0768
 20
12.5725
 30
0.0000
 11
26.0118
 21
12.5725
 31
0.0000
  0
LINE
  8
21
 10
7.7485
 20
10.0508
 30
0.0000
 11
7.4889
 21
10.0508
 31
0.0000
  0
ARC
  8
21
 10
7.4889
 20
10.3104
 30
0.0000
 40
0.2596
 50
180.0000
 51
270.0000
  0
LINE
  8
21
 10
7.2292
 20
10.3104
 30
0.0000
 11
7.2292
 21
10.9596
 31
0.0000
  0
ARC
  8
21
 10
7.4889
 20
10.9596
 30
0.0000
 40
0.2596
 50
90.0007
 51
180.0000
  0
LINE
  8
21
 10
7.4889
 20
11.2192
 30
0.0000
 11
7.7485
 21
11.2192
 31
0.0000
  0
LINE
  8
21
 10
8.6872
 20
10.5052
 30
0.0000
 11
8.3951
 21
10.5052
 31
0.0000
  0
ARC
  8
21
 10
8.3951
 20
10.2780
 30
0.0000
 40
0.2272
 50
90.0000
 51
270.0000
  0
LINE
  8
21
 10
8.3951
 20
10.0508
 30
0.0000
 11
8.6872
 21
10.0508
 31
0.0000
  0
LINE
  8
21
 10
8.6872
 20
10.0508
 30
0.0000
 11
8.6872
 21
10.6350
 31
0.0000
  0
ARC
  8
21
 10
8.4924
 20
10.6350
 30
0.0000
 40
0.1947
 50
0.0000
 51
90.0000
  0
LINE
  8
21
 10
8.4924
 20
10.8297
 30
0.0000
 11
8.2328
 21
10.8297
 31
0.0000
  0
LINE
  8
21
 10
9.6244
 20
10.3754
 30
0.0000
 11
9.2998
 21
10.5052
 31
0.0000
  0
ARC
  8
21
 10
9.3623
 20
10.6614
 30
0.0000
 40
0.1683
 50
89.1818
 51
248.1989
  0
ARC
  8
21
 10
9.3542
 20
10.0927
 30
0.0000
 40
0.7371
 50
65.7612
 51
89.1819
  0
ARC
  8
21
 10
9.5619
 20
10.2191
 30
0.0000
 40
0.1683
 50
269.1818
 51
68.1989
  0
ARC
  8
21
 10
9.5752
 20
11.1515
 30
0.0000
 40
1.1008
 50
250.2090
 51
269.1819
  0
LINE
  8
21
 10
10.6150
 20
10.3754
 30
0.0000
 11
10.2904
 21
10.5052
 31
0.0000
  0
ARC
  8
21
 10
10.3529
 20
10.6614
 30
0.0000
 40
0.1683
 50
89.1818
 51
248.1989
  0
ARC
  8
21
 10
10.3448
 20
10.0927
 30
0.0000
 40
0.7371
 50
65.7612
 51
89.1819
  0
ARC
  8
21
 10
10.5525
 20
10.2191
 30
0.0000
 40
0.1683
 50
269.1818
 51
68.1989
  0
ARC
  8
21
 10
10.5658
 20
11.1515
 30
0.0000
 40
1.1008
 50
250.2090
 51
269.1819
  0
LINE
  8
21
 10
11.7029
 20
10.0508
 30
0.0000
 11
11.3784
 21
10.0508
 31
0.0000
  0
ARC
  8
21
 10
11.3784
 20
10.2455
 30
0.0000
 40
0.1947
 50
180.0000
 51
270.0000
  0
LINE
  8
21
 10
11.1837
 20
10.2455
 30
0.0000
 11
11.1837
 21
10.5701
 31
0.0000
  0
ARC
  8
21
 10
11.4433
 20
10.5701
 30
0.0000
 40
0.2596
 50
0.0000
 51
180.0000
  0
LINE
  8
21
 10
11.7029
 20
10.5701
 30
0.0000
 11
11.7029
 21
10.4403
 31
0.0000
  0
LINE
  8
21
 10
11.7029
 20
10.4403
 30
0.0000
 11
11.1837
 21
10.4403
 31
0.0000
  0
LINE
  8
21
 10
12.0775
 20
10.8297
 30
0.0000
 11
12.4670
 21
10.8297
 31
0.0000
  0
LINE
  8
21
 10
12.2074
 20
11.2192
 30
0.0000
 11
12.2074
 21
10.2455
 31
0.0000
  0
ARC
  8
21
 10
12.4021
 20
10.2455
 30
0.0000
 40
0.1947
 50
180.0000
 51
270.0000
  0
LINE
  8
21
 10
12.4021
 20
10.0508
 30
0.0000
 11
12.4670
 21
10.0508
 31
0.0000
  0
LINE
  8
21
 10
12.8014
 20
10.8297
 30
0.0000
 11
13.1909
 21
10.8297
 31
0.0000
  0
LINE
  8
21
 10
12.9313
 20
11.2192
 30
0.0000
 11
12.9313
 21
10.2455
 31
0.0000
  0
ARC
  8
21
 10
13.1260
 20
10.2455
 30
0.0000
 40
0.1947
 50
180.0000
 51
270.0000
  0
LINE
  8
21
 10
13.1260
 20
10.0508
 30
0.0000
 11
13.1909
 21
10.0508
 31
0.0000
  0
LINE
  8
21
 10
14.1413
 20
10.0508
 30
0.0000
 11
13.8168
 21
10.0508
 31
0.0000
  0
ARC
  8
21
 10
13.8168
 20
10.2455
 30
0.0000
 40
0.1947
 50
180.0000
 51
270.0000
  0
LINE
  8
21
 10
13.6221
 20
10.2455
 30
0.0000
 11
13.6221
 21
10.5701
 31
0.0000
  0
ARC
  8
21
 10
13.8817
 20
10.5701
 30
0.0000
 40
0.2596
 50
0.0000
 51
180.0000
  0
LINE
  8
21
 10
14.1413
 20
10.5701
 30
0.0000
 11
14.1413
 21
10.4403
 31
0.0000
  0
LINE
  8
21
 10
14.1413
 20
10.4403
 30
0.0000
 11
13.6221
 21
10.4403
 31
0.0000
  0
LINE
  8
21
 10
15.2335
 20
10.3754
 30
0.0000
 11
15.2335
 21
10.8946
 31
0.0000
  0
ARC
  8
21
 10
15.5581
 20
10.8946
 30
0.0000
 40
0.3246
 50
0.0000
 51
180.0000
  0
LINE
  8
21
 10
15.8826
 20
10.8946
 30
0.0000
 11
15.8826
 21
10.3754
 31
0.0000
  0
ARC
  8
21
 10
15.5581
 20
10.3754
 30
0.0000
 40
0.3246
 50
180.0000
 51
0.0000
  0
LINE
  8
21
 10
16.4033
 20
10.8297
 30
0.0000
 11
16.4033
 21
10.2455
 31
0.0000
  0
ARC
  8
21
 10
16.5981
 20
10.2455
 30
0.0000
 40
0.1947
 50
180.0000
 51
270.0000
  0
LINE
  8
21
 10
16.5981
 20
10.0508
 30
0.0000
 11
16.9226
 21
10.0508
 31
0.0000
  0
LINE
  8
21
 10
16.9226
 20
10.0508
 30
0.0000
 11
16.9226
 21
10.8297
 31
0.0000
  0
LINE
  8
21
 10
17.3353
 20
10.8297
 30
0.0000
 11
17.7248
 21
10.8297
 31
0.0000
  0
LINE
  8
21
 10
17.4651
 20
11.2192
 30
0.0000
 11
17.4651
 21
10.2455
 31
0.0000
  0
ARC
  8
21
 10
17.6599
 20
10.2455
 30
0.0000
 40
0.1947
 50
180.0000
 51
270.0000
  0
LINE
  8
21
 10
17.6599
 20
10.0508
 30
0.0000
 11
17.7248
 21
10.0508
 31
0.0000
  0
LINE
  8
21
 10
18.8223
 20
10.0508
 30
0.0000
 11
18.8223
 21
11.2192
 31
0.0000
  0
LINE
  8
21
 10
18.8223
 20
11.2192
 30
0.0000
 11
19.1469
 21
11.2192
 31
0.0000
  0
ARC
  8
21
 10
19.1469
 20
10.8946
 30
0.0000
 40
0.3246
 50
270.0000
 51
90.0000
  0
LINE
  8
21
 10
19.1469
 20
10.5701
 30
0.0000
 11
18.8223
 21
10.5701
 31
0.0000
  0
LINE
  8
21
 10
19.4714
 20
10.0508
 30
0.0000
 11
19.2118
 21
10.5701
 31
0.0000
  0
LINE
  8
21
 10
20.4659
 20
10.0508
 30
0.0000
 11
20.1414
 21
10.0508
 31
0.0000
  0
ARC
  8
21
 10
20.1414
 20
10.2455
 30
0.0000
 40
0.1947
 50
180.0000
 51
270.0000
  0
LINE
  8
21
 10
19.9466
 20
10.2455
 30
0.0000
 11
19.9466
 21
10.5701
 31
0.0000
  0
ARC
  8
21
 10
20.2063
 20
10.5701
 30
0.0000
 40
0.2596
 50
0.0000
 51
180.0000
  0
LINE
  8
21
 10
20.4659
 20
10.5701
 30
0.0000
 11
20.4659
 21
10.4403
 31
0.0000
  0
LINE
  8
21
 10
20.4659
 20
10.4403
 30
0.0000
 11
19.9466
 21
10.4403
 31
0.0000
  0
LINE
  8
21
 10
20.8991
 20
10.8297
 30
0.0000
 11
21.1588
 21
10.0508
 31
0.0000
  0
LINE
  8
21
 10
21.1588
 20
10.0508
 30
0.0000
 11
21.4184
 21
10.8297
 31
0.0000
  0
LINE
  8
21
 10
21.8121
 20
10.0508
 30
0.0000
 11
21.8121
 21
10.1157
 31
0.0000
  0
LINE
  8
21
 10
21.8121
 20
10.1157
 30
0.0000
 11
21.8770
 21
10.1157
 31
0.0000
  0
LINE
  8
21
 10
21.8770
 20
10.1157
 30
0.0000
 11
21.8770
 21
10.0508
 31
0.0000
  0
LINE
  8
21
 10
21.8770
 20
10.0508
 30
0.0000
 11
21.8121
 21
10.0508
 31
0.0000
  0
ARC
  8
21
 10
23.8926
 20
10.6350
 30
0.0000
 40
0.9628
 50
154.0109
 51
180.0001
  0
ARC
  8
21
 10
23.2543
 20
10.9790
 30
0.0000
 40
0.2402
 50
90.0000
 51
161.0751
  0
ARC
  8
21
 10
23.2543
 20
10.9790
 30
0.0000
 40
0.2402
 50
18.9248
 51
90.0002
  0
ARC
  8
21
 10
22.6160
 20
10.6350
 30
0.0000
 40
0.9629
 50
359.9999
 51
25.9891
  0
ARC
  8
21
 10
23.8926
 20
10.6350
 30
0.0000
 40
0.9629
 50
180.0000
 51
205.9888
  0
ARC
  8
21
 10
23.2543
 20
10.2910
 30
0.0000
 40
0.2402
 50
198.9254
 51
269.9998
  0
ARC
  8
21
 10
22.6160
 20
10.6350
 30
0.0000
 40
0.9629
 50
334.0112
 51
360.0000
  0
ARC
  8
21
 10
23.2543
 20
10.2910
 30
0.0000
 40
0.2402
 50
270.0000
 51
341.0747
  0
LINE
  8
21
 10
22.9946
 20
10.3104
 30
0.0000
 11
23.5139
 21
10.9596
 31
0.0000
  0
LINE
  8
21
 10
1.8139
 20
9.1992
 30
0.0000
 11
0.8741
 21
9.1992
 31
0.0000
  0
LINE
  8
21
 10
0.8741
 20
8.9381
 30
0.0000
 11
0.8741
 21
9.4602
 31
0.0000
  0
LINE
  8
21
 10
1.8139
 20
9.8220
 30
0.0000
 11
0.8741
 21
9.8220
 31
0.0000
  0
LINE
  8
21
 10
1.2918
 20
9.8220
 30
0.0000
 11
1.2918
 21
10.3441
 31
0.0000
  0
LINE
  8
21
 10
0.8741
 20
10.3441
 30
0.0000
 11
1.8139
 21
10.3441
 31
0.0000
  0
ARC
  8
21
 10
1.6051
 20
11.0497
 30
0.0000
 40
0.2088
 50
0.0000
 51
90.0000
  0
ARC
  8
21
 10
1.3727
 20
11.0497
 30
0.0000
 40
0.4412
 50
314.7611
 51
359.9999
  0
ARC
  8
21
 10
1.0829
 20
10.9714
 30
0.0000
 40
0.2088
 50
180.0000
 51
270.0000
  0
ARC
  8
21
 10
1.2657
 20
10.9714
 30
0.0000
 40
0.3916
 50
143.1292
 51
180.0000
  0
ARC
  8
21
 10
1.0829
 20
10.9746
 30
0.0000
 40
0.2121
 50
269.9997
 51
329.4903
  0
ARC
  8
21
 10
1.6051
 20
11.0464
 30
0.0000
 40
0.2121
 50
90.0001
 51
149.4899
  0
LINE
  8
21
 10
1.4223
 20
11.1541
 30
0.0000
 11
1.2657
 21
10.8669
 31
0.0000
  0
LINE
  8
21
 10
0.8741
 20
11.6985
 30
0.0000
 11
1.8139
 21
11.6985
 31
0.0000
  0
LINE
  8
21
 10
1.8139
 20
11.5941
 30
0.0000
 11
1.8139
 21
11.8029
 31
0.0000
  0
LINE
  8
21
 10
0.8741
 20
11.5941
 30
0.0000
 11
0.8741
 21
11.8029
 31
0.0000
  0
ARC
  8
21
 10
3.1291
 20
9.2514
 30
0.0000
 40
0.2088
 50
0.0000
 51
90.0000
  0
ARC
  8
21
 10
2.8967
 20
9.2514
 30
0.0000
 40
0.4412
 50
314.7611
 51
359.9999
  0
ARC
  8
21
 10
2.6069
 20
9.1730
 30
0.0000
 40
0.2088
 50
180.0000
 51
270.0000
  0
ARC
  8
21
 10
2.7897
 20
9.1730
 30
0.0000
 40
0.3916
 50
143.1292
 51
180.0000
  0
ARC
  8
21
 10
2.6069
 20
9.1763
 30
0.0000
 40
0.2121
 50
269.9997
 51
329.4903
  0
ARC
  8
21
 10
3.1291
 20
9.2481
 30
0.0000
 40
0.2121
 50
90.0001
 51
149.4899
  0
LINE
  8
21
 10
2.9463
 20
9.3558
 30
0.0000
 11
2.7897
 21
9.0686
 31
0.0000
  0
LINE
  8
21
 10
2.3981
 20
9.9002
 30
0.0000
 11
3.3379
 21
9.9002
 31
0.0000
  0
LINE
  8
21
 10
3.3379
 20
9.7958
 30
0.0000
 11
3.3379
 21
10.0046
 31
0.0000
  0
LINE
  8
21
 10
2.3981
 20
9.7958
 30
0.0000
 11
2.3981
 21
10.0046
 31
0.0000
  0
LINE
  8
21
 10
3.3379
 20
10.4011
 30
0.0000
 11
2.3981
 21
10.4011
 31
0.0000
  0
LINE
  8
21
 10
2.3981
 20
10.4011
 30
0.0000
 11
2.3981
 21
10.6622
 31
0.0000
  0
ARC
  8
21
 10
2.6592
 20
10.6622
 30
0.0000
 40
0.2611
 50
90.0000
 51
180.0000
  0
LINE
  8
21
 10
2.6592
 20
10.9232
 30
0.0000
 11
3.0768
 21
10.9232
 31
0.0000
  0
ARC
  8
21
 10
3.0768
 20
10.6622
 30
0.0000
 40
0.2611
 50
359.9993
 51
90.0000
  0
LINE
  8
21
 10
3.3379
 20
10.6622
 30
0.0000
 11
3.3379
 21
10.4011
 31
0.0000
  0
LINE
  8
21
 10
3.3379
 20
11.7959
 30
0.0000
 11
3.3379
 21
11.3782
 31
0.0000
  0
LINE
  8
21
 10
3.3379
 20
11.3782
 30
0.0000
 11
2.3981
 21
11.3782
 31
0.0000
  0
LINE
  8
21
 10
2.3981
 20
11.3782
 30
0.0000
 11
2.3981
 21
11.7959
 31
0.0000
  0
LINE
  8
21
 10
2.8158
 20
11.3782
 30
0.0000
 11
2.8158
 21
11.6915
 31
0.0000
  0
LINE
  8
21
 10
3.9221
 20
8.9381
 30
0.0000
 11
4.6008
 21
8.9381
 31
0.0000
  0
ARC
  8
21
 10
4.6008
 20
9.1992
 30
0.0000
 40
0.2611
 50
270.0000
 51
90.0000
  0
LINE
  8
21
 10
4.6008
 20
9.4602
 30
0.0000
 11
3.9221
 21
9.4602
 31
0.0000
  0
LINE
  8
21
 10
4.8619
 20
9.9266
 30
0.0000
 11
3.9221
 21
9.9266
 31
0.0000
  0
LINE
  8
21
 10
3.9221
 20
9.9266
 30
0.0000
 11
3.9221
 21
10.1876
 31
0.0000
  0
ARC
  8
21
 10
4.1832
 20
10.1876
 30
0.0000
 40
0.2611
 50
0.0000
 51
180.0000
  0
LINE
  8
21
 10
4.4442
 20
10.1876
 30
0.0000
 11
4.4442
 21
9.9266
 31
0.0000
  0
LINE
  8
21
 10
4.5486
 20
10.7841
 30
0.0000
 11
3.9221
 21
10.7841
 31
0.0000
  0
LINE
  8
21
 10
4.8619
 20
10.7580
 30
0.0000
 11
4.8097
 21
10.7580
 31
0.0000
  0
LINE
  8
21
 10
4.8097
 20
10.7580
 30
0.0000
 11
4.8097
 21
10.8102
 31
0.0000
  0
LINE
  8
21
 10
4.8097
 20
10.8102
 30
0.0000
 11
4.8619
 21
10.8102
 31
0.0000
  0
LINE
  8
21
 10
4.8619
 20
10.8102
 30
0.0000
 11
4.8619
 21
10.7580
 31
0.0000
  0
CIRCLE
  8
20
 10
3.0000
 20
5.0000
 30
0.0000
 40
1.7500
  0
CIRCLE
  8
20
 10
27.0000
 20
5.0000
 30
0.0000
 40
1.7500
  0
LINE
  8
21
 10
22.6200
 20
0.3962
 30
0.0000
 11
7.3800
 21
0.3962
 31
0.0000
  0
LINE
  8
21
 10
7.3800
 20
0.3962
 30
0.0000
 11
7.3800
 21
1.8250
 31
0.0000
  0
LINE
  8
21
 10
7.3800
 20
1.8250
 30
0.0000
 11
7.3800
 21
3.2537
 31
0.0000
  0
LINE
  8
21
 10
7.3800
 20
3.2537
 30
0.0000
 11
7.3800
 21
9.6038
 31
0.0000
  0
LINE
  8
21
 10
7.3800
 20
9.6038
 30
0.0000
 11
13.7300
 21
9.6038
 31
0.0000
  0
LINE
  8
21
 10
13.7300
 20
9.6038
 30
0.0000
 11
16.2700
 21
9.6038
 31
0.0000
  0
LINE
  8
21
 10
16.2700
 20
9.6038
 30
0.0000
 11
22.6200
 21
9.6038
 31
0.0000
  0
LINE
  8
21
 10
22.6200
 20
9.6038
 30
0.0000
 11
22.6200
 21
3.2537
 31
0.0000
  0
LINE
  8
21
 10
22.6200
 20
3.2537
 30
0.0000
 11
22.6200
 21
1.8250
 31
0.0000
  0
LINE
  8
21
 10
22.6200
 20
1.8250
 30
0.0000
 11
22.6200
 21
0.3962
 31
0.0000
  0
LINE
  8
21
 10
21.3500
 20
1.6662
 30
0.0000
 11
8.6500
 21
1.6662
 31
0.0000
  0
LINE
  8
21
 10
8.6500
 20
1.6662
 30
0.0000
 11
8.6500
 21
1.8250
 31
0.0000
  0
LINE
  8
21
 10
8.6500
 20
1.8250
 30
0.0000
 11
8.6500
 21
3.2537
 31
0.0000
  0
LINE
  8
21
 10
8.6500
 20
3.2537
 30
0.0000
 11
8.6500
 21
8.3338
 31
0.0000
  0
LINE
  8
21
 10
8.6500
 20
8.3338
 30
0.0000
 11
13.7300
 21
8.3338
 31
0.0000
  0
LINE
  8
21
 10
13.7300
 20
8.3338
 30
0.0000
 11
16.2700
 21
8.3338
 31
0.0000
  0
LINE
  8
21
 10
16.2700
 20
8.3338
 30
0.0000
 11
21.3500
 21
8.3338
 31
0.0000
  0
LINE
  8
21
 10
21.3500
 20
8.3338
 30
0.0000
 11
21.3500
 21
3.2537
 31
0.0000
  0
LINE
  8
21
 10
21.3500
 20
3.2537
 30
0.0000
 11
21.3500
 21
1.8250
 31
0.0000
  0
LINE
  8
21
 10
21.3500
 20
1.8250
 30
0.0000
 11
21.3500
 21
1.6662
 31
0.0000
  0
LINE
  8
21
 10
16.2700
 20
8.3338
 30
0.0000
 11
16.2700
 21
8.8100
 31
0.0000
  0
LINE
  8
21
 10
16.2700
 20
8.8100
 30
0.0000
 11
16.2700
 21
9.6038
 31
0.0000
  0
LINE
  8
21
 10
13.7300
 20
8.3338
 30
0.0000
 11
13.7300
 21
8.8100
 31
0.0000
  0
LINE
  8
21
 10
13.7300
 20
8.8100
 30
0.0000
 11
13.7300
 21
9.6038
 31
0.0000
  0
LINE
  8
21
 10
8.6500
 20
1.8250
 30
0.0000
 11
8.1737
 21
1.8250
 31
0.0000
  0
LINE
  8
21
 10
8.1737
 20
1.8250
 30
0.0000
 11
7.3800
 21
1.8250
 31
0.0000
  0
LINE
  8
21
 10
21.3500
 20
1.8250
 30
0.0000
 11
21.8263
 21
1.8250
 31
0.0000
  0
LINE
  8
21
 10
21.8263
 20
1.8250
 30
0.0000
 11
22.6200
 21
1.8250
 31
0.0000
  0
LINE
  8
21
 10
21.3500
 20
3.2537
 30
0.0000
 11
21.8263
 21
3.2537
 31
0.0000
  0
LINE
  8
21
 10
21.8263
 20
3.2537
 30
0.0000
 11
22.6200
 21
3.2537
 31
0.0000
  0
LINE
  8
21
 10
8.6500
 20
3.2537
 30
0.0000
 11
8.1737
 21
3.2537
 31
0.0000
  0
LINE
  8
21
 10
8.1737
 20
3.2537
 30
0.0000
 11
7.3800
 21
3.2537
 31
0.0000
  0
LINE
  8
21
 10
21.8263
 20
1.1900
 30
0.0000
 11
8.1737
 21
1.1900
 31
0.0000
  0
LINE
  8
21
 10
13.7300
 20
8.8100
 30
0.0000
 11
8.1737
 21
8.8100
 31
0.0000
  0
LINE
  8
21
 10
8.1737
 20
3.2537
 30
0.0000
 11
8.1737
 21
8.8100
 31
0.0000
  0
LINE
  8
21
 10
21.8263
 20
1.1900
 30
0.0000
 11
21.8263
 21
1.8250
 31
0.0000
  0
LINE
  8
21
 10
21.8263
 20
3.2537
 30
0.0000
 11
21.8263
 21
8.8100
 31
0.0000
  0
LINE
  8
21
 10
16.2700
 20
8.8100
 30
0.0000
 11
21.8263
 21
8.8100
 31
0.0000
  0
LINE
  8
21
 10
8.1737
 20
1.8250
 30
0.0000
 11
8.1737
 21
1.1900
 31
0.0000
  0
LINE
  8
21
 10
8.6500
 20
8.3338
 30
0.0000
 11
8.1737
 21
8.8100
 31
0.0000
  0
LINE
  8
21
 10
8.6500
 20
1.6662
 30
0.0000
 11
8.1737
 21
1.1900
 31
0.0000
  0
LINE
  8
21
 10
21.8263
 20
1.1900
 30
0.0000
 11
21.3500
 21
1.6662
 31
0.0000
  0
LINE
  8
21
 10
21.8263
 20
8.8100
 30
0.0000
 11
21.3500
 21
8.3338
 31
0.0000
  0
ARC
  8
21
 10
20.7150
 20
0.3962
 30
0.0000
 40
0.6350
 50
180.0000
 51
0.0000
  0
ARC
  8
21
 10
9.2850
 20
0.3962
 30
0.0000
 40
0.6350
 50
180.0000
 51
0.0000
  0
ARC
  8
21
 10
15.0794
 20
0.3962
 30
0.0000
 40
0.5556
 50
180.0000
 51
0.0000
  0
LINE
  8
21
 10
17.5400
 20
7.3812
 30
0.0000
 11
18.1750
 21
8.0162
 31
0.0000
  0
LINE
  8
21
 10
18.1750
 20
8.0162
 30
0.0000
 11
18.0163
 21
8.0162
 31
0.0000
  0
LINE
  8
21
 10
17.2225
 20
8.0162
 30
0.0000
 11
17.0638
 21
8.0162
 31
0.0000
  0
LINE
  8
21
 10
17.0638
 20
8.0162
 30
0.0000
 11
16.9050
 21
8.0162
 31
0.0000
  0
LINE
  8
21
 10
16.9050
 20
8.0162
 30
0.0000
 11
17.5400
 21
7.3812
 31
0.0000
  0
LINE
  8
21
 10
17.0638
 20
8.0162
 30
0.0000
 11
17.5400
 21
7.5400
 31
0.0000
  0
LINE
  8
21
 10
17.5400
 20
7.5400
 30
0.0000
 11
18.0163
 21
8.0162
 31
0.0000
  0
LINE
  8
21
 10
18.0163
 20
8.0162
 30
0.0000
 11
17.8575
 21
8.0162
 31
0.0000
  0
LINE
  8
21
 10
17.3813
 20
8.0162
 30
0.0000
 11
17.2225
 21
8.0162
 31
0.0000
  0
LINE
  8
21
 10
17.2225
 20
8.0162
 30
0.0000
 11
17.5400
 21
7.6987
 31
0.0000
  0
LINE
  8
21
 10
17.5400
 20
7.6987
 30
0.0000
 11
17.8575
 21
8.0162
 31
0.0000
  0
LINE
  8
21
 10
17.8575
 20
8.0162
 30
0.0000
 11
17.6988
 21
8.0162
 31
0.0000
  0
LINE
  8
21
 10
17.6988
 20
8.0162
 30
0.0000
 11
17.3813
 21
8.0162
 31
0.0000
  0
LINE
  8
21
 10
17.3813
 20
8.0162
 30
0.0000
 11
17.5400
 21
7.8575
 31
0.0000
  0
LINE
  8
21
 10
17.5400
 20
7.8575
 30
0.0000
 11
17.6988
 21
8.0162
 31
0.0000
  0
INSERT
  8
51
  2
RECT
 10
17.5400
 20
3.7300
 30
0.0000
 41
0.5080
 42
0.5080
 43
1.0000
 50
180.0000
  0
INSERT
  8
51
  2
RECT
 10
17.5400
 20
6.2700
 30
0.0000
 41
0.5080
 42
0.5080
 43
1.0000
 50
180.0000
  0
INSERT
  8
51
  2
RECT
 10
15.0000
 20
3.7300
 30
0.0000
 41
0.5080
 42
0.5080
 43
1.0000
 50
180.0000
  0
INSERT
  8
51
  2
RECT
 10
15.0000
 20
6.2700
 30
0.0000
 41
0.5080
 42
0.5080
 43
1.0000
 50
180.0000
  0
INSERT
  8
51
  2
RECT
 10
12.4600
 20
3.7300
 30
0.0000
 41
0.5080
 42
0.5080
 43
1.0000
 50
180.0000
  0
INSERT
  8
51
  2
RECT
 10
12.4600
 20
6.2700
 30
0.0000
 41
0.5080
 42
0.5080
 43
1.0000
 50
180.0000
  0
LINE
  8
20
 10
26.0000
 20
27.0000
 30
0.0000
 11
20.5600
 21
27.0000
 31
0.0000
  0
ARC
  8
20
 10
20.5600
 20
26.2000
 30
0.0000
 40
0.8000
 50
90.0000
 51
180.0000
  0
LINE
  8
20
 10
19.7600
 20
26.2000
 30
0.0000
 11
19.7600
 21
17.0000
 31
0.0000
  0
LINE
  8
20
 10
18.1600
 20
17.0000
 30
0.0000
 11
18.1600
 21
26.2000
 31
0.0000
  0
ARC
  8
20
 10
17.3600
 20
26.2000
 30
0.0000
 40
0.8000
 50
0.0000
 51
90.0000
  0
LINE
  8
20
 10
17.3600
 20
27.0000
 30
0.0000
 11
2.5000
 21
27.0000
 31
0.0000
  0
LINE
  8
20
 10
2.5000
 20
27.0000
 30
0.0000
 11
1.5000
 21
26.0000
 31
0.0000
  0
LINE
  8
20
 10
1.5000
 20
26.0000
 30
0.0000
 11
1.5000
 21
15.0000
 31
0.0000
  0
LINE
  8
20
 10
26.0000
 20
27.0000
 30
0.0000
 11
27.5000
 21
27.0000
 31
0.0000
  0
LINE
  8
20
 10
27.5000
 20
27.0000
 30
0.0000
 11
28.5000
 21
26.0000
 31
0.0000
  0
LINE
  8
20
 10
28.5000
 20
26.0000
 30
0.0000
 11
28.5000
 21
15.0000
 31
0.0000
  0
ARC
  8
20
 10
18.9600
 20
17.0000
 30
0.0000
 40
0.8000
 50
270.0000
 51
0.0000
  0
ARC
  8
20
 10
18.9600
 20
17.0000
 30
0.0000
 40
0.8000
 50
180.0000
 51
270.0000
  0
LINE
  8
21
 10
24.3001
 20
15.6896
 30
0.0000
 11
24.6246
 21
15.9492
 31
0.0000
  0
LINE
  8
21
 10
24.6246
 20
15.9492
 30
0.0000
 11
24.6246
 21
14.7808
 31
0.0000
  0
LINE
  8
21
 10
24.3001
 20
14.7808
 30
0.0000
 11
24.9492
 21
14.7808
 31
0.0000
  0
LINE
  8
21
 10
1.2177
 20
38.9264
 30
0.0000
 11
1.2177
 21
40.2726
 31
0.0000
  0
LINE
  8
21
 10
1.2177
 20
40.2726
 30
0.0000
 11
1.5916
 21
40.2726
 31
0.0000
  0
ARC
  8
21
 10
1.5916
 20
40.0483
 30
0.0000
 40
0.2244
 50
0.0000
 51
90.0000
  0
LINE
  8
21
 10
1.8160
 20
40.0483
 30
0.0000
 11
1.8160
 21
39.5995
 31
0.0000
  0
ARC
  8
21
 10
1.5916
 20
39.5995
 30
0.0000
 40
0.2244
 50
270.0008
 51
0.0000
  0
LINE
  8
21
 10
1.5916
 20
39.3752
 30
0.0000
 11
1.2177
 21
39.3752
 31
0.0000
  0
LINE
  8
21
 10
2.4073
 20
40.7214
 30
0.0000
 11
2.4073
 21
39.5995
 31
0.0000
  0
ARC
  8
21
 10
2.6316
 20
39.5995
 30
0.0000
 40
0.2244
 50
180.0000
 51
270.0000
  0
LINE
  8
21
 10
3.7152
 20
39.8987
 30
0.0000
 11
3.3786
 21
39.8987
 31
0.0000
  0
ARC
  8
21
 10
3.3786
 20
39.6369
 30
0.0000
 40
0.2618
 50
90.0000
 51
270.0000
  0
LINE
  8
21
 10
3.3786
 20
39.3752
 30
0.0000
 11
3.7152
 21
39.3752
 31
0.0000
  0
LINE
  8
21
 10
3.7152
 20
39.3752
 30
0.0000
 11
3.7152
 21
40.0483
 31
0.0000
  0
ARC
  8
21
 10
3.4908
 20
40.0483
 30
0.0000
 40
0.2244
 50
0.0000
 51
90.0000
  0
LINE
  8
21
 10
3.4908
 20
40.2726
 30
0.0000
 11
3.1916
 21
40.2726
 31
0.0000
  0
LINE
  8
21
 10
4.8829
 20
39.3752
 30
0.0000
 11
4.5837
 21
39.3752
 31
0.0000
  0
ARC
  8
21
 10
4.5837
 20
39.5995
 30
0.0000
 40
0.2244
 50
180.0000
 51
270.0000
  0
LINE
  8
21
 10
4.3594
 20
39.5995
 30
0.0000
 11
4.3594
 21
40.0483
 31
0.0000
  0
ARC
  8
21
 10
4.5837
 20
40.0483
 30
0.0000
 40
0.2244
 50
89.9992
 51
180.0000
  0
LINE
  8
21
 10
4.5837
 20
40.2726
 30
0.0000
 11
4.8829
 21
40.2726
 31
0.0000
  0
LINE
  8
21
 10
6.0052
 20
39.3752
 30
0.0000
 11
5.6312
 21
39.3752
 31
0.0000
  0
ARC
  8
21
 10
5.6312
 20
39.5995
 30
0.0000
 40
0.2244
 50
180.0000
 51
270.0000
  0
LINE
  8
21
 10
5.4069
 20
39.5995
 30
0.0000
 11
5.4069
 21
39.9735
 31
0.0000
  0
ARC
  8
21
 10
5.7060
 20
39.9735
 30
0.0000
 40
0.2992
 50
0.0000
 51
180.0000
  0
LINE
  8
21
 10
6.0052
 20
39.9735
 30
0.0000
 11
6.0052
 21
39.8239
 31
0.0000
  0
LINE
  8
21
 10
6.0052
 20
39.8239
 30
0.0000
 11
5.4069
 21
39.8239
 31
0.0000
  0
LINE
  8
21
 10
6.6718
 20
39.3752
 30
0.0000
 11
6.6718
 21
40.2726
 31
0.0000
  0
LINE
  8
21
 10
6.6718
 20
40.2726
 30
0.0000
 11
7.3449
 21
40.2726
 31
0.0000
  0
ARC
  8
21
 10
7.3449
 20
40.0483
 30
0.0000
 40
0.2244
 50
0.0000
 51
90.0000
  0
LINE
  8
21
 10
7.5692
 20
40.0483
 30
0.0000
 11
7.5692
 21
39.3752
 31
0.0000
  0
LINE
  8
21
 10
7.1205
 20
39.3752
 30
0.0000
 11
7.1205
 21
40.2726
 31
0.0000
  0
LINE
  8
21
 10
8.8341
 20
39.3752
 30
0.0000
 11
8.4602
 21
39.3752
 31
0.0000
  0
ARC
  8
21
 10
8.4602
 20
39.5995
 30
0.0000
 40
0.2244
 50
180.0000
 51
270.0000
  0
LINE
  8
21
 10
8.2358
 20
39.5995
 30
0.0000
 11
8.2358
 21
39.9735
 31
0.0000
  0
ARC
  8
21
 10
8.5350
 20
39.9735
 30
0.0000
 40
0.2992
 50
0.0000
 51
180.0000
  0
LINE
  8
21
 10
8.8341
 20
39.9735
 30
0.0000
 11
8.8341
 21
39.8239
 31
0.0000
  0
LINE
  8
21
 10
8.8341
 20
39.8239
 30
0.0000
 11
8.2358
 21
39.8239
 31
0.0000
  0
LINE
  8
21
 10
9.4678
 20
39.3752
 30
0.0000
 11
9.4678
 21
40.2726
 31
0.0000
  0
LINE
  8
21
 10
9.4678
 20
40.2726
 30
0.0000
 11
9.8417
 21
40.2726
 31
0.0000
  0
ARC
  8
21
 10
9.8417
 20
40.0483
 30
0.0000
 40
0.2244
 50
0.0000
 51
90.0000
  0
LINE
  8
21
 10
10.0661
 20
40.0483
 30
0.0000
 11
10.0661
 21
39.3752
 31
0.0000
  0
LINE
  8
21
 10
10.5785
 20
40.2726
 30
0.0000
 11
11.0273
 21
40.2726
 31
0.0000
  0
LINE
  8
21
 10
10.7281
 20
40.7214
 30
0.0000
 11
10.7281
 21
39.5995
 31
0.0000
  0
ARC
  8
21
 10
10.9525
 20
39.5995
 30
0.0000
 40
0.2244
 50
180.0000
 51
270.0000
  0
LINE
  8
21
 10
10.9525
 20
39.3752
 30
0.0000
 11
11.0273
 21
39.3752
 31
0.0000
  0
LINE
  8
21
 10
12.8222
 20
39.3752
 30
0.0000
 11
12.5231
 21
39.3752
 31
0.0000
  0
ARC
  8
21
 10
12.5231
 20
39.5995
 30
0.0000
 40
0.2244
 50
180.0000
 51
270.0000
  0
LINE
  8
21
 10
12.2987
 20
39.5995
 30
0.0000
 11
12.2987
 21
40.0483
 31
0.0000
  0
ARC
  8
21
 10
12.5231
 20
40.0483
 30
0.0000
 40
0.2244
 50
89.9992
 51
180.0000
  0
LINE
  8
21
 10
12.5231
 20
40.2726
 30
0.0000
 11
12.8222
 21
40.2726
 31
0.0000
  0
LINE
  8
21
 10
13.3462
 20
39.6743
 30
0.0000
 11
13.3462
 21
39.9735
 31
0.0000
  0
ARC
  8
21
 10
13.6454
 20
39.9735
 30
0.0000
 40
0.2992
 50
0.0000
 51
180.0000
  0
LINE
  8
21
 10
13.9445
 20
39.9735
 30
0.0000
 11
13.9445
 21
39.6743
 31
0.0000
  0
ARC
  8
21
 10
13.6454
 20
39.6743
 30
0.0000
 40
0.2992
 50
180.0000
 51
0.0000
  0
LINE
  8
21
 10
14.6111
 20
39.3752
 30
0.0000
 11
14.6111
 21
40.2726
 31
0.0000
  0
LINE
  8
21
 10
14.6111
 20
40.2726
 30
0.0000
 11
15.2842
 21
40.2726
 31
0.0000
  0
ARC
  8
21
 10
15.2842
 20
40.0483
 30
0.0000
 40
0.2244
 50
0.0000
 51
90.0000
  0
LINE
  8
21
 10
15.5086
 20
40.0483
 30
0.0000
 11
15.5086
 21
39.3752
 31
0.0000
  0
LINE
  8
21
 10
15.0598
 20
39.3752
 30
0.0000
 11
15.0598
 21
40.2726
 31
0.0000
  0
LINE
  8
21
 10
16.2294
 20
38.9264
 30
0.0000
 11
16.2294
 21
40.2726
 31
0.0000
  0
LINE
  8
21
 10
16.2294
 20
40.2726
 30
0.0000
 11
16.6033
 21
40.2726
 31
0.0000
  0
ARC
  8
21
 10
16.6033
 20
40.0483
 30
0.0000
 40
0.2244
 50
0.0000
 51
90.0000
  0
LINE
  8
21
 10
16.8277
 20
40.0483
 30
0.0000
 11
16.8277
 21
39.5995
 31
0.0000
  0
ARC
  8
21
 10
16.6033
 20
39.5995
 30
0.0000
 40
0.2244
 50
270.0008
 51
0.0000
  0
LINE
  8
21
 10
16.6033
 20
39.3752
 30
0.0000
 11
16.2294
 21
39.3752
 31
0.0000
  0
LINE
  8
21
 10
17.4071
 20
39.6743
 30
0.0000
 11
17.4071
 21
39.9735
 31
0.0000
  0
ARC
  8
21
 10
17.7063
 20
39.9735
 30
0.0000
 40
0.2992
 50
0.0000
 51
180.0000
  0
LINE
  8
21
 10
18.0054
 20
39.9735
 30
0.0000
 11
18.0054
 21
39.6743
 31
0.0000
  0
ARC
  8
21
 10
17.7063
 20
39.6743
 30
0.0000
 40
0.2992
 50
180.0000
 51
0.0000
  0
LINE
  8
21
 10
18.6391
 20
39.3752
 30
0.0000
 11
18.6391
 21
40.2726
 31
0.0000
  0
LINE
  8
21
 10
18.6391
 20
40.2726
 30
0.0000
 11
19.0130
 21
40.2726
 31
0.0000
  0
ARC
  8
21
 10
19.0130
 20
40.0483
 30
0.0000
 40
0.2244
 50
0.0000
 51
90.0000
  0
LINE
  8
21
 10
19.2374
 20
40.0483
 30
0.0000
 11
19.2374
 21
39.3752
 31
0.0000
  0
LINE
  8
21
 10
20.4694
 20
39.3752
 30
0.0000
 11
20.0954
 21
39.3752
 31
0.0000
  0
ARC
  8
21
 10
20.0954
 20
39.5995
 30
0.0000
 40
0.2244
 50
180.0000
 51
270.0000
  0
LINE
  8
21
 10
19.8711
 20
39.5995
 30
0.0000
 11
19.8711
 21
39.9735
 31
0.0000
  0
ARC
  8
21
 10
20.1702
 20
39.9735
 30
0.0000
 40
0.2992
 50
0.0000
 51
180.0000
  0
LINE
  8
21
 10
20.4694
 20
39.9735
 30
0.0000
 11
20.4694
 21
39.8239
 31
0.0000
  0
LINE
  8
21
 10
20.4694
 20
39.8239
 30
0.0000
 11
19.8711
 21
39.8239
 31
0.0000
  0
LINE
  8
21
 10
21.1030
 20
39.3752
 30
0.0000
 11
21.1030
 21
40.2726
 31
0.0000
  0
LINE
  8
21
 10
21.1030
 20
40.2726
 30
0.0000
 11
21.4770
 21
40.2726
 31
0.0000
  0
ARC
  8
21
 10
21.4770
 20
40.0483
 30
0.0000
 40
0.2244
 50
0.0000
 51
90.0000
  0
LINE
  8
21
 10
21.7014
 20
40.0483
 30
0.0000
 11
21.7014
 21
39.3752
 31
0.0000
  0
LINE
  8
21
 10
22.2138
 20
40.2726
 30
0.0000
 11
22.6625
 21
40.2726
 31
0.0000
  0
LINE
  8
21
 10
22.3634
 20
40.7214
 30
0.0000
 11
22.3634
 21
39.5995
 31
0.0000
  0
ARC
  8
21
 10
22.5877
 20
39.5995
 30
0.0000
 40
0.2244
 50
180.0000
 51
270.0000
  0
LINE
  8
21
 10
22.5877
 20
39.3752
 30
0.0000
 11
22.6625
 21
39.3752
 31
0.0000
  0
LINE
  8
21
 10
24.4181
 20
39.7491
 30
0.0000
 11
24.0442
 21
39.8987
 31
0.0000
  0
ARC
  8
21
 10
24.1162
 20
40.0787
 30
0.0000
 40
0.1939
 50
89.1810
 51
248.1986
  0
ARC
  8
21
 10
24.1068
 20
39.4234
 30
0.0000
 40
0.8493
 50
65.7609
 51
89.1810
  0
ARC
  8
21
 10
24.3461
 20
39.5690
 30
0.0000
 40
0.1939
 50
269.1810
 51
68.1986
  0
ARC
  8
21
 10
24.3615
 20
40.6435
 30
0.0000
 40
1.2684
 50
250.2096
 51
269.1810
  0
LINE
  8
21
 10
25.0981
 20
39.3752
 30
0.0000
 11
25.0981
 21
40.2726
 31
0.0000
  0
LINE
  8
21
 10
25.0607
 20
40.6466
 30
0.0000
 11
25.0607
 21
40.7214
 31
0.0000
  0
LINE
  8
21
 10
25.0607
 20
40.7214
 30
0.0000
 11
25.1355
 21
40.7214
 31
0.0000
  0
LINE
  8
21
 10
25.1355
 20
40.7214
 30
0.0000
 11
25.1355
 21
40.6466
 31
0.0000
  0
LINE
  8
21
 10
25.1355
 20
40.6466
 30
0.0000
 11
25.0607
 21
40.6466
 31
0.0000
  0
LINE
  8
21
 10
26.2556
 20
40.7214
 30
0.0000
 11
26.2556
 21
39.3752
 31
0.0000
  0
LINE
  8
21
 10
26.2556
 20
39.3752
 30
0.0000
 11
25.8816
 21
39.3752
 31
0.0000
  0
ARC
  8
21
 10
25.8816
 20
39.5995
 30
0.0000
 40
0.2244
 50
180.0000
 51
270.0000
  0
LINE
  8
21
 10
25.6573
 20
39.5995
 30
0.0000
 11
25.6573
 21
40.0483
 31
0.0000
  0
ARC
  8
21
 10
25.8816
 20
40.0483
 30
0.0000
 40
0.2244
 50
89.9992
 51
180.0000
  0
LINE
  8
21
 10
25.8816
 20
40.2726
 30
0.0000
 11
26.2556
 21
40.2726
 31
0.0000
  0
LINE
  8
21
 10
27.4962
 20
39.3752
 30
0.0000
 11
27.1222
 21
39.3752
 31
0.0000
  0
ARC
  8
21
 10
27.1222
 20
39.5995
 30
0.0000
 40
0.2244
 50
180.0000
 51
270.0000
  0
LINE
  8
21
 10
26.8978
 20
39.5995
 30
0.0000
 11
26.8978
 21
39.9735
 31
0.0000
  0
ARC
  8
21
 10
27.1970
 20
39.9735
 30
0.0000
 40
0.2992
 50
0.0000
 51
180.0000
  0
LINE
  8
21
 10
27.4962
 20
39.9735
 30
0.0000
 11
27.4962
 21
39.8239
 31
0.0000
  0
LINE
  8
21
 10
27.4962
 20
39.8239
 30
0.0000
 11
26.8978
 21
39.8239
 31
0.0000
  0
ENDSEC
  0
EOF
