  0
SECTION
  2
HEADER
  9
$ACADVER
  1
AC1009
  9
$FILLMODE
 70
0
  9
$EXTMIN
 10
-5.2845
 20
-4.4345
 30
0.0000
  9
$EXTMAX
 10
69.3345
 20
52.8638
 30
0.0000
  0
ENDSEC
  0
SECTION
  2
TABLES
  0
TABLE
  2
LTYPE
 70
1
  0
LTYPE
  2
CONTINUOUS
 70
64
  3
Solid line
 72
65
 73
0
 40
0
  0
ENDTAB
  0
TABLE
  2
LAYER
 70
255
  0
LAYER
  2
19
 70
64
 62
53
  6
CONTINUOUS
  0
LAYER
  2
20
 70
64
 62
30
  6
CONTINUOUS
  0
LAYER
  2
21
 70
64
 62
253
  6
CONTINUOUS
  0
LAYER
  2
39
 70
64
 62
22
  6
CONTINUOUS
  0
LAYER
  2
40
 70
64
 62
175
  6
CONTINUOUS
  0
LAYER
  2
45
 70
64
 62
253
  6
CONTINUOUS
  0
LAYER
  2
49
 70
64
 62
253
  6
CONTINUOUS
  0
LAYER
  2
51
 70
64
 62
253
  6
CONTINUOUS
  0
ENDTAB
  0
ENDSEC
  0
SECTION
  2
BLOCKS
  0
BLOCK
  8
0
  2
RECT
 70
64
 10
0.0000
 20
0.0000
 30
0.0000
  3
RECT
  0
SOLID
  8
0
 10
-0.5000
 20
-0.5000
 30
0.0000
 11
0.5000
 21
-0.5000
 31
0.0000
 12
-0.5000
 22
0.5000
 32
0.0000
 13
0.5000
 23
0.5000
 33
0.0000
  0
ENDBLK
  8
0
  0
BLOCK
  8
0
  2
PIE
 70
64
 10
0.0000
 20
0.0000
 30
0.0000
  3
PIE
  0
CIRCLE
  8
0
 10
0.0000
 20
0.0000
 30
0.0000
 40
0.5000
  0
ENDBLK
  8
0
  0
BLOCK
  8
0
  2
OCTAGONP
 70
64
 10
0.0000
 20
0.0000
 30
0.0000
  3
OCTAGONP
  0
POLYLINE
  8
0
 66
1
 10
0.0000
 20
0.0000
 30
0.0000
 40
0.0000
 41
0.0000
 70
1
  0
VERTEX
  8
0
 10
-0.5000
 20
-0.2071
 30
0.0000
  0
VERTEX
  8
0
 10
-0.5000
 20
0.2071
 30
0.0000
  0
VERTEX
  8
0
 10
-0.2071
 20
0.5000
 30
0.0000
  0
VERTEX
  8
0
 10
0.2071
 20
0.5000
 30
0.0000
  0
VERTEX
  8
0
 10
0.5000
 20
0.2071
 30
0.0000
  0
VERTEX
  8
0
 10
0.5000
 20
-0.2071
 30
0.0000
  0
VERTEX
  8
0
 10
0.2071
 20
-0.5000
 30
0.0000
  0
VERTEX
  8
0
 10
-0.2071
 20
-0.5000
 30
0.0000
  0
SEQEND
  8
0
  0
ENDBLK
  8
0
  0
BLOCK
  8
0
  2
SQUAREP
 70
64
 10
0.0000
 20
0.0000
 30
0.0000
  3
SQUAREP
  0
SOLID
  8
0
 10
-0.5000
 20
-0.5000
 30
0.0000
 11
0.5000
 21
-0.5000
 31
0.0000
 12
-0.5000
 22
0.5000
 32
0.0000
 13
0.5000
 23
0.5000
 33
0.0000
  0
ENDBLK
  8
0
  0
BLOCK
  8
0
  2
ROUNDP
 70
64
 10
0.0000
 20
0.0000
 30
0.0000
  3
ROUNDP
  0
CIRCLE
  8
0
 10
0.0000
 20
0.0000
 30
0.0000
 40
0.5000
  0
ENDBLK
  8
0
  0
BLOCK
  8
0
  2
ANNULUSP
 70
64
 10
0.0000
 20
0.0000
 30
0.0000
  3
ANNULUSP
  0
CIRCLE
  8
0
 10
0.0000
 20
0.0000
 30
0.0000
 40
0.5000
  0
ENDBLK
  8
0
  0
BLOCK
  8
0
  2
THERMALP
 70
64
 10
0.0000
 20
0.0000
 30
0.0000
  3
THERMALP
  0
LINE
  8
0
 10
-0.2379
 20
0.4500
 30
0.0000
 11
0.2379
 21
0.4500
 31
0.0000
  0
LINE
  8
0
 10
0.4500
 20
0.2379
 30
0.0000
 11
0.4500
 21
-0.2379
 31
0.0000
  0
LINE
  8
0
 10
0.2379
 20
-0.4500
 30
0.0000
 11
-0.2379
 21
-0.4500
 31
0.0000
  0
LINE
  8
0
 10
-0.4500
 20
-0.2379
 30
0.0000
 11
-0.4500
 21
0.2379
 31
0.0000
  0
ENDBLK
  8
0
  0
BLOCK
  8
0
  2
OCTAGONV
 70
64
 10
0.0000
 20
0.0000
 30
0.0000
  3
OCTAGONV
  0
POLYLINE
  8
0
 66
1
 10
0.0000
 20
0.0000
 30
0.0000
 40
0.0000
 41
0.0000
 70
1
  0
VERTEX
  8
0
 10
-0.5000
 20
-0.2071
 30
0.0000
  0
VERTEX
  8
0
 10
-0.5000
 20
0.2071
 30
0.0000
  0
VERTEX
  8
0
 10
-0.2071
 20
0.5000
 30
0.0000
  0
VERTEX
  8
0
 10
0.2071
 20
0.5000
 30
0.0000
  0
VERTEX
  8
0
 10
0.5000
 20
0.2071
 30
0.0000
  0
VERTEX
  8
0
 10
0.5000
 20
-0.2071
 30
0.0000
  0
VERTEX
  8
0
 10
0.2071
 20
-0.5000
 30
0.0000
  0
VERTEX
  8
0
 10
-0.2071
 20
-0.5000
 30
0.0000
  0
SEQEND
  8
0
  0
ENDBLK
  8
0
  0
BLOCK
  8
0
  2
SQUAREV
 70
64
 10
0.0000
 20
0.0000
 30
0.0000
  3
SQUAREV
  0
SOLID
  8
0
 10
-0.5000
 20
-0.5000
 30
0.0000
 11
0.5000
 21
-0.5000
 31
0.0000
 12
-0.5000
 22
0.5000
 32
0.0000
 13
0.5000
 23
0.5000
 33
0.0000
  0
ENDBLK
  8
0
  0
BLOCK
  8
0
  2
ROUNDV
 70
64
 10
0.0000
 20
0.0000
 30
0.0000
  3
ROUNDV
  0
CIRCLE
  8
0
 10
0.0000
 20
0.0000
 30
0.0000
 40
0.5000
  0
ENDBLK
  8
0
  0
BLOCK
  8
0
  2
ANNULUSV
 70
64
 10
0.0000
 20
0.0000
 30
0.0000
  3
ANNULUSV
  0
CIRCLE
  8
0
 10
0.0000
 20
0.0000
 30
0.0000
 40
0.5000
  0
ENDBLK
  8
0
  0
BLOCK
  8
0
  2
THERMALV
 70
64
 10
0.0000
 20
0.0000
 30
0.0000
  3
THERMALV
  0
LINE
  8
0
 10
-0.2379
 20
0.4500
 30
0.0000
 11
0.2379
 21
0.4500
 31
0.0000
  0
LINE
  8
0
 10
0.4500
 20
0.2379
 30
0.0000
 11
0.4500
 21
-0.2379
 31
0.0000
  0
LINE
  8
0
 10
0.2379
 20
-0.4500
 30
0.0000
 11
-0.2379
 21
-0.4500
 31
0.0000
  0
LINE
  8
0
 10
-0.4500
 20
-0.2379
 30
0.0000
 11
-0.4500
 21
0.2379
 31
0.0000
  0
ENDBLK
  8
0
  0
ENDSEC
  0
SECTION
  2
ENTITIES
  0
LINE
  8
20
 10
54.0000
 20
0.0000
 30
0.0000
 11
54.0000
 21
15.0000
 31
0.0000
  0
LINE
  8
20
 10
0.0000
 20
0.0000
 30
0.0000
 11
54.0000
 21
0.0000
 31
0.0000
  0
LINE
  8
20
 10
0.0000
 20
0.0000
 30
0.0000
 11
0.0000
 21
15.0000
 31
0.0000
  0
LINE
  8
20
 10
0.0000
 20
15.0000
 30
0.0000
 11
0.5000
 21
15.0000
 31
0.0000
  0
LINE
  8
20
 10
53.5000
 20
15.0000
 30
0.0000
 11
54.0000
 21
15.0000
 31
0.0000
  0
LINE
  8
21
 10
12.9062
 20
13.5762
 30
0.0000
 11
12.5450
 21
13.5762
 31
0.0000
  0
ARC
  8
21
 10
12.5450
 20
13.9374
 30
0.0000
 40
0.3612
 50
180.0000
 51
270.0000
  0
LINE
  8
21
 10
12.1837
 20
13.9374
 30
0.0000
 11
12.1837
 21
14.8406
 31
0.0000
  0
ARC
  8
21
 10
12.5450
 20
14.8406
 30
0.0000
 40
0.3612
 50
90.0005
 51
180.0000
  0
LINE
  8
21
 10
12.5450
 20
15.2018
 30
0.0000
 11
12.9062
 21
15.2018
 31
0.0000
  0
LINE
  8
21
 10
13.4764
 20
13.9374
 30
0.0000
 11
13.4764
 21
14.2987
 31
0.0000
  0
ARC
  8
21
 10
13.8376
 20
14.2987
 30
0.0000
 40
0.3612
 50
0.0000
 51
180.0000
  0
LINE
  8
21
 10
14.1989
 20
14.2987
 30
0.0000
 11
14.1989
 21
13.9374
 31
0.0000
  0
ARC
  8
21
 10
13.8376
 20
13.9374
 30
0.0000
 40
0.3612
 50
180.0000
 51
0.0000
  0
LINE
  8
21
 10
14.9110
 20
13.5762
 30
0.0000
 11
14.9110
 21
14.6599
 31
0.0000
  0
LINE
  8
21
 10
14.9110
 20
14.6599
 30
0.0000
 11
15.7238
 21
14.6599
 31
0.0000
  0
ARC
  8
21
 10
15.7238
 20
14.3890
 30
0.0000
 40
0.2709
 50
0.0000
 51
90.0000
  0
LINE
  8
21
 10
15.9947
 20
14.3890
 30
0.0000
 11
15.9947
 21
13.5762
 31
0.0000
  0
LINE
  8
21
 10
15.4528
 20
13.5762
 30
0.0000
 11
15.4528
 21
14.6599
 31
0.0000
  0
LINE
  8
21
 10
16.7867
 20
13.5762
 30
0.0000
 11
16.7867
 21
14.6599
 31
0.0000
  0
LINE
  8
21
 10
16.7867
 20
14.6599
 30
0.0000
 11
17.5995
 21
14.6599
 31
0.0000
  0
ARC
  8
21
 10
17.5995
 20
14.3890
 30
0.0000
 40
0.2709
 50
0.0000
 51
90.0000
  0
LINE
  8
21
 10
17.8705
 20
14.3890
 30
0.0000
 11
17.8705
 21
13.5762
 31
0.0000
  0
LINE
  8
21
 10
17.3286
 20
13.5762
 30
0.0000
 11
17.3286
 21
14.6599
 31
0.0000
  0
LINE
  8
21
 10
18.5826
 20
13.9374
 30
0.0000
 11
18.5826
 21
14.2987
 31
0.0000
  0
ARC
  8
21
 10
18.9438
 20
14.2987
 30
0.0000
 40
0.3612
 50
0.0000
 51
180.0000
  0
LINE
  8
21
 10
19.3051
 20
14.2987
 30
0.0000
 11
19.3051
 21
13.9374
 31
0.0000
  0
ARC
  8
21
 10
18.9438
 20
13.9374
 30
0.0000
 40
0.3612
 50
180.0000
 51
0.0000
  0
LINE
  8
21
 10
20.6524
 20
15.2018
 30
0.0000
 11
20.6524
 21
13.5762
 31
0.0000
  0
LINE
  8
21
 10
20.6524
 20
13.5762
 30
0.0000
 11
20.2009
 21
13.5762
 31
0.0000
  0
ARC
  8
21
 10
20.2009
 20
13.8471
 30
0.0000
 40
0.2709
 50
180.0000
 51
270.0000
  0
LINE
  8
21
 10
19.9300
 20
13.8471
 30
0.0000
 11
19.9300
 21
14.3890
 31
0.0000
  0
ARC
  8
21
 10
20.2009
 20
14.3890
 30
0.0000
 40
0.2709
 50
90.0000
 51
180.0000
  0
LINE
  8
21
 10
20.2009
 20
14.6599
 30
0.0000
 11
20.6524
 21
14.6599
 31
0.0000
  0
LINE
  8
21
 10
21.3441
 20
13.9374
 30
0.0000
 11
21.3441
 21
14.2987
 31
0.0000
  0
ARC
  8
21
 10
21.7053
 20
14.2987
 30
0.0000
 40
0.3612
 50
0.0000
 51
180.0000
  0
LINE
  8
21
 10
22.0666
 20
14.2987
 30
0.0000
 11
22.0666
 21
13.9374
 31
0.0000
  0
ARC
  8
21
 10
21.7053
 20
13.9374
 30
0.0000
 40
0.3612
 50
180.0000
 51
0.0000
  0
LINE
  8
21
 10
22.7594
 20
13.5762
 30
0.0000
 11
22.7594
 21
14.6599
 31
0.0000
  0
LINE
  8
21
 10
22.7594
 20
14.6599
 30
0.0000
 11
23.3012
 21
14.6599
 31
0.0000
  0
LINE
  8
21
 10
23.3012
 20
14.6599
 30
0.0000
 11
23.3012
 21
14.4793
 31
0.0000
  0
LINE
  8
21
 10
24.5155
 20
13.5762
 30
0.0000
 11
24.0639
 21
13.5762
 31
0.0000
  0
ARC
  8
21
 10
24.0639
 20
13.8471
 30
0.0000
 40
0.2709
 50
180.0000
 51
270.0000
  0
LINE
  8
21
 10
23.7930
 20
13.8471
 30
0.0000
 11
23.7930
 21
14.2987
 31
0.0000
  0
ARC
  8
21
 10
24.1542
 20
14.2987
 30
0.0000
 40
0.3612
 50
0.0000
 51
180.0000
  0
LINE
  8
21
 10
24.5155
 20
14.2987
 30
0.0000
 11
24.5155
 21
14.1181
 31
0.0000
  0
LINE
  8
21
 10
24.5155
 20
14.1181
 30
0.0000
 11
23.7930
 21
14.1181
 31
0.0000
  0
LINE
  8
21
 10
26.0684
 20
13.5762
 30
0.0000
 11
26.0684
 21
15.2018
 31
0.0000
  0
LINE
  8
21
 10
26.0684
 20
15.2018
 30
0.0000
 11
26.5200
 21
15.2018
 31
0.0000
  0
ARC
  8
21
 10
26.5200
 20
14.7502
 30
0.0000
 40
0.4516
 50
270.0000
 51
90.0000
  0
LINE
  8
21
 10
26.5200
 20
14.2987
 30
0.0000
 11
26.0684
 21
14.2987
 31
0.0000
  0
LINE
  8
21
 10
27.5445
 20
13.9374
 30
0.0000
 11
27.5445
 21
14.2987
 31
0.0000
  0
ARC
  8
21
 10
27.9057
 20
14.2987
 30
0.0000
 40
0.3612
 50
0.0000
 51
180.0000
  0
LINE
  8
21
 10
28.2670
 20
14.2987
 30
0.0000
 11
28.2670
 21
13.9374
 31
0.0000
  0
ARC
  8
21
 10
27.9057
 20
13.9374
 30
0.0000
 40
0.3612
 50
180.0000
 51
0.0000
  0
LINE
  8
21
 10
28.9598
 20
13.5762
 30
0.0000
 11
28.9598
 21
14.6599
 31
0.0000
  0
LINE
  8
21
 10
28.9598
 20
14.6599
 30
0.0000
 11
29.5016
 21
14.6599
 31
0.0000
  0
LINE
  8
21
 10
29.5016
 20
14.6599
 30
0.0000
 11
29.5016
 21
14.4793
 31
0.0000
  0
LINE
  8
21
 10
29.8636
 20
14.6599
 30
0.0000
 11
30.4055
 21
14.6599
 31
0.0000
  0
LINE
  8
21
 10
30.0443
 20
15.2018
 30
0.0000
 11
30.0443
 21
13.8471
 31
0.0000
  0
ARC
  8
21
 10
30.3152
 20
13.8471
 30
0.0000
 40
0.2709
 50
180.0000
 51
270.0000
  0
LINE
  8
21
 10
30.3152
 20
13.5762
 30
0.0000
 11
30.4055
 21
13.5762
 31
0.0000
  0
LINE
  8
21
 10
31.9041
 20
14.4793
 30
0.0000
 11
32.3557
 21
14.4793
 31
0.0000
  0
ARC
  8
21
 10
32.3557
 20
14.0278
 30
0.0000
 40
0.4516
 50
270.0000
 51
90.0000
  0
LINE
  8
21
 10
32.3557
 20
13.5762
 30
0.0000
 11
31.9041
 21
13.5762
 31
0.0000
  0
LINE
  8
21
 10
31.9041
 20
13.5762
 30
0.0000
 11
31.9041
 21
15.2018
 31
0.0000
  0
LINE
  8
21
 10
31.9041
 20
15.2018
 30
0.0000
 11
32.3557
 21
15.2018
 31
0.0000
  0
ARC
  8
21
 10
32.3557
 20
14.8406
 30
0.0000
 40
0.3612
 50
270.0000
 51
90.0000
  0
LINE
  8
21
 10
33.4407
 20
13.5762
 30
0.0000
 11
33.4407
 21
14.6599
 31
0.0000
  0
LINE
  8
21
 10
33.4407
 20
14.6599
 30
0.0000
 11
33.9826
 21
14.6599
 31
0.0000
  0
LINE
  8
21
 10
33.9826
 20
14.6599
 30
0.0000
 11
33.9826
 21
14.4793
 31
0.0000
  0
LINE
  8
21
 10
35.1968
 20
13.5762
 30
0.0000
 11
34.7452
 21
13.5762
 31
0.0000
  0
ARC
  8
21
 10
34.7452
 20
13.8471
 30
0.0000
 40
0.2709
 50
180.0000
 51
270.0000
  0
LINE
  8
21
 10
34.4743
 20
13.8471
 30
0.0000
 11
34.4743
 21
14.2987
 31
0.0000
  0
ARC
  8
21
 10
34.8356
 20
14.2987
 30
0.0000
 40
0.3612
 50
0.0000
 51
180.0000
  0
LINE
  8
21
 10
35.1968
 20
14.2987
 30
0.0000
 11
35.1968
 21
14.1181
 31
0.0000
  0
LINE
  8
21
 10
35.1968
 20
14.1181
 30
0.0000
 11
34.4743
 21
14.1181
 31
0.0000
  0
LINE
  8
21
 10
36.5442
 20
14.2084
 30
0.0000
 11
36.1378
 21
14.2084
 31
0.0000
  0
ARC
  8
21
 10
36.1378
 20
13.8923
 30
0.0000
 40
0.3161
 50
90.0000
 51
270.0000
  0
LINE
  8
21
 10
36.1378
 20
13.5762
 30
0.0000
 11
36.5442
 21
13.5762
 31
0.0000
  0
LINE
  8
21
 10
36.5442
 20
13.5762
 30
0.0000
 11
36.5442
 21
14.3890
 31
0.0000
  0
ARC
  8
21
 10
36.2732
 20
14.3890
 30
0.0000
 40
0.2709
 50
0.0000
 51
90.0000
  0
LINE
  8
21
 10
36.2732
 20
14.6599
 30
0.0000
 11
35.9120
 21
14.6599
 31
0.0000
  0
LINE
  8
21
 10
37.3048
 20
13.5762
 30
0.0000
 11
37.3048
 21
15.2018
 31
0.0000
  0
LINE
  8
21
 10
38.0273
 20
14.6599
 30
0.0000
 11
37.3048
 21
14.1181
 31
0.0000
  0
LINE
  8
21
 10
38.0273
 20
13.5762
 30
0.0000
 11
37.6209
 21
14.3438
 31
0.0000
  0
LINE
  8
21
 10
38.5905
 20
13.9374
 30
0.0000
 11
38.5905
 21
14.2987
 31
0.0000
  0
ARC
  8
21
 10
38.9518
 20
14.2987
 30
0.0000
 40
0.3612
 50
0.0000
 51
180.0000
  0
LINE
  8
21
 10
39.3130
 20
14.2987
 30
0.0000
 11
39.3130
 21
13.9374
 31
0.0000
  0
ARC
  8
21
 10
38.9518
 20
13.9374
 30
0.0000
 40
0.3612
 50
180.0000
 51
0.0000
  0
LINE
  8
21
 10
39.9973
 20
14.6599
 30
0.0000
 11
39.9973
 21
13.8471
 31
0.0000
  0
ARC
  8
21
 10
40.2683
 20
13.8471
 30
0.0000
 40
0.2709
 50
180.0000
 51
270.0000
  0
LINE
  8
21
 10
40.2683
 20
13.5762
 30
0.0000
 11
40.7198
 21
13.5762
 31
0.0000
  0
LINE
  8
21
 10
40.7198
 20
13.5762
 30
0.0000
 11
40.7198
 21
14.6599
 31
0.0000
  0
LINE
  8
21
 10
41.2744
 20
14.6599
 30
0.0000
 11
41.8163
 21
14.6599
 31
0.0000
  0
LINE
  8
21
 10
41.4550
 20
15.2018
 30
0.0000
 11
41.4550
 21
13.8471
 31
0.0000
  0
ARC
  8
21
 10
41.7260
 20
13.8471
 30
0.0000
 40
0.2709
 50
180.0000
 51
270.0000
  0
LINE
  8
21
 10
41.7260
 20
13.5762
 30
0.0000
 11
41.8163
 21
13.5762
 31
0.0000
  0
LINE
  8
21
 10
13.3738
 20
12.6764
 30
0.0000
 11
13.3738
 21
11.1016
 31
0.0000
  0
LINE
  8
21
 10
13.1988
 20
11.1016
 30
0.0000
 11
13.5488
 21
11.1016
 31
0.0000
  0
LINE
  8
21
 10
13.1988
 20
12.6764
 30
0.0000
 11
13.5488
 21
12.6764
 31
0.0000
  0
LINE
  8
21
 10
14.9425
 20
11.1016
 30
0.0000
 11
14.2425
 21
11.1016
 31
0.0000
  0
LINE
  8
21
 10
14.2425
 20
11.1016
 30
0.0000
 11
14.2425
 21
12.6764
 31
0.0000
  0
LINE
  8
21
 10
14.2425
 20
12.6764
 30
0.0000
 11
14.9425
 21
12.6764
 31
0.0000
  0
LINE
  8
21
 10
14.2425
 20
11.9765
 30
0.0000
 11
14.7675
 21
11.9765
 31
0.0000
  0
LINE
  8
21
 10
16.2972
 20
11.1016
 30
0.0000
 11
15.5973
 21
11.1016
 31
0.0000
  0
LINE
  8
21
 10
15.5973
 20
11.1016
 30
0.0000
 11
15.5973
 21
12.6764
 31
0.0000
  0
LINE
  8
21
 10
15.5973
 20
12.6764
 30
0.0000
 11
16.2972
 21
12.6764
 31
0.0000
  0
LINE
  8
21
 10
15.5973
 20
11.9765
 30
0.0000
 11
16.1222
 21
11.9765
 31
0.0000
  0
LINE
  8
21
 10
17.6519
 20
11.1016
 30
0.0000
 11
16.9520
 21
11.1016
 31
0.0000
  0
LINE
  8
21
 10
16.9520
 20
11.1016
 30
0.0000
 11
16.9520
 21
12.6764
 31
0.0000
  0
LINE
  8
21
 10
16.9520
 20
12.6764
 30
0.0000
 11
17.6519
 21
12.6764
 31
0.0000
  0
LINE
  8
21
 10
16.9520
 20
11.9765
 30
0.0000
 11
17.4769
 21
11.9765
 31
0.0000
  0
LINE
  8
21
 10
18.2677
 20
11.7140
 30
0.0000
 11
19.3176
 21
11.7140
 31
0.0000
  0
LINE
  8
21
 10
20.3725
 20
12.6764
 30
0.0000
 11
20.0225
 21
11.4516
 31
0.0000
  0
LINE
  8
21
 10
20.0225
 20
11.4516
 30
0.0000
 11
20.8974
 21
11.4516
 31
0.0000
  0
LINE
  8
21
 10
20.6349
 20
11.8015
 30
0.0000
 11
20.6349
 21
11.1016
 31
0.0000
  0
ARC
  8
21
 10
22.0231
 20
11.5390
 30
0.0000
 40
0.4374
 50
0.0000
 51
180.0000
  0
ARC
  8
21
 10
22.0231
 20
11.5390
 30
0.0000
 40
0.4374
 50
180.0000
 51
0.0000
  0
ARC
  8
21
 10
22.0231
 20
12.3264
 30
0.0000
 40
0.3500
 50
0.0000
 51
180.0000
  0
ARC
  8
21
 10
22.0231
 20
12.3264
 30
0.0000
 40
0.3500
 50
180.0000
 51
0.0000
  0
ARC
  8
21
 10
23.5862
 20
11.5390
 30
0.0000
 40
0.4374
 50
0.0000
 51
180.0000
  0
ARC
  8
21
 10
23.5862
 20
11.5390
 30
0.0000
 40
0.4374
 50
180.0000
 51
0.0000
  0
ARC
  8
21
 10
23.5862
 20
12.3264
 30
0.0000
 40
0.3500
 50
0.0000
 51
180.0000
  0
ARC
  8
21
 10
23.5862
 20
12.3264
 30
0.0000
 40
0.3500
 50
180.0000
 51
0.0000
  0
LINE
  8
21
 10
25.5456
 20
11.5390
 30
0.0000
 11
25.5456
 21
12.2390
 31
0.0000
  0
ARC
  8
21
 10
25.9830
 20
12.2390
 30
0.0000
 40
0.4374
 50
0.0000
 51
180.0000
  0
LINE
  8
21
 10
26.4204
 20
12.2390
 30
0.0000
 11
26.4204
 21
11.5390
 31
0.0000
  0
ARC
  8
21
 10
25.9830
 20
11.5390
 30
0.0000
 40
0.4374
 50
180.0000
 51
0.0000
  0
LINE
  8
21
 10
27.1441
 20
12.1515
 30
0.0000
 11
27.1441
 21
11.3641
 31
0.0000
  0
ARC
  8
21
 10
27.4065
 20
11.3641
 30
0.0000
 40
0.2625
 50
180.0000
 51
270.0000
  0
LINE
  8
21
 10
27.4065
 20
11.1016
 30
0.0000
 11
27.8440
 21
11.1016
 31
0.0000
  0
LINE
  8
21
 10
27.8440
 20
11.1016
 30
0.0000
 11
27.8440
 21
12.1515
 31
0.0000
  0
LINE
  8
21
 10
28.4160
 20
12.1515
 30
0.0000
 11
28.9409
 21
12.1515
 31
0.0000
  0
LINE
  8
21
 10
28.5909
 20
12.6764
 30
0.0000
 11
28.5909
 21
11.3641
 31
0.0000
  0
ARC
  8
21
 10
28.8534
 20
11.3641
 30
0.0000
 40
0.2625
 50
180.0000
 51
270.0000
  0
LINE
  8
21
 10
28.8534
 20
11.1016
 30
0.0000
 11
28.9409
 21
11.1016
 31
0.0000
  0
LINE
  8
21
 10
29.6018
 20
10.5767
 30
0.0000
 11
29.6018
 21
12.1515
 31
0.0000
  0
LINE
  8
21
 10
29.6018
 20
12.1515
 30
0.0000
 11
30.0392
 21
12.1515
 31
0.0000
  0
ARC
  8
21
 10
30.0392
 20
11.8890
 30
0.0000
 40
0.2625
 50
0.0000
 51
90.0000
  0
LINE
  8
21
 10
30.3017
 20
11.8890
 30
0.0000
 11
30.3017
 21
11.3641
 31
0.0000
  0
ARC
  8
21
 10
30.0392
 20
11.3641
 30
0.0000
 40
0.2625
 50
270.0007
 51
0.0000
  0
LINE
  8
21
 10
30.0392
 20
11.1016
 30
0.0000
 11
29.6018
 21
11.1016
 31
0.0000
  0
LINE
  8
21
 10
30.9998
 20
12.1515
 30
0.0000
 11
30.9998
 21
11.3641
 31
0.0000
  0
ARC
  8
21
 10
31.2622
 20
11.3641
 30
0.0000
 40
0.2625
 50
180.0000
 51
270.0000
  0
LINE
  8
21
 10
31.2622
 20
11.1016
 30
0.0000
 11
31.6997
 21
11.1016
 31
0.0000
  0
LINE
  8
21
 10
31.6997
 20
11.1016
 30
0.0000
 11
31.6997
 21
12.1515
 31
0.0000
  0
LINE
  8
21
 10
32.2717
 20
12.1515
 30
0.0000
 11
32.7966
 21
12.1515
 31
0.0000
  0
LINE
  8
21
 10
32.4466
 20
12.6764
 30
0.0000
 11
32.4466
 21
11.3641
 31
0.0000
  0
ARC
  8
21
 10
32.7091
 20
11.3641
 30
0.0000
 40
0.2625
 50
180.0000
 51
270.0000
  0
LINE
  8
21
 10
32.7091
 20
11.1016
 30
0.0000
 11
32.7966
 21
11.1016
 31
0.0000
  0
LINE
  8
21
 10
34.3101
 20
11.1016
 30
0.0000
 11
34.3101
 21
12.6764
 31
0.0000
  0
LINE
  8
21
 10
34.3101
 20
12.6764
 30
0.0000
 11
34.7475
 21
12.6764
 31
0.0000
  0
ARC
  8
21
 10
34.7475
 20
12.2390
 30
0.0000
 40
0.4374
 50
270.0000
 51
90.0000
  0
LINE
  8
21
 10
34.7475
 20
11.8015
 30
0.0000
 11
34.3101
 21
11.8015
 31
0.0000
  0
LINE
  8
21
 10
35.1850
 20
11.1016
 30
0.0000
 11
34.8350
 21
11.8015
 31
0.0000
  0
LINE
  8
21
 10
36.5454
 20
11.1016
 30
0.0000
 11
36.1079
 21
11.1016
 31
0.0000
  0
ARC
  8
21
 10
36.1079
 20
11.3641
 30
0.0000
 40
0.2625
 50
180.0000
 51
270.0000
  0
LINE
  8
21
 10
35.8455
 20
11.3641
 30
0.0000
 11
35.8455
 21
11.8015
 31
0.0000
  0
ARC
  8
21
 10
36.1954
 20
11.8015
 30
0.0000
 40
0.3500
 50
0.0000
 51
180.0000
  0
LINE
  8
21
 10
36.5454
 20
11.8015
 30
0.0000
 11
36.5454
 21
11.6265
 31
0.0000
  0
LINE
  8
21
 10
36.5454
 20
11.6265
 30
0.0000
 11
35.8455
 21
11.6265
 31
0.0000
  0
LINE
  8
21
 10
37.1481
 20
12.1515
 30
0.0000
 11
37.4980
 21
11.1016
 31
0.0000
  0
LINE
  8
21
 10
37.4980
 20
11.1016
 30
0.0000
 11
37.8480
 21
12.1515
 31
0.0000
  0
LINE
  8
21
 10
38.3921
 20
11.1016
 30
0.0000
 11
38.3921
 21
11.1891
 31
0.0000
  0
LINE
  8
21
 10
38.3921
 20
11.1891
 30
0.0000
 11
38.4796
 21
11.1891
 31
0.0000
  0
LINE
  8
21
 10
38.4796
 20
11.1891
 30
0.0000
 11
38.4796
 21
11.1016
 31
0.0000
  0
LINE
  8
21
 10
38.4796
 20
11.1016
 30
0.0000
 11
38.3921
 21
11.1016
 31
0.0000
  0
ARC
  8
21
 10
41.2240
 20
11.8890
 30
0.0000
 40
1.2978
 50
154.0111
 51
180.0000
  0
ARC
  8
21
 10
40.3637
 20
12.3527
 30
0.0000
 40
0.3237
 50
90.0000
 51
161.0758
  0
ARC
  8
21
 10
40.3637
 20
12.3527
 30
0.0000
 40
0.3237
 50
18.9235
 51
90.0002
  0
ARC
  8
21
 10
39.5034
 20
11.8890
 30
0.0000
 40
1.2977
 50
0.0000
 51
25.9895
  0
ARC
  8
21
 10
41.2241
 20
11.8890
 30
0.0000
 40
1.2978
 50
180.0001
 51
205.9888
  0
ARC
  8
21
 10
40.3637
 20
11.4253
 30
0.0000
 40
0.3237
 50
198.9248
 51
270.0001
  0
ARC
  8
21
 10
39.5034
 20
11.8890
 30
0.0000
 40
1.2978
 50
334.0107
 51
359.9999
  0
ARC
  8
21
 10
40.3637
 20
11.4253
 30
0.0000
 40
0.3237
 50
270.0000
 51
341.0761
  0
LINE
  8
21
 10
40.0138
 20
11.4516
 30
0.0000
 11
40.7137
 21
12.3264
 31
0.0000
  0
CIRCLE
  8
20
 10
3.0000
 20
5.0000
 30
0.0000
 40
1.7500
  0
CIRCLE
  8
20
 10
51.0000
 20
5.0000
 30
0.0000
 40
1.7500
  0
LINE
  8
21
 10
47.3200
 20
0.3962
 30
0.0000
 11
6.6800
 21
0.3962
 31
0.0000
  0
LINE
  8
21
 10
6.6800
 20
0.3962
 30
0.0000
 11
6.6800
 21
1.8250
 31
0.0000
  0
LINE
  8
21
 10
6.6800
 20
1.8250
 30
0.0000
 11
6.6800
 21
3.2537
 31
0.0000
  0
LINE
  8
21
 10
6.6800
 20
3.2537
 30
0.0000
 11
6.6800
 21
9.6038
 31
0.0000
  0
LINE
  8
21
 10
6.6800
 20
9.6038
 30
0.0000
 11
24.9362
 21
9.6038
 31
0.0000
  0
LINE
  8
21
 10
24.9362
 20
9.6038
 30
0.0000
 11
29.0638
 21
9.6038
 31
0.0000
  0
LINE
  8
21
 10
29.0638
 20
9.6038
 30
0.0000
 11
47.3200
 21
9.6038
 31
0.0000
  0
LINE
  8
21
 10
47.3200
 20
9.6038
 30
0.0000
 11
47.3200
 21
3.2537
 31
0.0000
  0
LINE
  8
21
 10
47.3200
 20
3.2537
 30
0.0000
 11
47.3200
 21
1.8250
 31
0.0000
  0
LINE
  8
21
 10
47.3200
 20
1.8250
 30
0.0000
 11
47.3200
 21
0.3962
 31
0.0000
  0
LINE
  8
21
 10
46.0500
 20
1.6662
 30
0.0000
 11
7.9500
 21
1.6662
 31
0.0000
  0
LINE
  8
21
 10
7.9500
 20
1.6662
 30
0.0000
 11
7.9500
 21
1.8250
 31
0.0000
  0
LINE
  8
21
 10
7.9500
 20
1.8250
 30
0.0000
 11
7.9500
 21
3.2537
 31
0.0000
  0
LINE
  8
21
 10
7.9500
 20
3.2537
 30
0.0000
 11
7.9500
 21
8.3338
 31
0.0000
  0
LINE
  8
21
 10
7.9500
 20
8.3338
 30
0.0000
 11
24.9362
 21
8.3338
 31
0.0000
  0
LINE
  8
21
 10
24.9362
 20
8.3338
 30
0.0000
 11
29.0638
 21
8.3338
 31
0.0000
  0
LINE
  8
21
 10
29.0638
 20
8.3338
 30
0.0000
 11
46.0500
 21
8.3338
 31
0.0000
  0
LINE
  8
21
 10
46.0500
 20
8.3338
 30
0.0000
 11
46.0500
 21
3.2537
 31
0.0000
  0
LINE
  8
21
 10
46.0500
 20
3.2537
 30
0.0000
 11
46.0500
 21
1.8250
 31
0.0000
  0
LINE
  8
21
 10
46.0500
 20
1.8250
 30
0.0000
 11
46.0500
 21
1.6662
 31
0.0000
  0
LINE
  8
21
 10
29.0638
 20
8.3338
 30
0.0000
 11
29.0638
 21
8.8100
 31
0.0000
  0
LINE
  8
21
 10
29.0638
 20
8.8100
 30
0.0000
 11
29.0638
 21
9.6038
 31
0.0000
  0
LINE
  8
21
 10
24.9362
 20
8.3338
 30
0.0000
 11
24.9362
 21
8.8100
 31
0.0000
  0
LINE
  8
21
 10
24.9362
 20
8.8100
 30
0.0000
 11
24.9362
 21
9.6038
 31
0.0000
  0
LINE
  8
21
 10
7.9500
 20
1.8250
 30
0.0000
 11
7.4737
 21
1.8250
 31
0.0000
  0
LINE
  8
21
 10
7.4737
 20
1.8250
 30
0.0000
 11
6.6800
 21
1.8250
 31
0.0000
  0
LINE
  8
21
 10
46.0500
 20
1.8250
 30
0.0000
 11
46.5263
 21
1.8250
 31
0.0000
  0
LINE
  8
21
 10
46.5263
 20
1.8250
 30
0.0000
 11
47.3200
 21
1.8250
 31
0.0000
  0
LINE
  8
21
 10
46.0500
 20
3.2537
 30
0.0000
 11
46.5263
 21
3.2537
 31
0.0000
  0
LINE
  8
21
 10
46.5263
 20
3.2537
 30
0.0000
 11
47.3200
 21
3.2537
 31
0.0000
  0
LINE
  8
21
 10
7.9500
 20
3.2537
 30
0.0000
 11
7.4737
 21
3.2537
 31
0.0000
  0
LINE
  8
21
 10
7.4737
 20
3.2537
 30
0.0000
 11
6.6800
 21
3.2537
 31
0.0000
  0
LINE
  8
21
 10
46.5263
 20
1.1900
 30
0.0000
 11
7.4737
 21
1.1900
 31
0.0000
  0
LINE
  8
21
 10
24.9362
 20
8.8100
 30
0.0000
 11
7.4737
 21
8.8100
 31
0.0000
  0
LINE
  8
21
 10
7.4737
 20
3.2537
 30
0.0000
 11
7.4737
 21
8.8100
 31
0.0000
  0
LINE
  8
21
 10
46.5263
 20
1.1900
 30
0.0000
 11
46.5263
 21
1.8250
 31
0.0000
  0
LINE
  8
21
 10
46.5263
 20
3.2537
 30
0.0000
 11
46.5263
 21
8.8100
 31
0.0000
  0
LINE
  8
21
 10
29.0638
 20
8.8100
 30
0.0000
 11
46.5263
 21
8.8100
 31
0.0000
  0
LINE
  8
21
 10
7.4737
 20
1.8250
 30
0.0000
 11
7.4737
 21
1.1900
 31
0.0000
  0
LINE
  8
21
 10
7.9500
 20
8.3338
 30
0.0000
 11
7.4737
 21
8.8100
 31
0.0000
  0
LINE
  8
21
 10
7.9500
 20
1.6662
 30
0.0000
 11
7.4737
 21
1.1900
 31
0.0000
  0
LINE
  8
21
 10
46.5263
 20
1.1900
 30
0.0000
 11
46.0500
 21
1.6662
 31
0.0000
  0
LINE
  8
21
 10
46.5263
 20
8.8100
 30
0.0000
 11
46.0500
 21
8.3338
 31
0.0000
  0
ARC
  8
21
 10
45.4150
 20
0.3962
 30
0.0000
 40
0.6350
 50
180.0000
 51
0.0000
  0
ARC
  8
21
 10
8.5850
 20
0.3962
 30
0.0000
 40
0.6350
 50
180.0000
 51
0.0000
  0
ARC
  8
21
 10
27.0794
 20
0.3962
 30
0.0000
 40
0.5556
 50
180.0000
 51
0.0000
  0
LINE
  8
21
 10
42.2400
 20
7.3812
 30
0.0000
 11
42.8750
 21
8.0162
 31
0.0000
  0
LINE
  8
21
 10
42.8750
 20
8.0162
 30
0.0000
 11
42.7163
 21
8.0162
 31
0.0000
  0
LINE
  8
21
 10
41.9225
 20
8.0162
 30
0.0000
 11
41.7638
 21
8.0162
 31
0.0000
  0
LINE
  8
21
 10
41.7638
 20
8.0162
 30
0.0000
 11
41.6050
 21
8.0162
 31
0.0000
  0
LINE
  8
21
 10
41.6050
 20
8.0162
 30
0.0000
 11
42.2400
 21
7.3812
 31
0.0000
  0
LINE
  8
21
 10
41.7638
 20
8.0162
 30
0.0000
 11
42.2400
 21
7.5400
 31
0.0000
  0
LINE
  8
21
 10
42.2400
 20
7.5400
 30
0.0000
 11
42.7163
 21
8.0162
 31
0.0000
  0
LINE
  8
21
 10
42.7163
 20
8.0162
 30
0.0000
 11
42.5575
 21
8.0162
 31
0.0000
  0
LINE
  8
21
 10
42.0813
 20
8.0162
 30
0.0000
 11
41.9225
 21
8.0162
 31
0.0000
  0
LINE
  8
21
 10
41.9225
 20
8.0162
 30
0.0000
 11
42.2400
 21
7.6987
 31
0.0000
  0
LINE
  8
21
 10
42.2400
 20
7.6987
 30
0.0000
 11
42.5575
 21
8.0162
 31
0.0000
  0
LINE
  8
21
 10
42.5575
 20
8.0162
 30
0.0000
 11
42.3988
 21
8.0162
 31
0.0000
  0
LINE
  8
21
 10
42.3988
 20
8.0162
 30
0.0000
 11
42.0813
 21
8.0162
 31
0.0000
  0
LINE
  8
21
 10
42.0813
 20
8.0162
 30
0.0000
 11
42.2400
 21
7.8575
 31
0.0000
  0
LINE
  8
21
 10
42.2400
 20
7.8575
 30
0.0000
 11
42.3988
 21
8.0162
 31
0.0000
  0
INSERT
  8
51
  2
RECT
 10
42.2400
 20
6.2700
 30
0.0000
 41
0.5080
 42
0.5080
 43
1.0000
 50
180.0000
  0
INSERT
  8
51
  2
RECT
 10
42.2400
 20
3.7300
 30
0.0000
 41
0.5080
 42
0.5080
 43
1.0000
 50
180.0000
  0
INSERT
  8
51
  2
RECT
 10
39.7000
 20
3.7300
 30
0.0000
 41
0.5080
 42
0.5080
 43
1.0000
 50
180.0000
  0
INSERT
  8
51
  2
RECT
 10
39.7000
 20
6.2700
 30
0.0000
 41
0.5080
 42
0.5080
 43
1.0000
 50
180.0000
  0
INSERT
  8
51
  2
RECT
 10
37.1600
 20
3.7300
 30
0.0000
 41
0.5080
 42
0.5080
 43
1.0000
 50
180.0000
  0
INSERT
  8
51
  2
RECT
 10
37.1600
 20
6.2700
 30
0.0000
 41
0.5080
 42
0.5080
 43
1.0000
 50
180.0000
  0
INSERT
  8
51
  2
RECT
 10
34.6200
 20
3.7300
 30
0.0000
 41
0.5080
 42
0.5080
 43
1.0000
 50
180.0000
  0
INSERT
  8
51
  2
RECT
 10
34.6200
 20
6.2700
 30
0.0000
 41
0.5080
 42
0.5080
 43
1.0000
 50
180.0000
  0
INSERT
  8
51
  2
RECT
 10
32.0800
 20
3.7300
 30
0.0000
 41
0.5080
 42
0.5080
 43
1.0000
 50
180.0000
  0
INSERT
  8
51
  2
RECT
 10
32.0800
 20
6.2700
 30
0.0000
 41
0.5080
 42
0.5080
 43
1.0000
 50
180.0000
  0
INSERT
  8
51
  2
RECT
 10
29.5400
 20
3.7300
 30
0.0000
 41
0.5080
 42
0.5080
 43
1.0000
 50
180.0000
  0
INSERT
  8
51
  2
RECT
 10
29.5400
 20
6.2700
 30
0.0000
 41
0.5080
 42
0.5080
 43
1.0000
 50
180.0000
  0
INSERT
  8
51
  2
RECT
 10
27.0000
 20
3.7300
 30
0.0000
 41
0.5080
 42
0.5080
 43
1.0000
 50
180.0000
  0
INSERT
  8
51
  2
RECT
 10
27.0000
 20
6.2700
 30
0.0000
 41
0.5080
 42
0.5080
 43
1.0000
 50
180.0000
  0
INSERT
  8
51
  2
RECT
 10
24.4600
 20
3.7300
 30
0.0000
 41
0.5080
 42
0.5080
 43
1.0000
 50
180.0000
  0
INSERT
  8
51
  2
RECT
 10
24.4600
 20
6.2700
 30
0.0000
 41
0.5080
 42
0.5080
 43
1.0000
 50
180.0000
  0
INSERT
  8
51
  2
RECT
 10
21.9200
 20
3.7300
 30
0.0000
 41
0.5080
 42
0.5080
 43
1.0000
 50
180.0000
  0
INSERT
  8
51
  2
RECT
 10
21.9200
 20
6.2700
 30
0.0000
 41
0.5080
 42
0.5080
 43
1.0000
 50
180.0000
  0
INSERT
  8
51
  2
RECT
 10
19.3800
 20
3.7300
 30
0.0000
 41
0.5080
 42
0.5080
 43
1.0000
 50
180.0000
  0
INSERT
  8
51
  2
RECT
 10
19.3800
 20
6.2700
 30
0.0000
 41
0.5080
 42
0.5080
 43
1.0000
 50
180.0000
  0
INSERT
  8
51
  2
RECT
 10
16.8400
 20
3.7300
 30
0.0000
 41
0.5080
 42
0.5080
 43
1.0000
 50
180.0000
  0
INSERT
  8
51
  2
RECT
 10
16.8400
 20
6.2700
 30
0.0000
 41
0.5080
 42
0.5080
 43
1.0000
 50
180.0000
  0
INSERT
  8
51
  2
RECT
 10
14.3000
 20
3.7300
 30
0.0000
 41
0.5080
 42
0.5080
 43
1.0000
 50
180.0000
  0
INSERT
  8
51
  2
RECT
 10
14.3000
 20
6.2700
 30
0.0000
 41
0.5080
 42
0.5080
 43
1.0000
 50
180.0000
  0
INSERT
  8
51
  2
RECT
 10
11.7600
 20
3.7300
 30
0.0000
 41
0.5080
 42
0.5080
 43
1.0000
 50
180.0000
  0
INSERT
  8
51
  2
RECT
 10
11.7600
 20
6.2700
 30
0.0000
 41
0.5080
 42
0.5080
 43
1.0000
 50
180.0000
  0
LINE
  8
20
 10
49.8800
 20
27.0000
 30
0.0000
 11
44.4400
 21
27.0000
 31
0.0000
  0
ARC
  8
20
 10
44.4400
 20
26.2000
 30
0.0000
 40
0.8000
 50
90.0000
 51
180.0000
  0
LINE
  8
20
 10
43.6400
 20
26.2000
 30
0.0000
 11
43.6400
 21
17.0000
 31
0.0000
  0
LINE
  8
20
 10
42.0400
 20
17.0000
 30
0.0000
 11
42.0400
 21
26.2000
 31
0.0000
  0
ARC
  8
20
 10
41.2400
 20
26.2000
 30
0.0000
 40
0.8000
 50
0.0000
 51
90.0000
  0
LINE
  8
20
 10
41.2400
 20
27.0000
 30
0.0000
 11
16.7200
 21
27.0000
 31
0.0000
  0
LINE
  8
20
 10
49.8800
 20
27.0000
 30
0.0000
 11
51.5000
 21
27.0000
 31
0.0000
  0
ARC
  8
20
 10
42.8400
 20
17.0000
 30
0.0000
 40
0.8000
 50
270.0000
 51
0.0000
  0
ARC
  8
20
 10
42.8400
 20
17.0000
 30
0.0000
 40
0.8000
 50
180.0000
 51
270.0000
  0
ARC
  8
20
 10
16.7200
 20
26.2000
 30
0.0000
 40
0.8000
 50
90.0000
 51
180.0000
  0
LINE
  8
20
 10
15.9200
 20
26.2000
 30
0.0000
 11
15.9200
 21
17.0000
 31
0.0000
  0
LINE
  8
20
 10
14.3200
 20
17.0000
 30
0.0000
 11
14.3200
 21
26.2000
 31
0.0000
  0
ARC
  8
20
 10
13.5200
 20
26.2000
 30
0.0000
 40
0.8000
 50
0.0000
 51
90.0000
  0
ARC
  8
20
 10
15.1200
 20
17.0000
 30
0.0000
 40
0.8000
 50
270.0000
 51
0.0000
  0
ARC
  8
20
 10
15.1200
 20
17.0000
 30
0.0000
 40
0.8000
 50
180.0000
 51
270.0000
  0
LINE
  8
20
 10
52.5000
 20
26.0000
 30
0.0000
 11
52.5000
 21
16.0000
 31
0.0000
  0
ARC
  8
20
 10
53.5000
 20
16.0000
 30
0.0000
 40
1.0000
 50
180.0000
 51
270.0000
  0
LINE
  8
20
 10
52.5000
 20
26.0000
 30
0.0000
 11
51.5000
 21
27.0000
 31
0.0000
  0
LINE
  8
20
 10
1.5000
 20
26.0000
 30
0.0000
 11
1.5000
 21
16.0000
 31
0.0000
  0
ARC
  8
20
 10
0.5000
 20
16.0000
 30
0.0000
 40
1.0000
 50
270.0000
 51
0.0000
  0
LINE
  8
20
 10
1.5000
 20
26.0000
 30
0.0000
 11
2.5000
 21
27.0000
 31
0.0000
  0
LINE
  8
20
 10
2.5000
 20
27.0000
 30
0.0000
 11
13.5200
 21
27.0000
 31
0.0000
  0
LINE
  8
21
 10
48.1801
 20
15.6896
 30
0.0000
 11
48.5046
 21
15.9492
 31
0.0000
  0
LINE
  8
21
 10
48.5046
 20
15.9492
 30
0.0000
 11
48.5046
 21
14.7808
 31
0.0000
  0
LINE
  8
21
 10
48.1801
 20
14.7808
 30
0.0000
 11
48.8292
 21
14.7808
 31
0.0000
  0
LINE
  8
21
 10
1.3589
 20
37.7314
 30
0.0000
 11
1.3589
 21
39.0776
 31
0.0000
  0
LINE
  8
21
 10
1.3589
 20
39.0776
 30
0.0000
 11
1.7328
 21
39.0776
 31
0.0000
  0
ARC
  8
21
 10
1.7328
 20
38.8533
 30
0.0000
 40
0.2244
 50
0.0000
 51
90.0000
  0
LINE
  8
21
 10
1.9572
 20
38.8533
 30
0.0000
 11
1.9572
 21
38.4045
 31
0.0000
  0
ARC
  8
21
 10
1.7328
 20
38.4045
 30
0.0000
 40
0.2244
 50
270.0008
 51
0.0000
  0
LINE
  8
21
 10
1.7328
 20
38.1802
 30
0.0000
 11
1.3589
 21
38.1802
 31
0.0000
  0
LINE
  8
21
 10
2.5485
 20
39.5264
 30
0.0000
 11
2.5485
 21
38.4045
 31
0.0000
  0
ARC
  8
21
 10
2.7729
 20
38.4045
 30
0.0000
 40
0.2244
 50
180.0000
 51
270.0000
  0
LINE
  8
21
 10
3.8564
 20
38.7037
 30
0.0000
 11
3.5199
 21
38.7037
 31
0.0000
  0
ARC
  8
21
 10
3.5199
 20
38.4419
 30
0.0000
 40
0.2618
 50
90.0000
 51
270.0000
  0
LINE
  8
21
 10
3.5199
 20
38.1802
 30
0.0000
 11
3.8564
 21
38.1802
 31
0.0000
  0
LINE
  8
21
 10
3.8564
 20
38.1802
 30
0.0000
 11
3.8564
 21
38.8533
 31
0.0000
  0
ARC
  8
21
 10
3.6320
 20
38.8533
 30
0.0000
 40
0.2244
 50
0.0000
 51
90.0000
  0
LINE
  8
21
 10
3.6320
 20
39.0776
 30
0.0000
 11
3.3329
 21
39.0776
 31
0.0000
  0
LINE
  8
21
 10
5.0241
 20
38.1802
 30
0.0000
 11
4.7250
 21
38.1802
 31
0.0000
  0
ARC
  8
21
 10
4.7250
 20
38.4045
 30
0.0000
 40
0.2244
 50
180.0000
 51
270.0000
  0
LINE
  8
21
 10
4.5006
 20
38.4045
 30
0.0000
 11
4.5006
 21
38.8533
 31
0.0000
  0
ARC
  8
21
 10
4.7250
 20
38.8533
 30
0.0000
 40
0.2244
 50
89.9992
 51
180.0000
  0
LINE
  8
21
 10
4.7250
 20
39.0776
 30
0.0000
 11
5.0241
 21
39.0776
 31
0.0000
  0
LINE
  8
21
 10
6.1464
 20
38.1802
 30
0.0000
 11
5.7725
 21
38.1802
 31
0.0000
  0
ARC
  8
21
 10
5.7725
 20
38.4045
 30
0.0000
 40
0.2244
 50
180.0000
 51
270.0000
  0
LINE
  8
21
 10
5.5481
 20
38.4045
 30
0.0000
 11
5.5481
 21
38.7785
 31
0.0000
  0
ARC
  8
21
 10
5.8473
 20
38.7785
 30
0.0000
 40
0.2992
 50
0.0000
 51
180.0000
  0
LINE
  8
21
 10
6.1464
 20
38.7785
 30
0.0000
 11
6.1464
 21
38.6289
 31
0.0000
  0
LINE
  8
21
 10
6.1464
 20
38.6289
 30
0.0000
 11
5.5481
 21
38.6289
 31
0.0000
  0
LINE
  8
21
 10
6.8130
 20
38.1802
 30
0.0000
 11
6.8130
 21
39.0776
 31
0.0000
  0
LINE
  8
21
 10
6.8130
 20
39.0776
 30
0.0000
 11
7.4861
 21
39.0776
 31
0.0000
  0
ARC
  8
21
 10
7.4861
 20
38.8533
 30
0.0000
 40
0.2244
 50
0.0000
 51
90.0000
  0
LINE
  8
21
 10
7.7105
 20
38.8533
 30
0.0000
 11
7.7105
 21
38.1802
 31
0.0000
  0
LINE
  8
21
 10
7.2617
 20
38.1802
 30
0.0000
 11
7.2617
 21
39.0776
 31
0.0000
  0
LINE
  8
21
 10
8.9754
 20
38.1802
 30
0.0000
 11
8.6014
 21
38.1802
 31
0.0000
  0
ARC
  8
21
 10
8.6014
 20
38.4045
 30
0.0000
 40
0.2244
 50
180.0000
 51
270.0000
  0
LINE
  8
21
 10
8.3771
 20
38.4045
 30
0.0000
 11
8.3771
 21
38.7785
 31
0.0000
  0
ARC
  8
21
 10
8.6762
 20
38.7785
 30
0.0000
 40
0.2992
 50
0.0000
 51
180.0000
  0
LINE
  8
21
 10
8.9754
 20
38.7785
 30
0.0000
 11
8.9754
 21
38.6289
 31
0.0000
  0
LINE
  8
21
 10
8.9754
 20
38.6289
 30
0.0000
 11
8.3771
 21
38.6289
 31
0.0000
  0
LINE
  8
21
 10
9.6090
 20
38.1802
 30
0.0000
 11
9.6090
 21
39.0776
 31
0.0000
  0
LINE
  8
21
 10
9.6090
 20
39.0776
 30
0.0000
 11
9.9830
 21
39.0776
 31
0.0000
  0
ARC
  8
21
 10
9.9830
 20
38.8533
 30
0.0000
 40
0.2244
 50
0.0000
 51
90.0000
  0
LINE
  8
21
 10
10.2074
 20
38.8533
 30
0.0000
 11
10.2074
 21
38.1802
 31
0.0000
  0
LINE
  8
21
 10
10.7198
 20
39.0776
 30
0.0000
 11
11.1685
 21
39.0776
 31
0.0000
  0
LINE
  8
21
 10
10.8694
 20
39.5264
 30
0.0000
 11
10.8694
 21
38.4045
 31
0.0000
  0
ARC
  8
21
 10
11.0937
 20
38.4045
 30
0.0000
 40
0.2244
 50
180.0000
 51
270.0000
  0
LINE
  8
21
 10
11.0937
 20
38.1802
 30
0.0000
 11
11.1685
 21
38.1802
 31
0.0000
  0
LINE
  8
21
 10
12.9635
 20
38.1802
 30
0.0000
 11
12.6643
 21
38.1802
 31
0.0000
  0
ARC
  8
21
 10
12.6643
 20
38.4045
 30
0.0000
 40
0.2244
 50
180.0000
 51
270.0000
  0
LINE
  8
21
 10
12.4400
 20
38.4045
 30
0.0000
 11
12.4400
 21
38.8533
 31
0.0000
  0
ARC
  8
21
 10
12.6643
 20
38.8533
 30
0.0000
 40
0.2244
 50
89.9992
 51
180.0000
  0
LINE
  8
21
 10
12.6643
 20
39.0776
 30
0.0000
 11
12.9635
 21
39.0776
 31
0.0000
  0
LINE
  8
21
 10
13.4875
 20
38.4793
 30
0.0000
 11
13.4875
 21
38.7785
 31
0.0000
  0
ARC
  8
21
 10
13.7866
 20
38.7785
 30
0.0000
 40
0.2992
 50
0.0000
 51
180.0000
  0
LINE
  8
21
 10
14.0858
 20
38.7785
 30
0.0000
 11
14.0858
 21
38.4793
 31
0.0000
  0
ARC
  8
21
 10
13.7866
 20
38.4793
 30
0.0000
 40
0.2992
 50
180.0000
 51
0.0000
  0
LINE
  8
21
 10
14.7524
 20
38.1802
 30
0.0000
 11
14.7524
 21
39.0776
 31
0.0000
  0
LINE
  8
21
 10
14.7524
 20
39.0776
 30
0.0000
 11
15.4255
 21
39.0776
 31
0.0000
  0
ARC
  8
21
 10
15.4255
 20
38.8533
 30
0.0000
 40
0.2244
 50
0.0000
 51
90.0000
  0
LINE
  8
21
 10
15.6498
 20
38.8533
 30
0.0000
 11
15.6498
 21
38.1802
 31
0.0000
  0
LINE
  8
21
 10
15.2011
 20
38.1802
 30
0.0000
 11
15.2011
 21
39.0776
 31
0.0000
  0
LINE
  8
21
 10
16.3706
 20
37.7314
 30
0.0000
 11
16.3706
 21
39.0776
 31
0.0000
  0
LINE
  8
21
 10
16.3706
 20
39.0776
 30
0.0000
 11
16.7446
 21
39.0776
 31
0.0000
  0
ARC
  8
21
 10
16.7446
 20
38.8533
 30
0.0000
 40
0.2244
 50
0.0000
 51
90.0000
  0
LINE
  8
21
 10
16.9690
 20
38.8533
 30
0.0000
 11
16.9690
 21
38.4045
 31
0.0000
  0
ARC
  8
21
 10
16.7446
 20
38.4045
 30
0.0000
 40
0.2244
 50
270.0008
 51
0.0000
  0
LINE
  8
21
 10
16.7446
 20
38.1802
 30
0.0000
 11
16.3706
 21
38.1802
 31
0.0000
  0
LINE
  8
21
 10
17.5484
 20
38.4793
 30
0.0000
 11
17.5484
 21
38.7785
 31
0.0000
  0
ARC
  8
21
 10
17.8475
 20
38.7785
 30
0.0000
 40
0.2992
 50
0.0000
 51
180.0000
  0
LINE
  8
21
 10
18.1467
 20
38.7785
 30
0.0000
 11
18.1467
 21
38.4793
 31
0.0000
  0
ARC
  8
21
 10
17.8475
 20
38.4793
 30
0.0000
 40
0.2992
 50
180.0000
 51
0.0000
  0
LINE
  8
21
 10
18.7804
 20
38.1802
 30
0.0000
 11
18.7804
 21
39.0776
 31
0.0000
  0
LINE
  8
21
 10
18.7804
 20
39.0776
 30
0.0000
 11
19.1543
 21
39.0776
 31
0.0000
  0
ARC
  8
21
 10
19.1543
 20
38.8533
 30
0.0000
 40
0.2244
 50
0.0000
 51
90.0000
  0
LINE
  8
21
 10
19.3787
 20
38.8533
 30
0.0000
 11
19.3787
 21
38.1802
 31
0.0000
  0
LINE
  8
21
 10
20.6106
 20
38.1802
 30
0.0000
 11
20.2367
 21
38.1802
 31
0.0000
  0
ARC
  8
21
 10
20.2367
 20
38.4045
 30
0.0000
 40
0.2244
 50
180.0000
 51
270.0000
  0
LINE
  8
21
 10
20.0123
 20
38.4045
 30
0.0000
 11
20.0123
 21
38.7785
 31
0.0000
  0
ARC
  8
21
 10
20.3115
 20
38.7785
 30
0.0000
 40
0.2992
 50
0.0000
 51
180.0000
  0
LINE
  8
21
 10
20.6106
 20
38.7785
 30
0.0000
 11
20.6106
 21
38.6289
 31
0.0000
  0
LINE
  8
21
 10
20.6106
 20
38.6289
 30
0.0000
 11
20.0123
 21
38.6289
 31
0.0000
  0
LINE
  8
21
 10
21.2443
 20
38.1802
 30
0.0000
 11
21.2443
 21
39.0776
 31
0.0000
  0
LINE
  8
21
 10
21.2443
 20
39.0776
 30
0.0000
 11
21.6182
 21
39.0776
 31
0.0000
  0
ARC
  8
21
 10
21.6182
 20
38.8533
 30
0.0000
 40
0.2244
 50
0.0000
 51
90.0000
  0
LINE
  8
21
 10
21.8426
 20
38.8533
 30
0.0000
 11
21.8426
 21
38.1802
 31
0.0000
  0
LINE
  8
21
 10
22.3550
 20
39.0776
 30
0.0000
 11
22.8038
 21
39.0776
 31
0.0000
  0
LINE
  8
21
 10
22.5046
 20
39.5264
 30
0.0000
 11
22.5046
 21
38.4045
 31
0.0000
  0
ARC
  8
21
 10
22.7290
 20
38.4045
 30
0.0000
 40
0.2244
 50
180.0000
 51
270.0000
  0
LINE
  8
21
 10
22.7290
 20
38.1802
 30
0.0000
 11
22.8038
 21
38.1802
 31
0.0000
  0
LINE
  8
21
 10
24.5594
 20
38.5541
 30
0.0000
 11
24.1854
 21
38.7037
 31
0.0000
  0
ARC
  8
21
 10
24.2574
 20
38.8837
 30
0.0000
 40
0.1939
 50
89.1810
 51
248.1986
  0
ARC
  8
21
 10
24.2481
 20
38.2284
 30
0.0000
 40
0.8493
 50
65.7609
 51
89.1810
  0
ARC
  8
21
 10
24.4874
 20
38.3740
 30
0.0000
 40
0.1939
 50
269.1810
 51
68.1986
  0
ARC
  8
21
 10
24.5027
 20
39.4485
 30
0.0000
 40
1.2684
 50
250.2096
 51
269.1810
  0
LINE
  8
21
 10
25.2393
 20
38.1802
 30
0.0000
 11
25.2393
 21
39.0776
 31
0.0000
  0
LINE
  8
21
 10
25.2019
 20
39.4516
 30
0.0000
 11
25.2019
 21
39.5264
 31
0.0000
  0
LINE
  8
21
 10
25.2019
 20
39.5264
 30
0.0000
 11
25.2767
 21
39.5264
 31
0.0000
  0
LINE
  8
21
 10
25.2767
 20
39.5264
 30
0.0000
 11
25.2767
 21
39.4516
 31
0.0000
  0
LINE
  8
21
 10
25.2767
 20
39.4516
 30
0.0000
 11
25.2019
 21
39.4516
 31
0.0000
  0
LINE
  8
21
 10
26.3968
 20
39.5264
 30
0.0000
 11
26.3968
 21
38.1802
 31
0.0000
  0
LINE
  8
21
 10
26.3968
 20
38.1802
 30
0.0000
 11
26.0229
 21
38.1802
 31
0.0000
  0
ARC
  8
21
 10
26.0229
 20
38.4045
 30
0.0000
 40
0.2244
 50
180.0000
 51
270.0000
  0
LINE
  8
21
 10
25.7985
 20
38.4045
 30
0.0000
 11
25.7985
 21
38.8533
 31
0.0000
  0
ARC
  8
21
 10
26.0229
 20
38.8533
 30
0.0000
 40
0.2244
 50
89.9992
 51
180.0000
  0
LINE
  8
21
 10
26.0229
 20
39.0776
 30
0.0000
 11
26.3968
 21
39.0776
 31
0.0000
  0
LINE
  8
21
 10
27.6374
 20
38.1802
 30
0.0000
 11
27.2635
 21
38.1802
 31
0.0000
  0
ARC
  8
21
 10
27.2635
 20
38.4045
 30
0.0000
 40
0.2244
 50
180.0000
 51
270.0000
  0
LINE
  8
21
 10
27.0391
 20
38.4045
 30
0.0000
 11
27.0391
 21
38.7785
 31
0.0000
  0
ARC
  8
21
 10
27.3382
 20
38.7785
 30
0.0000
 40
0.2992
 50
0.0000
 51
180.0000
  0
LINE
  8
21
 10
27.6374
 20
38.7785
 30
0.0000
 11
27.6374
 21
38.6289
 31
0.0000
  0
LINE
  8
21
 10
27.6374
 20
38.6289
 30
0.0000
 11
27.0391
 21
38.6289
 31
0.0000
  0
ENDSEC
  0
EOF
