  0
SECTION
  2
HEADER
  9
$ACADVER
  1
AC1009
  9
$FILLMODE
 70
0
  9
$EXTMIN
 10
-7.4335
 20
-11.6635
 30
0.0000
  9
$EXTMAX
 10
54.8450
 20
46.6128
 30
0.0000
  0
ENDSEC
  0
SECTION
  2
TABLES
  0
TABLE
  2
LTYPE
 70
1
  0
LTYPE
  2
CONTINUOUS
 70
64
  3
Solid line
 72
65
 73
0
 40
0
  0
ENDTAB
  0
TABLE
  2
LAYER
 70
255
  0
LAYER
  2
19
 70
64
 62
53
  6
CONTINUOUS
  0
LAYER
  2
20
 70
64
 62
30
  6
CONTINUOUS
  0
LAYER
  2
21
 70
64
 62
253
  6
CONTINUOUS
  0
LAYER
  2
45
 70
64
 62
253
  6
CONTINUOUS
  0
LAYER
  2
49
 70
64
 62
253
  6
CONTINUOUS
  0
LAYER
  2
51
 70
64
 62
253
  6
CONTINUOUS
  0
LAYER
  2
105
 70
64
 62
5
  6
CONTINUOUS
  0
LAYER
  2
111
 70
64
 62
253
  6
CONTINUOUS
  0
LAYER
  2
115
 70
64
 62
253
  6
CONTINUOUS
  0
LAYER
  2
118
 70
64
 62
253
  6
CONTINUOUS
  0
LAYER
  2
211
 70
64
 62
253
  6
CONTINUOUS
  0
LAYER
  2
212
 70
64
 62
253
  6
CONTINUOUS
  0
LAYER
  2
213
 70
64
 62
253
  6
CONTINUOUS
  0
LAYER
  2
214
 70
64
 62
253
  6
CONTINUOUS
  0
LAYER
  2
215
 70
64
 62
253
  6
CONTINUOUS
  0
LAYER
  2
216
 70
64
 62
253
  6
CONTINUOUS
  0
LAYER
  2
217
 70
64
 62
253
  6
CONTINUOUS
  0
LAYER
  2
218
 70
64
 62
253
  6
CONTINUOUS
  0
LAYER
  2
219
 70
64
 62
253
  6
CONTINUOUS
  0
LAYER
  2
220
 70
64
 62
253
  6
CONTINUOUS
  0
LAYER
  2
221
 70
64
 62
253
  6
CONTINUOUS
  0
LAYER
  2
222
 70
64
 62
253
  6
CONTINUOUS
  0
LAYER
  2
223
 70
64
 62
253
  6
CONTINUOUS
  0
LAYER
  2
224
 70
64
 62
253
  6
CONTINUOUS
  0
LAYER
  2
225
 70
64
 62
253
  6
CONTINUOUS
  0
LAYER
  2
226
 70
64
 62
253
  6
CONTINUOUS
  0
LAYER
  2
227
 70
64
 62
253
  6
CONTINUOUS
  0
ENDTAB
  0
ENDSEC
  0
SECTION
  2
BLOCKS
  0
BLOCK
  8
0
  2
RECT
 70
64
 10
0.0000
 20
0.0000
 30
0.0000
  3
RECT
  0
SOLID
  8
0
 10
-0.5000
 20
-0.5000
 30
0.0000
 11
0.5000
 21
-0.5000
 31
0.0000
 12
-0.5000
 22
0.5000
 32
0.0000
 13
0.5000
 23
0.5000
 33
0.0000
  0
ENDBLK
  8
0
  0
BLOCK
  8
0
  2
PIE
 70
64
 10
0.0000
 20
0.0000
 30
0.0000
  3
PIE
  0
CIRCLE
  8
0
 10
0.0000
 20
0.0000
 30
0.0000
 40
0.5000
  0
ENDBLK
  8
0
  0
BLOCK
  8
0
  2
OCTAGONP
 70
64
 10
0.0000
 20
0.0000
 30
0.0000
  3
OCTAGONP
  0
POLYLINE
  8
0
 66
1
 10
0.0000
 20
0.0000
 30
0.0000
 40
0.0000
 41
0.0000
 70
1
  0
VERTEX
  8
0
 10
-0.5000
 20
-0.2071
 30
0.0000
  0
VERTEX
  8
0
 10
-0.5000
 20
0.2071
 30
0.0000
  0
VERTEX
  8
0
 10
-0.2071
 20
0.5000
 30
0.0000
  0
VERTEX
  8
0
 10
0.2071
 20
0.5000
 30
0.0000
  0
VERTEX
  8
0
 10
0.5000
 20
0.2071
 30
0.0000
  0
VERTEX
  8
0
 10
0.5000
 20
-0.2071
 30
0.0000
  0
VERTEX
  8
0
 10
0.2071
 20
-0.5000
 30
0.0000
  0
VERTEX
  8
0
 10
-0.2071
 20
-0.5000
 30
0.0000
  0
SEQEND
  8
0
  0
ENDBLK
  8
0
  0
BLOCK
  8
0
  2
SQUAREP
 70
64
 10
0.0000
 20
0.0000
 30
0.0000
  3
SQUAREP
  0
SOLID
  8
0
 10
-0.5000
 20
-0.5000
 30
0.0000
 11
0.5000
 21
-0.5000
 31
0.0000
 12
-0.5000
 22
0.5000
 32
0.0000
 13
0.5000
 23
0.5000
 33
0.0000
  0
ENDBLK
  8
0
  0
BLOCK
  8
0
  2
ROUNDP
 70
64
 10
0.0000
 20
0.0000
 30
0.0000
  3
ROUNDP
  0
CIRCLE
  8
0
 10
0.0000
 20
0.0000
 30
0.0000
 40
0.5000
  0
ENDBLK
  8
0
  0
BLOCK
  8
0
  2
ANNULUSP
 70
64
 10
0.0000
 20
0.0000
 30
0.0000
  3
ANNULUSP
  0
CIRCLE
  8
0
 10
0.0000
 20
0.0000
 30
0.0000
 40
0.5000
  0
ENDBLK
  8
0
  0
BLOCK
  8
0
  2
THERMALP
 70
64
 10
0.0000
 20
0.0000
 30
0.0000
  3
THERMALP
  0
LINE
  8
0
 10
-0.2379
 20
0.4500
 30
0.0000
 11
0.2379
 21
0.4500
 31
0.0000
  0
LINE
  8
0
 10
0.4500
 20
0.2379
 30
0.0000
 11
0.4500
 21
-0.2379
 31
0.0000
  0
LINE
  8
0
 10
0.2379
 20
-0.4500
 30
0.0000
 11
-0.2379
 21
-0.4500
 31
0.0000
  0
LINE
  8
0
 10
-0.4500
 20
-0.2379
 30
0.0000
 11
-0.4500
 21
0.2379
 31
0.0000
  0
ENDBLK
  8
0
  0
BLOCK
  8
0
  2
OCTAGONV
 70
64
 10
0.0000
 20
0.0000
 30
0.0000
  3
OCTAGONV
  0
POLYLINE
  8
0
 66
1
 10
0.0000
 20
0.0000
 30
0.0000
 40
0.0000
 41
0.0000
 70
1
  0
VERTEX
  8
0
 10
-0.5000
 20
-0.2071
 30
0.0000
  0
VERTEX
  8
0
 10
-0.5000
 20
0.2071
 30
0.0000
  0
VERTEX
  8
0
 10
-0.2071
 20
0.5000
 30
0.0000
  0
VERTEX
  8
0
 10
0.2071
 20
0.5000
 30
0.0000
  0
VERTEX
  8
0
 10
0.5000
 20
0.2071
 30
0.0000
  0
VERTEX
  8
0
 10
0.5000
 20
-0.2071
 30
0.0000
  0
VERTEX
  8
0
 10
0.2071
 20
-0.5000
 30
0.0000
  0
VERTEX
  8
0
 10
-0.2071
 20
-0.5000
 30
0.0000
  0
SEQEND
  8
0
  0
ENDBLK
  8
0
  0
BLOCK
  8
0
  2
SQUAREV
 70
64
 10
0.0000
 20
0.0000
 30
0.0000
  3
SQUAREV
  0
SOLID
  8
0
 10
-0.5000
 20
-0.5000
 30
0.0000
 11
0.5000
 21
-0.5000
 31
0.0000
 12
-0.5000
 22
0.5000
 32
0.0000
 13
0.5000
 23
0.5000
 33
0.0000
  0
ENDBLK
  8
0
  0
BLOCK
  8
0
  2
ROUNDV
 70
64
 10
0.0000
 20
0.0000
 30
0.0000
  3
ROUNDV
  0
CIRCLE
  8
0
 10
0.0000
 20
0.0000
 30
0.0000
 40
0.5000
  0
ENDBLK
  8
0
  0
BLOCK
  8
0
  2
ANNULUSV
 70
64
 10
0.0000
 20
0.0000
 30
0.0000
  3
ANNULUSV
  0
CIRCLE
  8
0
 10
0.0000
 20
0.0000
 30
0.0000
 40
0.5000
  0
ENDBLK
  8
0
  0
BLOCK
  8
0
  2
THERMALV
 70
64
 10
0.0000
 20
0.0000
 30
0.0000
  3
THERMALV
  0
LINE
  8
0
 10
-0.2379
 20
0.4500
 30
0.0000
 11
0.2379
 21
0.4500
 31
0.0000
  0
LINE
  8
0
 10
0.4500
 20
0.2379
 30
0.0000
 11
0.4500
 21
-0.2379
 31
0.0000
  0
LINE
  8
0
 10
0.2379
 20
-0.4500
 30
0.0000
 11
-0.2379
 21
-0.4500
 31
0.0000
  0
LINE
  8
0
 10
-0.4500
 20
-0.2379
 30
0.0000
 11
-0.4500
 21
0.2379
 31
0.0000
  0
ENDBLK
  8
0
  0
ENDSEC
  0
SECTION
  2
ENTITIES
  0
LINE
  8
20
 10
0.0000
 20
0.0000
 30
0.0000
 11
0.0000
 21
18.0000
 31
0.0000
  0
LINE
  8
20
 10
30.0000
 20
18.0000
 30
0.0000
 11
30.0000
 21
0.0000
 31
0.0000
  0
LINE
  8
20
 10
30.0000
 20
0.0000
 30
0.0000
 11
0.0000
 21
0.0000
 31
0.0000
  0
LINE
  8
20
 10
0.0000
 20
18.0000
 30
0.0000
 11
30.0000
 21
18.0000
 31
0.0000
  0
LINE
  8
21
 10
1.9526
 20
6.5908
 30
0.0000
 11
1.6929
 21
6.5908
 31
0.0000
  0
ARC
  8
21
 10
1.6929
 20
6.8504
 30
0.0000
 40
0.2596
 50
180.0000
 51
270.0000
  0
LINE
  8
21
 10
1.4333
 20
6.8504
 30
0.0000
 11
1.4333
 21
7.4996
 31
0.0000
  0
ARC
  8
21
 10
1.6929
 20
7.4996
 30
0.0000
 40
0.2596
 50
90.0007
 51
180.0000
  0
LINE
  8
21
 10
1.6929
 20
7.7592
 30
0.0000
 11
1.9526
 21
7.7592
 31
0.0000
  0
LINE
  8
21
 10
2.3778
 20
6.8504
 30
0.0000
 11
2.3778
 21
7.1101
 31
0.0000
  0
ARC
  8
21
 10
2.6375
 20
7.1101
 30
0.0000
 40
0.2596
 50
0.0000
 51
180.0000
  0
LINE
  8
21
 10
2.8971
 20
7.1101
 30
0.0000
 11
2.8971
 21
6.8504
 31
0.0000
  0
ARC
  8
21
 10
2.6375
 20
6.8504
 30
0.0000
 40
0.2596
 50
180.0000
 51
0.0000
  0
LINE
  8
21
 10
3.4291
 20
6.5908
 30
0.0000
 11
3.4291
 21
7.3697
 31
0.0000
  0
LINE
  8
21
 10
3.4291
 20
7.3697
 30
0.0000
 11
4.0133
 21
7.3697
 31
0.0000
  0
ARC
  8
21
 10
4.0133
 20
7.1750
 30
0.0000
 40
0.1947
 50
0.0000
 51
90.0000
  0
LINE
  8
21
 10
4.2080
 20
7.1750
 30
0.0000
 11
4.2080
 21
6.5908
 31
0.0000
  0
LINE
  8
21
 10
3.8186
 20
6.5908
 30
0.0000
 11
3.8186
 21
7.3697
 31
0.0000
  0
LINE
  8
21
 10
4.8007
 20
6.5908
 30
0.0000
 11
4.8007
 21
7.3697
 31
0.0000
  0
LINE
  8
21
 10
4.8007
 20
7.3697
 30
0.0000
 11
5.3849
 21
7.3697
 31
0.0000
  0
ARC
  8
21
 10
5.3849
 20
7.1750
 30
0.0000
 40
0.1947
 50
0.0000
 51
90.0000
  0
LINE
  8
21
 10
5.5796
 20
7.1750
 30
0.0000
 11
5.5796
 21
6.5908
 31
0.0000
  0
LINE
  8
21
 10
5.1902
 20
6.5908
 30
0.0000
 11
5.1902
 21
7.3697
 31
0.0000
  0
LINE
  8
21
 10
6.1116
 20
6.8504
 30
0.0000
 11
6.1116
 21
7.1101
 31
0.0000
  0
ARC
  8
21
 10
6.3713
 20
7.1101
 30
0.0000
 40
0.2596
 50
0.0000
 51
180.0000
  0
LINE
  8
21
 10
6.6309
 20
7.1101
 30
0.0000
 11
6.6309
 21
6.8504
 31
0.0000
  0
ARC
  8
21
 10
6.3713
 20
6.8504
 30
0.0000
 40
0.2596
 50
180.0000
 51
0.0000
  0
LINE
  8
21
 10
7.6156
 20
7.7592
 30
0.0000
 11
7.6156
 21
6.5908
 31
0.0000
  0
LINE
  8
21
 10
7.6156
 20
6.5908
 30
0.0000
 11
7.2911
 21
6.5908
 31
0.0000
  0
ARC
  8
21
 10
7.2911
 20
6.7855
 30
0.0000
 40
0.1947
 50
180.0000
 51
270.0000
  0
LINE
  8
21
 10
7.0963
 20
6.7855
 30
0.0000
 11
7.0963
 21
7.1750
 31
0.0000
  0
ARC
  8
21
 10
7.2911
 20
7.1750
 30
0.0000
 40
0.1947
 50
90.0000
 51
180.0000
  0
LINE
  8
21
 10
7.2911
 20
7.3697
 30
0.0000
 11
7.6156
 21
7.3697
 31
0.0000
  0
LINE
  8
21
 10
8.1309
 20
6.8504
 30
0.0000
 11
8.1309
 21
7.1101
 31
0.0000
  0
ARC
  8
21
 10
8.3906
 20
7.1101
 30
0.0000
 40
0.2596
 50
0.0000
 51
180.0000
  0
LINE
  8
21
 10
8.6502
 20
7.1101
 30
0.0000
 11
8.6502
 21
6.8504
 31
0.0000
  0
ARC
  8
21
 10
8.3906
 20
6.8504
 30
0.0000
 40
0.2596
 50
180.0000
 51
0.0000
  0
LINE
  8
21
 10
9.1663
 20
6.5908
 30
0.0000
 11
9.1663
 21
7.3697
 31
0.0000
  0
LINE
  8
21
 10
9.1663
 20
7.3697
 30
0.0000
 11
9.5557
 21
7.3697
 31
0.0000
  0
LINE
  8
21
 10
9.5557
 20
7.3697
 30
0.0000
 11
9.5557
 21
7.2399
 31
0.0000
  0
LINE
  8
21
 10
10.4409
 20
6.5908
 30
0.0000
 11
10.1164
 21
6.5908
 31
0.0000
  0
ARC
  8
21
 10
10.1164
 20
6.7855
 30
0.0000
 40
0.1947
 50
180.0000
 51
270.0000
  0
LINE
  8
21
 10
9.9216
 20
6.7855
 30
0.0000
 11
9.9216
 21
7.1101
 31
0.0000
  0
ARC
  8
21
 10
10.1813
 20
7.1101
 30
0.0000
 40
0.2596
 50
0.0000
 51
180.0000
  0
LINE
  8
21
 10
10.4409
 20
7.1101
 30
0.0000
 11
10.4409
 21
6.9803
 31
0.0000
  0
LINE
  8
21
 10
10.4409
 20
6.9803
 30
0.0000
 11
9.9216
 21
6.9803
 31
0.0000
  0
LINE
  8
21
 10
11.5882
 20
6.5908
 30
0.0000
 11
11.5882
 21
7.7592
 31
0.0000
  0
LINE
  8
21
 10
11.5882
 20
7.7592
 30
0.0000
 11
11.9127
 21
7.7592
 31
0.0000
  0
ARC
  8
21
 10
11.9127
 20
7.4346
 30
0.0000
 40
0.3246
 50
270.0000
 51
90.0000
  0
LINE
  8
21
 10
11.9127
 20
7.1101
 30
0.0000
 11
11.5882
 21
7.1101
 31
0.0000
  0
LINE
  8
21
 10
12.6648
 20
6.8504
 30
0.0000
 11
12.6648
 21
7.1101
 31
0.0000
  0
ARC
  8
21
 10
12.9245
 20
7.1101
 30
0.0000
 40
0.2596
 50
0.0000
 51
180.0000
  0
LINE
  8
21
 10
13.1841
 20
7.1101
 30
0.0000
 11
13.1841
 21
6.8504
 31
0.0000
  0
ARC
  8
21
 10
12.9245
 20
6.8504
 30
0.0000
 40
0.2596
 50
180.0000
 51
0.0000
  0
LINE
  8
21
 10
13.7002
 20
6.5908
 30
0.0000
 11
13.7002
 21
7.3697
 31
0.0000
  0
LINE
  8
21
 10
13.7002
 20
7.3697
 30
0.0000
 11
14.0896
 21
7.3697
 31
0.0000
  0
LINE
  8
21
 10
14.0896
 20
7.3697
 30
0.0000
 11
14.0896
 21
7.2399
 31
0.0000
  0
LINE
  8
21
 10
14.3588
 20
7.3697
 30
0.0000
 11
14.7483
 21
7.3697
 31
0.0000
  0
LINE
  8
21
 10
14.4886
 20
7.7592
 30
0.0000
 11
14.4886
 21
6.7855
 31
0.0000
  0
ARC
  8
21
 10
14.6834
 20
6.7855
 30
0.0000
 40
0.1947
 50
180.0000
 51
270.0000
  0
LINE
  8
21
 10
14.6834
 20
6.5908
 30
0.0000
 11
14.7483
 21
6.5908
 31
0.0000
  0
LINE
  8
21
 10
15.1780
 20
6.6882
 30
0.0000
 11
15.1780
 21
6.7531
 31
0.0000
  0
LINE
  8
21
 10
15.1780
 20
6.7531
 30
0.0000
 11
15.2429
 21
6.7531
 31
0.0000
  0
LINE
  8
21
 10
15.2429
 20
6.7531
 30
0.0000
 11
15.2429
 21
6.6882
 31
0.0000
  0
LINE
  8
21
 10
15.2429
 20
6.6882
 30
0.0000
 11
15.1780
 21
6.6882
 31
0.0000
  0
LINE
  8
21
 10
15.1780
 20
7.2075
 30
0.0000
 11
15.1780
 21
7.2724
 31
0.0000
  0
LINE
  8
21
 10
15.1780
 20
7.2724
 30
0.0000
 11
15.2429
 21
7.2724
 31
0.0000
  0
LINE
  8
21
 10
15.2429
 20
7.2724
 30
0.0000
 11
15.2429
 21
7.2075
 31
0.0000
  0
LINE
  8
21
 10
15.2429
 20
7.2075
 30
0.0000
 11
15.1780
 21
7.2075
 31
0.0000
  0
LINE
  8
21
 10
16.8497
 20
6.5908
 30
0.0000
 11
16.5900
 21
6.5908
 31
0.0000
  0
ARC
  8
21
 10
16.5900
 20
6.8504
 30
0.0000
 40
0.2596
 50
180.0000
 51
270.0000
  0
LINE
  8
21
 10
16.3304
 20
6.8504
 30
0.0000
 11
16.3304
 21
7.4996
 31
0.0000
  0
ARC
  8
21
 10
16.5900
 20
7.4996
 30
0.0000
 40
0.2596
 50
90.0007
 51
180.0000
  0
LINE
  8
21
 10
16.5900
 20
7.7592
 30
0.0000
 11
16.8497
 21
7.7592
 31
0.0000
  0
LINE
  8
21
 10
17.7883
 20
7.0452
 30
0.0000
 11
17.4962
 21
7.0452
 31
0.0000
  0
ARC
  8
21
 10
17.4962
 20
6.8180
 30
0.0000
 40
0.2272
 50
90.0000
 51
270.0000
  0
LINE
  8
21
 10
17.4962
 20
6.5908
 30
0.0000
 11
17.7883
 21
6.5908
 31
0.0000
  0
LINE
  8
21
 10
17.7883
 20
6.5908
 30
0.0000
 11
17.7883
 21
7.1750
 31
0.0000
  0
ARC
  8
21
 10
17.5936
 20
7.1750
 30
0.0000
 40
0.1947
 50
0.0000
 51
90.0000
  0
LINE
  8
21
 10
17.5936
 20
7.3697
 30
0.0000
 11
17.3339
 21
7.3697
 31
0.0000
  0
LINE
  8
21
 10
18.7255
 20
6.9154
 30
0.0000
 11
18.4010
 21
7.0452
 31
0.0000
  0
ARC
  8
21
 10
18.4635
 20
7.2014
 30
0.0000
 40
0.1683
 50
89.1818
 51
248.1989
  0
ARC
  8
21
 10
18.4554
 20
6.6327
 30
0.0000
 40
0.7371
 50
65.7612
 51
89.1819
  0
ARC
  8
21
 10
18.6630
 20
6.7591
 30
0.0000
 40
0.1683
 50
269.1818
 51
68.1989
  0
ARC
  8
21
 10
18.6763
 20
7.6915
 30
0.0000
 40
1.1008
 50
250.2090
 51
269.1819
  0
LINE
  8
21
 10
19.7161
 20
6.9154
 30
0.0000
 11
19.3916
 21
7.0452
 31
0.0000
  0
ARC
  8
21
 10
19.4541
 20
7.2014
 30
0.0000
 40
0.1683
 50
89.1818
 51
248.1989
  0
ARC
  8
21
 10
19.4460
 20
6.6327
 30
0.0000
 40
0.7371
 50
65.7612
 51
89.1819
  0
ARC
  8
21
 10
19.6536
 20
6.7591
 30
0.0000
 40
0.1683
 50
269.1818
 51
68.1989
  0
ARC
  8
21
 10
19.6669
 20
7.6915
 30
0.0000
 40
1.1008
 50
250.2090
 51
269.1819
  0
LINE
  8
21
 10
20.8041
 20
6.5908
 30
0.0000
 11
20.4795
 21
6.5908
 31
0.0000
  0
ARC
  8
21
 10
20.4795
 20
6.7855
 30
0.0000
 40
0.1947
 50
180.0000
 51
270.0000
  0
LINE
  8
21
 10
20.2848
 20
6.7855
 30
0.0000
 11
20.2848
 21
7.1101
 31
0.0000
  0
ARC
  8
21
 10
20.5445
 20
7.1101
 30
0.0000
 40
0.2596
 50
0.0000
 51
180.0000
  0
LINE
  8
21
 10
20.8041
 20
7.1101
 30
0.0000
 11
20.8041
 21
6.9803
 31
0.0000
  0
LINE
  8
21
 10
20.8041
 20
6.9803
 30
0.0000
 11
20.2848
 21
6.9803
 31
0.0000
  0
LINE
  8
21
 10
21.1787
 20
7.3697
 30
0.0000
 11
21.5682
 21
7.3697
 31
0.0000
  0
LINE
  8
21
 10
21.3085
 20
7.7592
 30
0.0000
 11
21.3085
 21
6.7855
 31
0.0000
  0
ARC
  8
21
 10
21.5032
 20
6.7855
 30
0.0000
 40
0.1947
 50
180.0000
 51
270.0000
  0
LINE
  8
21
 10
21.5032
 20
6.5908
 30
0.0000
 11
21.5682
 21
6.5908
 31
0.0000
  0
LINE
  8
21
 10
21.9026
 20
7.3697
 30
0.0000
 11
22.2920
 21
7.3697
 31
0.0000
  0
LINE
  8
21
 10
22.0324
 20
7.7592
 30
0.0000
 11
22.0324
 21
6.7855
 31
0.0000
  0
ARC
  8
21
 10
22.2271
 20
6.7855
 30
0.0000
 40
0.1947
 50
180.0000
 51
270.0000
  0
LINE
  8
21
 10
22.2271
 20
6.5908
 30
0.0000
 11
22.2920
 21
6.5908
 31
0.0000
  0
LINE
  8
21
 10
23.2425
 20
6.5908
 30
0.0000
 11
22.9179
 21
6.5908
 31
0.0000
  0
ARC
  8
21
 10
22.9179
 20
6.7855
 30
0.0000
 40
0.1947
 50
180.0000
 51
270.0000
  0
LINE
  8
21
 10
22.7232
 20
6.7855
 30
0.0000
 11
22.7232
 21
7.1101
 31
0.0000
  0
ARC
  8
21
 10
22.9829
 20
7.1101
 30
0.0000
 40
0.2596
 50
0.0000
 51
180.0000
  0
LINE
  8
21
 10
23.2425
 20
7.1101
 30
0.0000
 11
23.2425
 21
6.9803
 31
0.0000
  0
LINE
  8
21
 10
23.2425
 20
6.9803
 30
0.0000
 11
22.7232
 21
6.9803
 31
0.0000
  0
LINE
  8
21
 10
24.3802
 20
6.5908
 30
0.0000
 11
24.3802
 21
7.7592
 31
0.0000
  0
LINE
  8
21
 10
24.3802
 20
7.7592
 30
0.0000
 11
24.7047
 21
7.7592
 31
0.0000
  0
ARC
  8
21
 10
24.7047
 20
7.4346
 30
0.0000
 40
0.3246
 50
270.0000
 51
90.0000
  0
LINE
  8
21
 10
24.7047
 20
7.1101
 30
0.0000
 11
24.3802
 21
7.1101
 31
0.0000
  0
LINE
  8
21
 10
25.0293
 20
6.5908
 30
0.0000
 11
24.7696
 21
7.1101
 31
0.0000
  0
LINE
  8
21
 10
26.0238
 20
6.5908
 30
0.0000
 11
25.6992
 21
6.5908
 31
0.0000
  0
ARC
  8
21
 10
25.6992
 20
6.7855
 30
0.0000
 40
0.1947
 50
180.0000
 51
270.0000
  0
LINE
  8
21
 10
25.5045
 20
6.7855
 30
0.0000
 11
25.5045
 21
7.1101
 31
0.0000
  0
ARC
  8
21
 10
25.7642
 20
7.1101
 30
0.0000
 40
0.2596
 50
0.0000
 51
180.0000
  0
LINE
  8
21
 10
26.0238
 20
7.1101
 30
0.0000
 11
26.0238
 21
6.9803
 31
0.0000
  0
LINE
  8
21
 10
26.0238
 20
6.9803
 30
0.0000
 11
25.5045
 21
6.9803
 31
0.0000
  0
LINE
  8
21
 10
26.4570
 20
7.3697
 30
0.0000
 11
26.7167
 21
6.5908
 31
0.0000
  0
LINE
  8
21
 10
26.7167
 20
6.5908
 30
0.0000
 11
26.9763
 21
7.3697
 31
0.0000
  0
LINE
  8
21
 10
27.3700
 20
6.5908
 30
0.0000
 11
27.3700
 21
6.6557
 31
0.0000
  0
LINE
  8
21
 10
27.3700
 20
6.6557
 30
0.0000
 11
27.4349
 21
6.6557
 31
0.0000
  0
LINE
  8
21
 10
27.4349
 20
6.6557
 30
0.0000
 11
27.4349
 21
6.5908
 31
0.0000
  0
LINE
  8
21
 10
27.4349
 20
6.5908
 30
0.0000
 11
27.3700
 21
6.5908
 31
0.0000
  0
ARC
  8
21
 10
29.4504
 20
7.1750
 30
0.0000
 40
0.9628
 50
154.0109
 51
180.0001
  0
ARC
  8
21
 10
28.8121
 20
7.5190
 30
0.0000
 40
0.2402
 50
90.0000
 51
161.0751
  0
ARC
  8
21
 10
28.8121
 20
7.5190
 30
0.0000
 40
0.2402
 50
18.9248
 51
90.0002
  0
ARC
  8
21
 10
28.1739
 20
7.1750
 30
0.0000
 40
0.9629
 50
359.9999
 51
25.9891
  0
ARC
  8
21
 10
29.4505
 20
7.1750
 30
0.0000
 40
0.9629
 50
180.0000
 51
205.9888
  0
ARC
  8
21
 10
28.8121
 20
6.8310
 30
0.0000
 40
0.2402
 50
198.9254
 51
269.9998
  0
ARC
  8
21
 10
28.1738
 20
7.1750
 30
0.0000
 40
0.9629
 50
334.0112
 51
360.0000
  0
ARC
  8
21
 10
28.8121
 20
6.8310
 30
0.0000
 40
0.2402
 50
270.0000
 51
341.0747
  0
LINE
  8
21
 10
28.5525
 20
6.8504
 30
0.0000
 11
29.0718
 21
7.4996
 31
0.0000
  0
LINE
  8
21
 10
28.1750
 20
4.0393
 30
0.0000
 11
28.6265
 21
4.4005
 31
0.0000
  0
LINE
  8
21
 10
28.6265
 20
4.4005
 30
0.0000
 11
28.6265
 21
2.7750
 31
0.0000
  0
LINE
  8
21
 10
28.1750
 20
2.7750
 30
0.0000
 11
29.0781
 21
2.7750
 31
0.0000
  0
CIRCLE
  8
20
 10
3.0000
 20
13.0000
 30
0.0000
 40
1.7500
  0
CIRCLE
  8
20
 10
27.0000
 20
13.0000
 30
0.0000
 40
1.7500
  0
LINE
  8
51
 10
25.9000
 20
0.1000
 30
0.0000
 11
25.9000
 21
4.0000
 31
0.0000
  0
LINE
  8
51
 10
23.9000
 20
0.1000
 30
0.0000
 11
23.9000
 21
4.0000
 31
0.0000
  0
ARC
  8
51
 10
24.9000
 20
4.0000
 30
0.0000
 40
1.0000
 50
0.0000
 51
180.0000
  0
ARC
  8
51
 10
24.9000
 20
3.0000
 30
0.0000
 40
0.5000
 50
0.0000
 51
180.0000
  0
LINE
  8
51
 10
25.4000
 20
3.0000
 30
0.0000
 11
25.4000
 21
2.0000
 31
0.0000
  0
LINE
  8
51
 10
24.4000
 20
3.0000
 30
0.0000
 11
24.4000
 21
2.0000
 31
0.0000
  0
ARC
  8
51
 10
24.9000
 20
2.0000
 30
0.0000
 40
0.5000
 50
180.0000
 51
0.0000
  0
LINE
  8
21
 10
25.9000
 20
0.1000
 30
0.0000
 11
25.9000
 21
-1.0000
 31
0.0000
  0
LINE
  8
21
 10
23.9000
 20
0.1000
 30
0.0000
 11
23.9000
 21
-1.0000
 31
0.0000
  0
LINE
  8
21
 10
23.1700
 20
-1.0000
 30
0.0000
 11
23.1700
 21
0.0000
 31
0.0000
  0
LINE
  8
21
 10
23.1700
 20
0.0000
 30
0.0000
 11
22.6700
 21
0.0000
 31
0.0000
  0
LINE
  8
21
 10
22.6700
 20
0.0000
 30
0.0000
 11
22.6700
 21
-1.0000
 31
0.0000
  0
LINE
  8
21
 10
27.1300
 20
-1.0000
 30
0.0000
 11
27.1300
 21
0.0000
 31
0.0000
  0
LINE
  8
21
 10
27.1300
 20
0.0000
 30
0.0000
 11
26.6300
 21
0.0000
 31
0.0000
  0
LINE
  8
21
 10
26.6300
 20
0.0000
 30
0.0000
 11
26.6300
 21
-1.0000
 31
0.0000
  0
LINE
  8
51
 10
21.9400
 20
0.1000
 30
0.0000
 11
21.9400
 21
4.0000
 31
0.0000
  0
LINE
  8
51
 10
19.9400
 20
0.1000
 30
0.0000
 11
19.9400
 21
4.0000
 31
0.0000
  0
ARC
  8
51
 10
20.9400
 20
4.0000
 30
0.0000
 40
1.0000
 50
0.0000
 51
180.0000
  0
ARC
  8
51
 10
20.9400
 20
3.0000
 30
0.0000
 40
0.5000
 50
0.0000
 51
180.0000
  0
LINE
  8
51
 10
21.4400
 20
3.0000
 30
0.0000
 11
21.4400
 21
2.0000
 31
0.0000
  0
LINE
  8
51
 10
20.4400
 20
3.0000
 30
0.0000
 11
20.4400
 21
2.0000
 31
0.0000
  0
ARC
  8
51
 10
20.9400
 20
2.0000
 30
0.0000
 40
0.5000
 50
180.0000
 51
0.0000
  0
LINE
  8
21
 10
21.9400
 20
0.1000
 30
0.0000
 11
21.9400
 21
-1.0000
 31
0.0000
  0
LINE
  8
21
 10
19.9400
 20
0.1000
 30
0.0000
 11
19.9400
 21
-1.0000
 31
0.0000
  0
LINE
  8
21
 10
19.2100
 20
-1.0000
 30
0.0000
 11
19.2100
 21
0.0000
 31
0.0000
  0
LINE
  8
21
 10
19.2100
 20
0.0000
 30
0.0000
 11
18.7100
 21
0.0000
 31
0.0000
  0
LINE
  8
21
 10
18.7100
 20
0.0000
 30
0.0000
 11
18.7100
 21
-1.0000
 31
0.0000
  0
LINE
  8
51
 10
17.9800
 20
0.1000
 30
0.0000
 11
17.9800
 21
4.0000
 31
0.0000
  0
LINE
  8
51
 10
15.9800
 20
0.1000
 30
0.0000
 11
15.9800
 21
4.0000
 31
0.0000
  0
ARC
  8
51
 10
16.9800
 20
4.0000
 30
0.0000
 40
1.0000
 50
0.0000
 51
180.0000
  0
ARC
  8
51
 10
16.9800
 20
3.0000
 30
0.0000
 40
0.5000
 50
0.0000
 51
180.0000
  0
LINE
  8
51
 10
17.4800
 20
3.0000
 30
0.0000
 11
17.4800
 21
2.0000
 31
0.0000
  0
LINE
  8
51
 10
16.4800
 20
3.0000
 30
0.0000
 11
16.4800
 21
2.0000
 31
0.0000
  0
ARC
  8
51
 10
16.9800
 20
2.0000
 30
0.0000
 40
0.5000
 50
180.0000
 51
0.0000
  0
LINE
  8
21
 10
17.9800
 20
0.1000
 30
0.0000
 11
17.9800
 21
-1.0000
 31
0.0000
  0
LINE
  8
21
 10
15.9800
 20
0.1000
 30
0.0000
 11
15.9800
 21
-1.0000
 31
0.0000
  0
LINE
  8
21
 10
15.2500
 20
-1.0000
 30
0.0000
 11
15.2500
 21
0.0000
 31
0.0000
  0
LINE
  8
21
 10
15.2500
 20
0.0000
 30
0.0000
 11
14.7500
 21
0.0000
 31
0.0000
  0
LINE
  8
21
 10
14.7500
 20
0.0000
 30
0.0000
 11
14.7500
 21
-1.0000
 31
0.0000
  0
LINE
  8
51
 10
14.0200
 20
0.1000
 30
0.0000
 11
14.0200
 21
4.0000
 31
0.0000
  0
LINE
  8
51
 10
12.0200
 20
0.1000
 30
0.0000
 11
12.0200
 21
4.0000
 31
0.0000
  0
ARC
  8
51
 10
13.0200
 20
4.0000
 30
0.0000
 40
1.0000
 50
0.0000
 51
180.0000
  0
ARC
  8
51
 10
13.0200
 20
3.0000
 30
0.0000
 40
0.5000
 50
0.0000
 51
180.0000
  0
LINE
  8
51
 10
13.5200
 20
3.0000
 30
0.0000
 11
13.5200
 21
2.0000
 31
0.0000
  0
LINE
  8
51
 10
12.5200
 20
3.0000
 30
0.0000
 11
12.5200
 21
2.0000
 31
0.0000
  0
ARC
  8
51
 10
13.0200
 20
2.0000
 30
0.0000
 40
0.5000
 50
180.0000
 51
0.0000
  0
LINE
  8
21
 10
14.0200
 20
0.1000
 30
0.0000
 11
14.0200
 21
-1.0000
 31
0.0000
  0
LINE
  8
21
 10
12.0200
 20
0.1000
 30
0.0000
 11
12.0200
 21
-1.0000
 31
0.0000
  0
LINE
  8
21
 10
11.2900
 20
-1.0000
 30
0.0000
 11
11.2900
 21
0.0000
 31
0.0000
  0
LINE
  8
21
 10
11.2900
 20
0.0000
 30
0.0000
 11
10.7900
 21
0.0000
 31
0.0000
  0
LINE
  8
21
 10
10.7900
 20
0.0000
 30
0.0000
 11
10.7900
 21
-1.0000
 31
0.0000
  0
LINE
  8
51
 10
10.0600
 20
0.1000
 30
0.0000
 11
10.0600
 21
4.0000
 31
0.0000
  0
LINE
  8
51
 10
8.0600
 20
0.1000
 30
0.0000
 11
8.0600
 21
4.0000
 31
0.0000
  0
ARC
  8
51
 10
9.0600
 20
4.0000
 30
0.0000
 40
1.0000
 50
0.0000
 51
180.0000
  0
ARC
  8
51
 10
9.0600
 20
3.0000
 30
0.0000
 40
0.5000
 50
0.0000
 51
180.0000
  0
LINE
  8
51
 10
9.5600
 20
3.0000
 30
0.0000
 11
9.5600
 21
2.0000
 31
0.0000
  0
LINE
  8
51
 10
8.5600
 20
3.0000
 30
0.0000
 11
8.5600
 21
2.0000
 31
0.0000
  0
ARC
  8
51
 10
9.0600
 20
2.0000
 30
0.0000
 40
0.5000
 50
180.0000
 51
0.0000
  0
LINE
  8
21
 10
10.0600
 20
0.1000
 30
0.0000
 11
10.0600
 21
-1.0000
 31
0.0000
  0
LINE
  8
21
 10
8.0600
 20
0.1000
 30
0.0000
 11
8.0600
 21
-1.0000
 31
0.0000
  0
LINE
  8
21
 10
7.3300
 20
-1.0000
 30
0.0000
 11
7.3300
 21
0.0000
 31
0.0000
  0
LINE
  8
21
 10
7.3300
 20
0.0000
 30
0.0000
 11
6.8300
 21
0.0000
 31
0.0000
  0
LINE
  8
21
 10
6.8300
 20
0.0000
 30
0.0000
 11
6.8300
 21
-1.0000
 31
0.0000
  0
LINE
  8
51
 10
6.1000
 20
0.1000
 30
0.0000
 11
6.1000
 21
4.0000
 31
0.0000
  0
LINE
  8
51
 10
4.1000
 20
0.1000
 30
0.0000
 11
4.1000
 21
4.0000
 31
0.0000
  0
ARC
  8
51
 10
5.1000
 20
4.0000
 30
0.0000
 40
1.0000
 50
0.0000
 51
180.0000
  0
ARC
  8
51
 10
5.1000
 20
3.0000
 30
0.0000
 40
0.5000
 50
0.0000
 51
180.0000
  0
LINE
  8
51
 10
5.6000
 20
3.0000
 30
0.0000
 11
5.6000
 21
2.0000
 31
0.0000
  0
LINE
  8
51
 10
4.6000
 20
3.0000
 30
0.0000
 11
4.6000
 21
2.0000
 31
0.0000
  0
ARC
  8
51
 10
5.1000
 20
2.0000
 30
0.0000
 40
0.5000
 50
180.0000
 51
0.0000
  0
LINE
  8
21
 10
6.1000
 20
0.1000
 30
0.0000
 11
6.1000
 21
-1.0000
 31
0.0000
  0
LINE
  8
21
 10
4.1000
 20
0.1000
 30
0.0000
 11
4.1000
 21
-1.0000
 31
0.0000
  0
LINE
  8
21
 10
3.3700
 20
-1.0000
 30
0.0000
 11
3.3700
 21
0.0000
 31
0.0000
  0
LINE
  8
21
 10
3.3700
 20
0.0000
 30
0.0000
 11
2.8700
 21
0.0000
 31
0.0000
  0
LINE
  8
21
 10
2.8700
 20
0.0000
 30
0.0000
 11
2.8700
 21
-1.0000
 31
0.0000
  0
LINE
  8
21
 10
37.3700
 20
0.0000
 30
0.0000
 11
37.3700
 21
-6.8000
 31
0.0000
  0
LINE
  8
21
 10
-7.3700
 20
0.0000
 30
0.0000
 11
-7.3700
 21
-6.8000
 31
0.0000
  0
LINE
  8
21
 10
29.9200
 20
-1.0000
 30
0.0000
 11
0.0800
 21
-1.0000
 31
0.0000
  0
LINE
  8
21
 10
0.0800
 20
-1.0000
 30
0.0000
 11
0.0800
 21
0.0000
 31
0.0000
  0
LINE
  8
21
 10
0.0800
 20
0.0000
 30
0.0000
 11
-2.4200
 21
0.0000
 31
0.0000
  0
LINE
  8
21
 10
-2.4200
 20
0.0000
 30
0.0000
 11
-4.1200
 21
0.0000
 31
0.0000
  0
LINE
  8
21
 10
-4.1200
 20
0.0000
 30
0.0000
 11
-5.8200
 21
0.0000
 31
0.0000
  0
LINE
  8
21
 10
-5.8200
 20
0.0000
 30
0.0000
 11
-7.3700
 21
0.0000
 31
0.0000
  0
LINE
  8
21
 10
37.3700
 20
0.0000
 30
0.0000
 11
35.8200
 21
0.0000
 31
0.0000
  0
LINE
  8
21
 10
35.8200
 20
0.0000
 30
0.0000
 11
34.1200
 21
0.0000
 31
0.0000
  0
LINE
  8
21
 10
34.1200
 20
0.0000
 30
0.0000
 11
32.4200
 21
0.0000
 31
0.0000
  0
LINE
  8
21
 10
32.4200
 20
0.0000
 30
0.0000
 11
29.9200
 21
0.0000
 31
0.0000
  0
LINE
  8
21
 10
29.9200
 20
0.0000
 30
0.0000
 11
29.9200
 21
-1.0000
 31
0.0000
  0
LINE
  8
21
 10
30.6200
 20
-11.6000
 30
0.0000
 11
-0.6200
 21
-11.6000
 31
0.0000
  0
LINE
  8
21
 10
-0.6200
 20
-11.6000
 30
0.0000
 11
-0.6200
 21
-6.8000
 31
0.0000
  0
LINE
  8
21
 10
-0.6200
 20
-6.8000
 30
0.0000
 11
-2.4200
 21
-6.8000
 31
0.0000
  0
LINE
  8
21
 10
-2.4200
 20
-6.8000
 30
0.0000
 11
-5.8200
 21
-6.8000
 31
0.0000
  0
LINE
  8
21
 10
-5.8200
 20
-6.8000
 30
0.0000
 11
-7.3700
 21
-6.8000
 31
0.0000
  0
LINE
  8
21
 10
37.3700
 20
-6.8000
 30
0.0000
 11
35.8200
 21
-6.8000
 31
0.0000
  0
LINE
  8
21
 10
35.8200
 20
-6.8000
 30
0.0000
 11
32.4200
 21
-6.8000
 31
0.0000
  0
LINE
  8
21
 10
32.4200
 20
-6.8000
 30
0.0000
 11
30.6200
 21
-6.8000
 31
0.0000
  0
LINE
  8
21
 10
30.6200
 20
-6.8000
 30
0.0000
 11
30.6200
 21
-11.6000
 31
0.0000
  0
LINE
  8
21
 10
-4.1200
 20
0.0000
 30
0.0000
 11
-4.1200
 21
-2.8667
 31
0.0000
  0
LINE
  8
21
 10
-4.1200
 20
-3.5480
 30
0.0000
 11
-4.1200
 21
-3.6853
 31
0.0000
  0
LINE
  8
21
 10
-4.1200
 20
-4.3667
 30
0.0000
 11
-4.1200
 21
-7.2333
 31
0.0000
  0
LINE
  8
21
 10
-4.1200
 20
-7.9147
 30
0.0000
 11
-4.1200
 21
-8.0520
 31
0.0000
  0
LINE
  8
21
 10
-4.1200
 20
-8.7333
 30
0.0000
 11
-4.1200
 21
-11.6000
 31
0.0000
  0
LINE
  8
21
 10
34.1200
 20
-11.6000
 30
0.0000
 11
34.1200
 21
-8.7333
 31
0.0000
  0
LINE
  8
21
 10
34.1200
 20
-8.0520
 30
0.0000
 11
34.1200
 21
-7.9147
 31
0.0000
  0
LINE
  8
21
 10
34.1200
 20
-7.2333
 30
0.0000
 11
34.1200
 21
-4.3667
 31
0.0000
  0
LINE
  8
21
 10
34.1200
 20
-3.6853
 30
0.0000
 11
34.1200
 21
-3.5480
 31
0.0000
  0
LINE
  8
21
 10
34.1200
 20
-2.8667
 30
0.0000
 11
34.1200
 21
0.0000
 31
0.0000
  0
LINE
  8
21
 10
-5.8200
 20
-6.8000
 30
0.0000
 11
-5.8200
 21
-5.2000
 31
0.0000
  0
LINE
  8
21
 10
-5.8200
 20
-4.2000
 30
0.0000
 11
-5.8200
 21
-2.6000
 31
0.0000
  0
LINE
  8
21
 10
-5.8200
 20
-1.6000
 30
0.0000
 11
-5.8200
 21
0.0000
 31
0.0000
  0
LINE
  8
21
 10
-2.4200
 20
-6.8000
 30
0.0000
 11
-2.4200
 21
-5.2000
 31
0.0000
  0
LINE
  8
21
 10
-2.4200
 20
-4.2000
 30
0.0000
 11
-2.4200
 21
-2.6000
 31
0.0000
  0
LINE
  8
21
 10
-2.4200
 20
-1.6000
 30
0.0000
 11
-2.4200
 21
0.0000
 31
0.0000
  0
LINE
  8
21
 10
35.8200
 20
-6.8000
 30
0.0000
 11
35.8200
 21
-5.2000
 31
0.0000
  0
LINE
  8
21
 10
35.8200
 20
-4.2000
 30
0.0000
 11
35.8200
 21
-2.6000
 31
0.0000
  0
LINE
  8
21
 10
35.8200
 20
-1.6000
 30
0.0000
 11
35.8200
 21
0.0000
 31
0.0000
  0
LINE
  8
21
 10
32.4200
 20
-6.8000
 30
0.0000
 11
32.4200
 21
-5.2000
 31
0.0000
  0
LINE
  8
21
 10
32.4200
 20
-4.2000
 30
0.0000
 11
32.4200
 21
-2.6000
 31
0.0000
  0
LINE
  8
21
 10
32.4200
 20
-1.6000
 30
0.0000
 11
32.4200
 21
0.0000
 31
0.0000
  0
LINE
  8
21
 10
22.6200
 20
8.3962
 30
0.0000
 11
7.3800
 21
8.3962
 31
0.0000
  0
LINE
  8
21
 10
7.3800
 20
8.3962
 30
0.0000
 11
7.3800
 21
9.8250
 31
0.0000
  0
LINE
  8
21
 10
7.3800
 20
9.8250
 30
0.0000
 11
7.3800
 21
11.2537
 31
0.0000
  0
LINE
  8
21
 10
7.3800
 20
11.2537
 30
0.0000
 11
7.3800
 21
17.6038
 31
0.0000
  0
LINE
  8
21
 10
7.3800
 20
17.6038
 30
0.0000
 11
13.7300
 21
17.6038
 31
0.0000
  0
LINE
  8
21
 10
13.7300
 20
17.6038
 30
0.0000
 11
16.2700
 21
17.6038
 31
0.0000
  0
LINE
  8
21
 10
16.2700
 20
17.6038
 30
0.0000
 11
22.6200
 21
17.6038
 31
0.0000
  0
LINE
  8
21
 10
22.6200
 20
17.6038
 30
0.0000
 11
22.6200
 21
11.2537
 31
0.0000
  0
LINE
  8
21
 10
22.6200
 20
11.2537
 30
0.0000
 11
22.6200
 21
9.8250
 31
0.0000
  0
LINE
  8
21
 10
22.6200
 20
9.8250
 30
0.0000
 11
22.6200
 21
8.3962
 31
0.0000
  0
LINE
  8
21
 10
21.3500
 20
9.6662
 30
0.0000
 11
8.6500
 21
9.6662
 31
0.0000
  0
LINE
  8
21
 10
8.6500
 20
9.6662
 30
0.0000
 11
8.6500
 21
9.8250
 31
0.0000
  0
LINE
  8
21
 10
8.6500
 20
9.8250
 30
0.0000
 11
8.6500
 21
11.2537
 31
0.0000
  0
LINE
  8
21
 10
8.6500
 20
11.2537
 30
0.0000
 11
8.6500
 21
16.3338
 31
0.0000
  0
LINE
  8
21
 10
8.6500
 20
16.3338
 30
0.0000
 11
13.7300
 21
16.3338
 31
0.0000
  0
LINE
  8
21
 10
13.7300
 20
16.3338
 30
0.0000
 11
16.2700
 21
16.3338
 31
0.0000
  0
LINE
  8
21
 10
16.2700
 20
16.3338
 30
0.0000
 11
21.3500
 21
16.3338
 31
0.0000
  0
LINE
  8
21
 10
21.3500
 20
16.3338
 30
0.0000
 11
21.3500
 21
11.2537
 31
0.0000
  0
LINE
  8
21
 10
21.3500
 20
11.2537
 30
0.0000
 11
21.3500
 21
9.8250
 31
0.0000
  0
LINE
  8
21
 10
21.3500
 20
9.8250
 30
0.0000
 11
21.3500
 21
9.6662
 31
0.0000
  0
LINE
  8
21
 10
16.2700
 20
16.3338
 30
0.0000
 11
16.2700
 21
16.8100
 31
0.0000
  0
LINE
  8
21
 10
16.2700
 20
16.8100
 30
0.0000
 11
16.2700
 21
17.6038
 31
0.0000
  0
LINE
  8
21
 10
13.7300
 20
16.3338
 30
0.0000
 11
13.7300
 21
16.8100
 31
0.0000
  0
LINE
  8
21
 10
13.7300
 20
16.8100
 30
0.0000
 11
13.7300
 21
17.6038
 31
0.0000
  0
LINE
  8
21
 10
8.6500
 20
9.8250
 30
0.0000
 11
8.1737
 21
9.8250
 31
0.0000
  0
LINE
  8
21
 10
8.1737
 20
9.8250
 30
0.0000
 11
7.3800
 21
9.8250
 31
0.0000
  0
LINE
  8
21
 10
21.3500
 20
9.8250
 30
0.0000
 11
21.8263
 21
9.8250
 31
0.0000
  0
LINE
  8
21
 10
21.8263
 20
9.8250
 30
0.0000
 11
22.6200
 21
9.8250
 31
0.0000
  0
LINE
  8
21
 10
21.3500
 20
11.2537
 30
0.0000
 11
21.8263
 21
11.2537
 31
0.0000
  0
LINE
  8
21
 10
21.8263
 20
11.2537
 30
0.0000
 11
22.6200
 21
11.2537
 31
0.0000
  0
LINE
  8
21
 10
8.6500
 20
11.2537
 30
0.0000
 11
8.1737
 21
11.2537
 31
0.0000
  0
LINE
  8
21
 10
8.1737
 20
11.2537
 30
0.0000
 11
7.3800
 21
11.2537
 31
0.0000
  0
LINE
  8
21
 10
21.8263
 20
9.1900
 30
0.0000
 11
8.1737
 21
9.1900
 31
0.0000
  0
LINE
  8
21
 10
13.7300
 20
16.8100
 30
0.0000
 11
8.1737
 21
16.8100
 31
0.0000
  0
LINE
  8
21
 10
8.1737
 20
11.2537
 30
0.0000
 11
8.1737
 21
16.8100
 31
0.0000
  0
LINE
  8
21
 10
21.8263
 20
9.1900
 30
0.0000
 11
21.8263
 21
9.8250
 31
0.0000
  0
LINE
  8
21
 10
21.8263
 20
11.2537
 30
0.0000
 11
21.8263
 21
16.8100
 31
0.0000
  0
LINE
  8
21
 10
16.2700
 20
16.8100
 30
0.0000
 11
21.8263
 21
16.8100
 31
0.0000
  0
LINE
  8
21
 10
8.1737
 20
9.8250
 30
0.0000
 11
8.1737
 21
9.1900
 31
0.0000
  0
LINE
  8
21
 10
8.6500
 20
16.3338
 30
0.0000
 11
8.1737
 21
16.8100
 31
0.0000
  0
LINE
  8
21
 10
8.6500
 20
9.6662
 30
0.0000
 11
8.1737
 21
9.1900
 31
0.0000
  0
LINE
  8
21
 10
21.8263
 20
9.1900
 30
0.0000
 11
21.3500
 21
9.6662
 31
0.0000
  0
LINE
  8
21
 10
21.8263
 20
16.8100
 30
0.0000
 11
21.3500
 21
16.3338
 31
0.0000
  0
ARC
  8
21
 10
20.7150
 20
8.3962
 30
0.0000
 40
0.6350
 50
180.0000
 51
0.0000
  0
ARC
  8
21
 10
9.2850
 20
8.3962
 30
0.0000
 40
0.6350
 50
180.0000
 51
0.0000
  0
ARC
  8
21
 10
15.0794
 20
8.3962
 30
0.0000
 40
0.5556
 50
180.0000
 51
0.0000
  0
LINE
  8
21
 10
17.5400
 20
15.3812
 30
0.0000
 11
18.1750
 21
16.0162
 31
0.0000
  0
LINE
  8
21
 10
18.1750
 20
16.0162
 30
0.0000
 11
18.0163
 21
16.0162
 31
0.0000
  0
LINE
  8
21
 10
17.2225
 20
16.0162
 30
0.0000
 11
17.0638
 21
16.0162
 31
0.0000
  0
LINE
  8
21
 10
17.0638
 20
16.0162
 30
0.0000
 11
16.9050
 21
16.0162
 31
0.0000
  0
LINE
  8
21
 10
16.9050
 20
16.0162
 30
0.0000
 11
17.5400
 21
15.3812
 31
0.0000
  0
LINE
  8
21
 10
17.0638
 20
16.0162
 30
0.0000
 11
17.5400
 21
15.5400
 31
0.0000
  0
LINE
  8
21
 10
17.5400
 20
15.5400
 30
0.0000
 11
18.0163
 21
16.0162
 31
0.0000
  0
LINE
  8
21
 10
18.0163
 20
16.0162
 30
0.0000
 11
17.8575
 21
16.0162
 31
0.0000
  0
LINE
  8
21
 10
17.3813
 20
16.0162
 30
0.0000
 11
17.2225
 21
16.0162
 31
0.0000
  0
LINE
  8
21
 10
17.2225
 20
16.0162
 30
0.0000
 11
17.5400
 21
15.6987
 31
0.0000
  0
LINE
  8
21
 10
17.5400
 20
15.6987
 30
0.0000
 11
17.8575
 21
16.0162
 31
0.0000
  0
LINE
  8
21
 10
17.8575
 20
16.0162
 30
0.0000
 11
17.6988
 21
16.0162
 31
0.0000
  0
LINE
  8
21
 10
17.6988
 20
16.0162
 30
0.0000
 11
17.3813
 21
16.0162
 31
0.0000
  0
LINE
  8
21
 10
17.3813
 20
16.0162
 30
0.0000
 11
17.5400
 21
15.8575
 31
0.0000
  0
LINE
  8
21
 10
17.5400
 20
15.8575
 30
0.0000
 11
17.6988
 21
16.0162
 31
0.0000
  0
INSERT
  8
51
  2
RECT
 10
17.5400
 20
11.7300
 30
0.0000
 41
0.5080
 42
0.5080
 43
1.0000
 50
180.0000
  0
INSERT
  8
51
  2
RECT
 10
17.5400
 20
14.2700
 30
0.0000
 41
0.5080
 42
0.5080
 43
1.0000
 50
180.0000
  0
INSERT
  8
51
  2
RECT
 10
15.0000
 20
11.7300
 30
0.0000
 41
0.5080
 42
0.5080
 43
1.0000
 50
180.0000
  0
INSERT
  8
51
  2
RECT
 10
15.0000
 20
14.2700
 30
0.0000
 41
0.5080
 42
0.5080
 43
1.0000
 50
180.0000
  0
INSERT
  8
51
  2
RECT
 10
12.4600
 20
11.7300
 30
0.0000
 41
0.5080
 42
0.5080
 43
1.0000
 50
180.0000
  0
INSERT
  8
51
  2
RECT
 10
12.4600
 20
14.2700
 30
0.0000
 41
0.5080
 42
0.5080
 43
1.0000
 50
180.0000
  0
LINE
  8
21
 10
1.5177
 20
31.4489
 30
0.0000
 11
1.5177
 21
32.7951
 31
0.0000
  0
LINE
  8
21
 10
1.5177
 20
32.7951
 30
0.0000
 11
1.8916
 21
32.7951
 31
0.0000
  0
ARC
  8
21
 10
1.8916
 20
32.5708
 30
0.0000
 40
0.2244
 50
0.0000
 51
90.0000
  0
LINE
  8
21
 10
2.1160
 20
32.5708
 30
0.0000
 11
2.1160
 21
32.1220
 31
0.0000
  0
ARC
  8
21
 10
1.8916
 20
32.1220
 30
0.0000
 40
0.2244
 50
270.0008
 51
0.0000
  0
LINE
  8
21
 10
1.8916
 20
31.8977
 30
0.0000
 11
1.5177
 21
31.8977
 31
0.0000
  0
LINE
  8
21
 10
2.7073
 20
33.2439
 30
0.0000
 11
2.7073
 21
32.1220
 31
0.0000
  0
ARC
  8
21
 10
2.9316
 20
32.1220
 30
0.0000
 40
0.2244
 50
180.0000
 51
270.0000
  0
LINE
  8
21
 10
4.0152
 20
32.4212
 30
0.0000
 11
3.6786
 21
32.4212
 31
0.0000
  0
ARC
  8
21
 10
3.6786
 20
32.1594
 30
0.0000
 40
0.2618
 50
90.0000
 51
270.0000
  0
LINE
  8
21
 10
3.6786
 20
31.8977
 30
0.0000
 11
4.0152
 21
31.8977
 31
0.0000
  0
LINE
  8
21
 10
4.0152
 20
31.8977
 30
0.0000
 11
4.0152
 21
32.5708
 31
0.0000
  0
ARC
  8
21
 10
3.7908
 20
32.5708
 30
0.0000
 40
0.2244
 50
0.0000
 51
90.0000
  0
LINE
  8
21
 10
3.7908
 20
32.7951
 30
0.0000
 11
3.4916
 21
32.7951
 31
0.0000
  0
LINE
  8
21
 10
5.1829
 20
31.8977
 30
0.0000
 11
4.8837
 21
31.8977
 31
0.0000
  0
ARC
  8
21
 10
4.8837
 20
32.1220
 30
0.0000
 40
0.2244
 50
180.0000
 51
270.0000
  0
LINE
  8
21
 10
4.6594
 20
32.1220
 30
0.0000
 11
4.6594
 21
32.5708
 31
0.0000
  0
ARC
  8
21
 10
4.8837
 20
32.5708
 30
0.0000
 40
0.2244
 50
89.9992
 51
180.0000
  0
LINE
  8
21
 10
4.8837
 20
32.7951
 30
0.0000
 11
5.1829
 21
32.7951
 31
0.0000
  0
LINE
  8
21
 10
6.3052
 20
31.8977
 30
0.0000
 11
5.9312
 21
31.8977
 31
0.0000
  0
ARC
  8
21
 10
5.9312
 20
32.1220
 30
0.0000
 40
0.2244
 50
180.0000
 51
270.0000
  0
LINE
  8
21
 10
5.7069
 20
32.1220
 30
0.0000
 11
5.7069
 21
32.4960
 31
0.0000
  0
ARC
  8
21
 10
6.0060
 20
32.4960
 30
0.0000
 40
0.2992
 50
0.0000
 51
180.0000
  0
LINE
  8
21
 10
6.3052
 20
32.4960
 30
0.0000
 11
6.3052
 21
32.3464
 31
0.0000
  0
LINE
  8
21
 10
6.3052
 20
32.3464
 30
0.0000
 11
5.7069
 21
32.3464
 31
0.0000
  0
LINE
  8
21
 10
6.9718
 20
31.8977
 30
0.0000
 11
6.9718
 21
32.7951
 31
0.0000
  0
LINE
  8
21
 10
6.9718
 20
32.7951
 30
0.0000
 11
7.6449
 21
32.7951
 31
0.0000
  0
ARC
  8
21
 10
7.6449
 20
32.5708
 30
0.0000
 40
0.2244
 50
0.0000
 51
90.0000
  0
LINE
  8
21
 10
7.8692
 20
32.5708
 30
0.0000
 11
7.8692
 21
31.8977
 31
0.0000
  0
LINE
  8
21
 10
7.4205
 20
31.8977
 30
0.0000
 11
7.4205
 21
32.7951
 31
0.0000
  0
LINE
  8
21
 10
9.1341
 20
31.8977
 30
0.0000
 11
8.7602
 21
31.8977
 31
0.0000
  0
ARC
  8
21
 10
8.7602
 20
32.1220
 30
0.0000
 40
0.2244
 50
180.0000
 51
270.0000
  0
LINE
  8
21
 10
8.5358
 20
32.1220
 30
0.0000
 11
8.5358
 21
32.4960
 31
0.0000
  0
ARC
  8
21
 10
8.8350
 20
32.4960
 30
0.0000
 40
0.2992
 50
0.0000
 51
180.0000
  0
LINE
  8
21
 10
9.1341
 20
32.4960
 30
0.0000
 11
9.1341
 21
32.3464
 31
0.0000
  0
LINE
  8
21
 10
9.1341
 20
32.3464
 30
0.0000
 11
8.5358
 21
32.3464
 31
0.0000
  0
LINE
  8
21
 10
9.7678
 20
31.8977
 30
0.0000
 11
9.7678
 21
32.7951
 31
0.0000
  0
LINE
  8
21
 10
9.7678
 20
32.7951
 30
0.0000
 11
10.1417
 21
32.7951
 31
0.0000
  0
ARC
  8
21
 10
10.1417
 20
32.5708
 30
0.0000
 40
0.2244
 50
0.0000
 51
90.0000
  0
LINE
  8
21
 10
10.3661
 20
32.5708
 30
0.0000
 11
10.3661
 21
31.8977
 31
0.0000
  0
LINE
  8
21
 10
10.8785
 20
32.7951
 30
0.0000
 11
11.3273
 21
32.7951
 31
0.0000
  0
LINE
  8
21
 10
11.0281
 20
33.2439
 30
0.0000
 11
11.0281
 21
32.1220
 31
0.0000
  0
ARC
  8
21
 10
11.2525
 20
32.1220
 30
0.0000
 40
0.2244
 50
180.0000
 51
270.0000
  0
LINE
  8
21
 10
11.2525
 20
31.8977
 30
0.0000
 11
11.3273
 21
31.8977
 31
0.0000
  0
LINE
  8
21
 10
13.1222
 20
31.8977
 30
0.0000
 11
12.8231
 21
31.8977
 31
0.0000
  0
ARC
  8
21
 10
12.8231
 20
32.1220
 30
0.0000
 40
0.2244
 50
180.0000
 51
270.0000
  0
LINE
  8
21
 10
12.5987
 20
32.1220
 30
0.0000
 11
12.5987
 21
32.5708
 31
0.0000
  0
ARC
  8
21
 10
12.8231
 20
32.5708
 30
0.0000
 40
0.2244
 50
89.9992
 51
180.0000
  0
LINE
  8
21
 10
12.8231
 20
32.7951
 30
0.0000
 11
13.1222
 21
32.7951
 31
0.0000
  0
LINE
  8
21
 10
13.6462
 20
32.1968
 30
0.0000
 11
13.6462
 21
32.4960
 31
0.0000
  0
ARC
  8
21
 10
13.9454
 20
32.4960
 30
0.0000
 40
0.2992
 50
0.0000
 51
180.0000
  0
LINE
  8
21
 10
14.2445
 20
32.4960
 30
0.0000
 11
14.2445
 21
32.1968
 31
0.0000
  0
ARC
  8
21
 10
13.9454
 20
32.1968
 30
0.0000
 40
0.2992
 50
180.0000
 51
0.0000
  0
LINE
  8
21
 10
14.9111
 20
31.8977
 30
0.0000
 11
14.9111
 21
32.7951
 31
0.0000
  0
LINE
  8
21
 10
14.9111
 20
32.7951
 30
0.0000
 11
15.5842
 21
32.7951
 31
0.0000
  0
ARC
  8
21
 10
15.5842
 20
32.5708
 30
0.0000
 40
0.2244
 50
0.0000
 51
90.0000
  0
LINE
  8
21
 10
15.8086
 20
32.5708
 30
0.0000
 11
15.8086
 21
31.8977
 31
0.0000
  0
LINE
  8
21
 10
15.3598
 20
31.8977
 30
0.0000
 11
15.3598
 21
32.7951
 31
0.0000
  0
LINE
  8
21
 10
16.5294
 20
31.4489
 30
0.0000
 11
16.5294
 21
32.7951
 31
0.0000
  0
LINE
  8
21
 10
16.5294
 20
32.7951
 30
0.0000
 11
16.9033
 21
32.7951
 31
0.0000
  0
ARC
  8
21
 10
16.9033
 20
32.5708
 30
0.0000
 40
0.2244
 50
0.0000
 51
90.0000
  0
LINE
  8
21
 10
17.1277
 20
32.5708
 30
0.0000
 11
17.1277
 21
32.1220
 31
0.0000
  0
ARC
  8
21
 10
16.9033
 20
32.1220
 30
0.0000
 40
0.2244
 50
270.0008
 51
0.0000
  0
LINE
  8
21
 10
16.9033
 20
31.8977
 30
0.0000
 11
16.5294
 21
31.8977
 31
0.0000
  0
LINE
  8
21
 10
17.7071
 20
32.1968
 30
0.0000
 11
17.7071
 21
32.4960
 31
0.0000
  0
ARC
  8
21
 10
18.0063
 20
32.4960
 30
0.0000
 40
0.2992
 50
0.0000
 51
180.0000
  0
LINE
  8
21
 10
18.3054
 20
32.4960
 30
0.0000
 11
18.3054
 21
32.1968
 31
0.0000
  0
ARC
  8
21
 10
18.0063
 20
32.1968
 30
0.0000
 40
0.2992
 50
180.0000
 51
0.0000
  0
LINE
  8
21
 10
18.9391
 20
31.8977
 30
0.0000
 11
18.9391
 21
32.7951
 31
0.0000
  0
LINE
  8
21
 10
18.9391
 20
32.7951
 30
0.0000
 11
19.3130
 21
32.7951
 31
0.0000
  0
ARC
  8
21
 10
19.3130
 20
32.5708
 30
0.0000
 40
0.2244
 50
0.0000
 51
90.0000
  0
LINE
  8
21
 10
19.5374
 20
32.5708
 30
0.0000
 11
19.5374
 21
31.8977
 31
0.0000
  0
LINE
  8
21
 10
20.7694
 20
31.8977
 30
0.0000
 11
20.3954
 21
31.8977
 31
0.0000
  0
ARC
  8
21
 10
20.3954
 20
32.1220
 30
0.0000
 40
0.2244
 50
180.0000
 51
270.0000
  0
LINE
  8
21
 10
20.1711
 20
32.1220
 30
0.0000
 11
20.1711
 21
32.4960
 31
0.0000
  0
ARC
  8
21
 10
20.4702
 20
32.4960
 30
0.0000
 40
0.2992
 50
0.0000
 51
180.0000
  0
LINE
  8
21
 10
20.7694
 20
32.4960
 30
0.0000
 11
20.7694
 21
32.3464
 31
0.0000
  0
LINE
  8
21
 10
20.7694
 20
32.3464
 30
0.0000
 11
20.1711
 21
32.3464
 31
0.0000
  0
LINE
  8
21
 10
21.4030
 20
31.8977
 30
0.0000
 11
21.4030
 21
32.7951
 31
0.0000
  0
LINE
  8
21
 10
21.4030
 20
32.7951
 30
0.0000
 11
21.7770
 21
32.7951
 31
0.0000
  0
ARC
  8
21
 10
21.7770
 20
32.5708
 30
0.0000
 40
0.2244
 50
0.0000
 51
90.0000
  0
LINE
  8
21
 10
22.0014
 20
32.5708
 30
0.0000
 11
22.0014
 21
31.8977
 31
0.0000
  0
LINE
  8
21
 10
22.5138
 20
32.7951
 30
0.0000
 11
22.9625
 21
32.7951
 31
0.0000
  0
LINE
  8
21
 10
22.6634
 20
33.2439
 30
0.0000
 11
22.6634
 21
32.1220
 31
0.0000
  0
ARC
  8
21
 10
22.8877
 20
32.1220
 30
0.0000
 40
0.2244
 50
180.0000
 51
270.0000
  0
LINE
  8
21
 10
22.8877
 20
31.8977
 30
0.0000
 11
22.9625
 21
31.8977
 31
0.0000
  0
LINE
  8
21
 10
24.7181
 20
32.2716
 30
0.0000
 11
24.3442
 21
32.4212
 31
0.0000
  0
ARC
  8
21
 10
24.4162
 20
32.6012
 30
0.0000
 40
0.1939
 50
89.1810
 51
248.1986
  0
ARC
  8
21
 10
24.4068
 20
31.9459
 30
0.0000
 40
0.8493
 50
65.7609
 51
89.1810
  0
ARC
  8
21
 10
24.6461
 20
32.0915
 30
0.0000
 40
0.1939
 50
269.1810
 51
68.1986
  0
ARC
  8
21
 10
24.6615
 20
33.1660
 30
0.0000
 40
1.2684
 50
250.2096
 51
269.1810
  0
LINE
  8
21
 10
25.3981
 20
31.8977
 30
0.0000
 11
25.3981
 21
32.7951
 31
0.0000
  0
LINE
  8
21
 10
25.3607
 20
33.1691
 30
0.0000
 11
25.3607
 21
33.2439
 31
0.0000
  0
LINE
  8
21
 10
25.3607
 20
33.2439
 30
0.0000
 11
25.4355
 21
33.2439
 31
0.0000
  0
LINE
  8
21
 10
25.4355
 20
33.2439
 30
0.0000
 11
25.4355
 21
33.1691
 31
0.0000
  0
LINE
  8
21
 10
25.4355
 20
33.1691
 30
0.0000
 11
25.3607
 21
33.1691
 31
0.0000
  0
LINE
  8
21
 10
26.5556
 20
33.2439
 30
0.0000
 11
26.5556
 21
31.8977
 31
0.0000
  0
LINE
  8
21
 10
26.5556
 20
31.8977
 30
0.0000
 11
26.1816
 21
31.8977
 31
0.0000
  0
ARC
  8
21
 10
26.1816
 20
32.1220
 30
0.0000
 40
0.2244
 50
180.0000
 51
270.0000
  0
LINE
  8
21
 10
25.9573
 20
32.1220
 30
0.0000
 11
25.9573
 21
32.5708
 31
0.0000
  0
ARC
  8
21
 10
26.1816
 20
32.5708
 30
0.0000
 40
0.2244
 50
89.9992
 51
180.0000
  0
LINE
  8
21
 10
26.1816
 20
32.7951
 30
0.0000
 11
26.5556
 21
32.7951
 31
0.0000
  0
LINE
  8
21
 10
27.7962
 20
31.8977
 30
0.0000
 11
27.4222
 21
31.8977
 31
0.0000
  0
ARC
  8
21
 10
27.4222
 20
32.1220
 30
0.0000
 40
0.2244
 50
180.0000
 51
270.0000
  0
LINE
  8
21
 10
27.1978
 20
32.1220
 30
0.0000
 11
27.1978
 21
32.4960
 31
0.0000
  0
ARC
  8
21
 10
27.4970
 20
32.4960
 30
0.0000
 40
0.2992
 50
0.0000
 51
180.0000
  0
LINE
  8
21
 10
27.7962
 20
32.4960
 30
0.0000
 11
27.7962
 21
32.3464
 31
0.0000
  0
LINE
  8
21
 10
27.7962
 20
32.3464
 30
0.0000
 11
27.1978
 21
32.3464
 31
0.0000
  0
ENDSEC
  0
EOF
